<svg width="20" height="20" viewBox="0 0 20 20" fill="none" xmlns="http://www.w3.org/2000/svg">
<mask id="mask0_320_8866" style="mask-type:alpha" maskUnits="userSpaceOnUse" x="0" y="0" width="20" height="20">
<rect width="20" height="20" fill="#D9D9D9"/>
</mask>
<g mask="url(#mask0_320_8866)">
<path d="M4.8763 14.25C5.58464 13.7083 6.3763 13.2812 7.2513 12.9687C8.1263 12.6562 9.04297 12.5 10.0013 12.5C10.9596 12.5 11.8763 12.6562 12.7513 12.9687C13.6263 13.2812 14.418 13.7083 15.1263 14.25C15.6124 13.6805 15.9909 13.0347 16.2617 12.3125C16.5326 11.5902 16.668 10.8194 16.668 9.99996C16.668 8.15274 16.0187 6.57982 14.7201 5.28121C13.4214 3.9826 11.8485 3.33329 10.0013 3.33329C8.15408 3.33329 6.58116 3.9826 5.28255 5.28121C3.98394 6.57982 3.33464 8.15274 3.33464 9.99996C3.33464 10.8194 3.47005 11.5902 3.74089 12.3125C4.01172 13.0347 4.39019 13.6805 4.8763 14.25ZM10.0013 10.8333C9.18186 10.8333 8.49089 10.552 7.92839 9.98954C7.36589 9.42704 7.08464 8.73607 7.08464 7.91663C7.08464 7.09718 7.36589 6.40621 7.92839 5.84371C8.49089 5.28121 9.18186 4.99996 10.0013 4.99996C10.8207 4.99996 11.5117 5.28121 12.0742 5.84371C12.6367 6.40621 12.918 7.09718 12.918 7.91663C12.918 8.73607 12.6367 9.42704 12.0742 9.98954C11.5117 10.552 10.8207 10.8333 10.0013 10.8333ZM10.0013 18.3333C8.84852 18.3333 7.76519 18.1145 6.7513 17.677C5.73741 17.2395 4.85547 16.6458 4.10547 15.8958C3.35547 15.1458 2.76172 14.2638 2.32422 13.25C1.88672 12.2361 1.66797 11.1527 1.66797 9.99996C1.66797 8.84718 1.88672 7.76385 2.32422 6.74996C2.76172 5.73607 3.35547 4.85413 4.10547 4.10413C4.85547 3.35413 5.73741 2.76038 6.7513 2.32288C7.76519 1.88538 8.84852 1.66663 10.0013 1.66663C11.1541 1.66663 12.2374 1.88538 13.2513 2.32288C14.2652 2.76038 15.1471 3.35413 15.8971 4.10413C16.6471 4.85413 17.2409 5.73607 17.6784 6.74996C18.1159 7.76385 18.3346 8.84718 18.3346 9.99996C18.3346 11.1527 18.1159 12.2361 17.6784 13.25C17.2409 14.2638 16.6471 15.1458 15.8971 15.8958C15.1471 16.6458 14.2652 17.2395 13.2513 17.677C12.2374 18.1145 11.1541 18.3333 10.0013 18.3333ZM10.0013 16.6666C10.7374 16.6666 11.4319 16.559 12.0846 16.3437C12.7374 16.1284 13.3346 15.8194 13.8763 15.4166C13.3346 15.0138 12.7374 14.7048 12.0846 14.4895C11.4319 14.2743 10.7374 14.1666 10.0013 14.1666C9.26519 14.1666 8.57075 14.2743 7.91797 14.4895C7.26519 14.7048 6.66797 15.0138 6.1263 15.4166C6.66797 15.8194 7.26519 16.1284 7.91797 16.3437C8.57075 16.559 9.26519 16.6666 10.0013 16.6666ZM10.0013 9.16663C10.3624 9.16663 10.661 9.04857 10.8971 8.81246C11.1332 8.57635 11.2513 8.27774 11.2513 7.91663C11.2513 7.55551 11.1332 7.2569 10.8971 7.02079C10.661 6.78468 10.3624 6.66663 10.0013 6.66663C9.64019 6.66663 9.34158 6.78468 9.10547 7.02079C8.86936 7.2569 8.7513 7.55551 8.7513 7.91663C8.7513 8.27774 8.86936 8.57635 9.10547 8.81246C9.34158 9.04857 9.64019 9.16663 10.0013 9.16663Z" fill="#1D375E"/>
</g>
</svg>
