<svg width="20" height="20" viewBox="0 0 20 20" fill="none" xmlns="http://www.w3.org/2000/svg">
<mask id="mask0_320_8803" style="mask-type:alpha" maskUnits="userSpaceOnUse" x="0" y="0" width="20" height="20">
<rect width="20" height="20" fill="#5C6E80"/>
</mask>
<g mask="url(#mask0_320_8803)">
<path d="M3.33464 16.6666C2.8763 16.6666 2.48394 16.5035 2.15755 16.1771C1.83116 15.8507 1.66797 15.4583 1.66797 15V4.99998C1.66797 4.54165 1.83116 4.14929 2.15755 3.8229C2.48394 3.49651 2.8763 3.33331 3.33464 3.33331H16.668C17.1263 3.33331 17.5187 3.49651 17.8451 3.8229C18.1714 4.14929 18.3346 4.54165 18.3346 4.99998V9.99998H3.33464V15H11.668V16.6666H3.33464ZM3.33464 6.66665H16.668V4.99998H3.33464V6.66665ZM15.8346 18.3333V15.8333H13.3346V14.1666H15.8346V11.6666H17.5013V14.1666H20.0013V15.8333H17.5013V18.3333H15.8346Z" fill="#1D375E"/>
</g>
</svg>
