<svg width="14" height="15" viewBox="0 0 14 15" fill="none" xmlns="http://www.w3.org/2000/svg">
<path d="M6.16585 0.345099L0.332516 6.17843C0.226302 6.28939 0.143043 6.42022 0.0875158 6.56343C-0.0291719 6.84747 -0.0291719 7.16606 0.0875158 7.4501C0.143043 7.59331 0.226302 7.72414 0.332516 7.8351L6.16585 13.6684C6.27463 13.7772 6.40377 13.8635 6.54589 13.9224C6.68802 13.9812 6.84035 14.0115 6.99418 14.0115C7.30487 14.0115 7.60283 13.8881 7.82252 13.6684C8.0422 13.4487 8.16562 13.1508 8.16562 12.8401C8.16562 12.5294 8.0422 12.2315 7.82252 12.0118L3.97252 8.17343L12.8275 8.17343C13.1369 8.17343 13.4337 8.05051 13.6525 7.83172C13.8713 7.61293 13.9942 7.31618 13.9942 7.00676C13.9942 6.69734 13.8713 6.4006 13.6525 6.18181C13.4337 5.96301 13.1369 5.8401 12.8275 5.8401L3.97252 5.8401L7.82252 2.00176C7.93187 1.89331 8.01866 1.76427 8.07789 1.6221C8.13712 1.47994 8.16761 1.32745 8.16761 1.17343C8.16761 1.01942 8.13712 0.866928 8.07789 0.724758C8.01866 0.582589 7.93187 0.453556 7.82252 0.345099C7.71406 0.235749 7.58502 0.148954 7.44286 0.0897236C7.30069 0.0304937 7.1482 -6.73217e-09 6.99418 0C6.84017 6.73215e-09 6.68768 0.0304938 6.54551 0.0897236C6.40334 0.148954 6.27431 0.235749 6.16585 0.345099Z" fill="#52565A"/>
</svg>
