<svg width="61" height="52" viewBox="0 0 61 52" fill="none" xmlns="http://www.w3.org/2000/svg">
<g filter="url(#filter0_d_1_6826)">
<path d="M15.9693 37.9745C14.8253 37.798 13.6997 37.5181 12.6062 37.1384C12.7658 36.4315 12.6963 35.6921 12.4076 35.0274C12.119 34.3627 11.6262 33.8071 11.0008 33.4411C10.3559 33.0684 9.60594 32.9191 8.86744 33.0163C8.12895 33.1134 7.44322 33.4518 6.91671 33.9786C6.01611 33.2536 5.18275 32.4488 4.42675 31.574C4.92753 31.0357 5.2395 30.3491 5.31551 29.6178C5.39152 28.8866 5.22744 28.1504 4.84807 27.5207C4.46871 26.8909 3.89466 26.4017 3.21269 26.1271C2.53072 25.8524 1.77788 25.8072 1.06794 25.9983C0.649607 24.9199 0.330696 23.8057 0.115184 22.6693C0.810809 22.4605 1.42014 22.0321 1.85205 21.4482C2.28396 20.8643 2.51524 20.1562 2.51129 19.4299C2.51075 18.6845 2.26439 17.96 1.81038 17.3687C1.35638 16.7774 0.720061 16.3523 0 16.1593C0.175779 15.0167 0.455173 13.8924 0.834727 12.8005C1.55013 12.9642 2.29935 12.8911 2.96965 12.5923C3.63995 12.2935 4.19506 11.785 4.55145 11.1435C4.90783 10.5019 5.04621 9.76195 4.94576 9.03496C4.84531 8.30796 4.51146 7.63326 3.99446 7.11239C4.71899 6.20913 5.52434 5.37379 6.40052 4.61674C6.93873 5.11725 7.62519 5.42904 8.35623 5.50502C9.08727 5.581 9.82317 5.41704 10.4528 5.03791C11.0825 4.65878 11.5716 4.08506 11.8465 3.40341C12.1213 2.72175 12.1669 1.96918 11.9763 1.25934C13.0542 0.841389 14.168 0.522487 15.3038 0.30659C15.5193 1.0095 15.9577 1.62321 16.5527 2.05505C17.1477 2.48689 17.8671 2.7134 18.6022 2.7004C19.3373 2.68739 20.0482 2.43557 20.6275 1.98295C21.2069 1.53034 21.6233 0.901503 21.8138 0.191406C22.9579 0.367634 24.0835 0.647501 25.1769 1.02755C25.0172 1.7343 25.0865 2.47353 25.3749 3.13824C25.6633 3.80294 26.1557 4.35862 26.7809 4.72481C27.4258 5.09752 28.1758 5.24687 28.9142 5.14967C29.6527 5.05248 30.3385 4.71417 30.865 4.18729C31.767 4.91168 32.6018 5.71602 33.3592 6.5905C32.9127 7.07385 32.6166 7.67673 32.507 8.32556C32.3974 8.97438 32.4791 9.64108 32.7421 10.2443C33.0051 10.8474 33.438 11.361 33.9879 11.7223C34.5379 12.0835 35.1812 12.2768 35.8392 12.2786C36.1359 12.2777 36.4313 12.2385 36.718 12.162C37.1367 13.2402 37.4557 14.3545 37.6708 15.4909C36.9678 15.706 36.3538 16.144 35.9216 16.7387C35.4894 17.3334 35.2624 18.0526 35.2749 18.7877C35.2875 19.5228 35.5388 20.2338 35.991 20.8135C36.4432 21.3932 37.0718 21.81 37.7817 22.001C37.6054 23.1435 37.3261 24.2677 36.947 25.3598C36.2313 25.1949 35.4814 25.2672 34.8104 25.5657C34.1394 25.8643 33.5837 26.373 33.227 27.015C32.8704 27.657 32.7321 28.3976 32.8332 29.125C32.9343 29.8525 33.2691 30.5273 33.7872 31.0479C33.0626 31.9519 32.2578 32.7886 31.3826 33.5478C30.8441 33.0475 30.1575 32.7359 29.4263 32.6601C28.6952 32.5844 27.9593 32.7485 27.3296 33.1277C26.6999 33.5069 26.2107 34.0806 25.9358 34.7623C25.6608 35.444 25.6151 36.1966 25.8054 36.9066C24.7265 37.3246 23.6118 37.6435 22.4751 37.8593C22.2609 37.1557 21.8233 36.541 21.2285 36.1084C20.6337 35.6757 19.9141 35.4487 19.1787 35.4617C18.4433 35.4748 17.7322 35.7271 17.1531 36.1805C16.574 36.6339 16.1584 37.2637 15.9693 37.9745ZM18.8916 8.81028C16.8598 8.81028 14.8737 9.41276 13.1844 10.5415C11.495 11.6703 10.1784 13.2747 9.40084 15.1518C8.62332 17.0289 8.41989 19.0944 8.81626 21.0871C9.21263 23.0798 10.191 24.9102 11.6277 26.3468C13.0643 27.7835 14.8947 28.7619 16.8875 29.1583C18.8802 29.5546 20.9457 29.3512 22.8227 28.5737C24.6998 27.7962 26.3042 26.4795 27.433 24.7902C28.5618 23.1008 29.1642 21.1147 29.1642 19.083C29.1612 16.3594 28.078 13.7483 26.1521 11.8224C24.2263 9.89656 21.6151 8.81329 18.8916 8.81028Z" fill="#FF725F"/>
</g>
<path d="M50.2317 51.2277V42.97C50.2315 42.9283 50.2396 42.8869 50.2554 42.8482C50.2713 42.8096 50.2946 42.7745 50.3241 42.7449C50.3535 42.7153 50.3886 42.6918 50.4271 42.6758C50.4657 42.6597 50.5071 42.6515 50.5488 42.6515H58.8108C58.9089 42.6515 58.8335 42.4993 58.6572 42.4993H50.563C50.4993 42.4991 50.4362 42.5116 50.3772 42.5359C50.3183 42.5602 50.2648 42.5959 50.2197 42.6409C50.1747 42.686 50.139 42.7395 50.1147 42.7985C50.0904 42.8574 50.0779 42.9205 50.0781 42.9842V51.0755C50.0781 51.2519 50.2317 51.3258 50.2317 51.2277Z" fill="white" fill-opacity="0.36"/>
<path d="M50.2317 42.1548V33.8957C50.2317 33.8113 50.265 33.7304 50.3244 33.6704C50.3838 33.6105 50.4645 33.5765 50.5488 33.5757H58.8108C58.9089 33.5757 58.8335 33.425 58.6572 33.425H50.563C50.4994 33.425 50.4363 33.4375 50.3775 33.4619C50.3186 33.4863 50.2652 33.522 50.2202 33.567C50.1751 33.612 50.1394 33.6655 50.115 33.7243C50.0907 33.7832 50.0781 33.8462 50.0781 33.9099V42.0012C50.0781 42.1775 50.2317 42.2529 50.2317 42.1548Z" fill="white" fill-opacity="0.36"/>
<path d="M59.1016 32.9701V24.7267C59.1016 24.4981 58.9163 24.3129 58.6878 24.3129H50.4429C50.2143 24.3129 50.0291 24.4981 50.0291 24.7267V32.9701C50.0291 33.1987 50.2143 33.3839 50.4429 33.3839H58.6878C58.9163 33.3839 59.1016 33.1987 59.1016 32.9701Z" fill="#095993"/>
<g style="mix-blend-mode:multiply">
<path d="M58.9006 24.5835V32.8995C58.9006 32.9683 58.8734 33.0343 58.8249 33.083C58.7764 33.1318 58.7106 33.1594 58.6418 33.1597H50.323C50.2249 33.1597 50.2988 33.3105 50.4766 33.3105H58.6177C58.6763 33.3162 58.7354 33.3089 58.7909 33.289C58.8464 33.2692 58.8968 33.2374 58.9385 33.1958C58.9802 33.1542 59.0122 33.1039 59.0322 33.0485C59.0522 32.9931 59.0597 32.934 59.0542 32.8753V24.7357C59.0542 24.5594 58.9006 24.4854 58.9006 24.5835Z" fill="#CFD8DC"/>
</g>
<path d="M50.532 24.313C50.4669 24.3132 50.4025 24.3005 50.3424 24.2757C50.2823 24.2509 50.2276 24.2145 50.1816 24.1685C50.1356 24.1225 50.0992 24.0679 50.0744 24.0078C50.0496 23.9476 50.0369 23.8832 50.0371 23.8182V15.7354C50.0369 15.6704 50.0496 15.6061 50.0744 15.546C50.0992 15.486 50.1357 15.4314 50.1817 15.3856C50.2277 15.3397 50.2824 15.3034 50.3425 15.2787C50.4026 15.2541 50.467 15.2416 50.532 15.242H58.6147C58.6797 15.2418 58.744 15.2544 58.804 15.2791C58.864 15.3038 58.9186 15.3401 58.9646 15.386C59.0106 15.4318 59.047 15.4863 59.0719 15.5462C59.0968 15.6062 59.1096 15.6705 59.1096 15.7354V23.8182C59.1096 23.9494 59.0575 24.0753 58.9647 24.1681C58.8719 24.2609 58.746 24.313 58.6147 24.313H50.532Z" fill="#095993"/>
<g style="mix-blend-mode:multiply">
<path d="M58.9006 15.5126V23.8286C58.9008 23.8628 58.8943 23.8966 58.8814 23.9283C58.8685 23.9599 58.8494 23.9887 58.8254 24.013C58.8014 24.0373 58.7728 24.0566 58.7413 24.0699C58.7098 24.0831 58.676 24.0901 58.6418 24.0902H50.323C50.2249 24.0902 50.2988 24.2424 50.4766 24.2424H58.6177C58.6764 24.2477 58.7356 24.2399 58.7911 24.2198C58.8465 24.1996 58.8969 24.1675 58.9385 24.1257C58.9802 24.0839 59.0121 24.0334 59.0321 23.9779C59.0521 23.9224 59.0597 23.8632 59.0542 23.8044V15.6648C59.0542 15.4884 58.9006 15.4145 58.9006 15.5126Z" fill="#CFD8DC"/>
</g>
<path d="M22.5566 42.8678V51.1156C22.5566 51.2253 22.513 51.3306 22.4354 51.4082C22.3578 51.4858 22.2526 51.5294 22.1428 51.5294H13.8951C13.785 51.5294 13.6794 51.4856 13.6015 51.4077C13.5236 51.3299 13.4799 51.2243 13.4799 51.1141V42.8664C13.4799 42.7563 13.5236 42.6507 13.6015 42.5728C13.6794 42.4949 13.785 42.4512 13.8951 42.4512H22.1428C22.1974 42.4512 22.2514 42.462 22.3018 42.4829C22.3522 42.5039 22.398 42.5347 22.4364 42.5734C22.4749 42.6121 22.5053 42.6581 22.526 42.7086C22.5466 42.7591 22.557 42.8132 22.5566 42.8678Z" fill="#095993"/>
<g style="mix-blend-mode:multiply">
<path d="M22.3562 42.7241V51.0415C22.3564 51.0757 22.3498 51.1097 22.3368 51.1413C22.3238 51.173 22.3046 51.2017 22.2804 51.2259C22.2562 51.2501 22.2275 51.2693 22.1958 51.2823C22.1642 51.2953 22.1302 51.3019 22.096 51.3017H13.7772C13.6805 51.3017 13.7544 51.4553 13.9308 51.4553H22.0718C22.1307 51.4608 22.1901 51.4532 22.2457 51.4332C22.3013 51.4131 22.3519 51.381 22.3937 51.3392C22.4355 51.2974 22.4676 51.2468 22.4876 51.1912C22.5077 51.1356 22.5153 51.0762 22.5098 51.0173V42.8777C22.5098 42.7028 22.3562 42.6274 22.3562 42.7241Z" fill="#CFD8DC"/>
</g>
<path d="M46.8535 51.1168V42.8719C46.8535 42.6433 46.6682 42.4581 46.4397 42.4581H38.1948C37.9663 42.4581 37.781 42.6433 37.781 42.8719V51.1168C37.781 51.3453 37.9663 51.5306 38.1948 51.5306H46.4397C46.6682 51.5306 46.8535 51.3453 46.8535 51.1168Z" fill="url(#paint0_linear_1_6826)"/>
<path d="M37.9764 51.2277V42.97C37.9764 42.9282 37.9846 42.8868 38.0006 42.8481C38.0166 42.8095 38.0401 42.7744 38.0697 42.7448C38.0992 42.7152 38.1344 42.6917 38.173 42.6757C38.2117 42.6597 38.2531 42.6515 38.2949 42.6515H46.5554C46.6536 42.6515 46.5796 42.4993 46.4019 42.4993H38.3091C38.1805 42.4993 38.0572 42.5504 37.9662 42.6414C37.8753 42.7323 37.8242 42.8556 37.8242 42.9842V51.0755C37.8242 51.2519 37.9764 51.3258 37.9764 51.2277Z" fill="white" fill-opacity="0.36"/>
<g style="mix-blend-mode:multiply">
<path d="M46.6526 42.7241V51.0415C46.6528 51.0756 46.6463 51.1094 46.6333 51.141C46.6204 51.1726 46.6014 51.2013 46.5773 51.2254C46.5533 51.2496 46.5247 51.2688 46.4932 51.2819C46.4617 51.295 46.4279 51.3017 46.3938 51.3017H38.075C37.9769 51.3017 38.0508 51.4553 38.2271 51.4553H46.3682C46.427 51.4606 46.4862 51.4528 46.5417 51.4327C46.5971 51.4125 46.6474 51.3804 46.6891 51.3386C46.7307 51.2968 46.7627 51.2464 46.7827 51.1908C46.8027 51.1353 46.8102 51.0761 46.8048 51.0173V42.8777C46.8048 42.7028 46.6526 42.6274 46.6526 42.7241Z" fill="#CFD8DC"/>
</g>
<path d="M46.8535 33.7976V42.0453C46.8533 42.1 46.8423 42.1541 46.8211 42.2045C46.7998 42.2549 46.7688 42.3006 46.7298 42.339C46.6908 42.3773 46.6446 42.4076 46.5938 42.428C46.543 42.4483 46.4887 42.4584 46.434 42.4577H38.1863C38.0765 42.4577 37.9713 42.4141 37.8937 42.3365C37.8161 42.2589 37.7725 42.1536 37.7725 42.0439V33.7976C37.7725 33.7432 37.7832 33.6894 37.804 33.6392C37.8248 33.589 37.8553 33.5434 37.8937 33.505C37.9321 33.4665 37.9777 33.436 38.0279 33.4153C38.0781 33.3945 38.1319 33.3837 38.1863 33.3837H46.434C46.4888 33.3832 46.5431 33.3935 46.5939 33.414C46.6447 33.4345 46.6909 33.4649 46.7299 33.5034C46.7689 33.5418 46.7999 33.5876 46.8211 33.6381C46.8423 33.6886 46.8533 33.7428 46.8535 33.7976Z" fill="url(#paint1_linear_1_6826)"/>
<path d="M37.9764 42.1548V33.8957C37.9764 33.8111 38.0099 33.7299 38.0696 33.6699C38.1293 33.61 38.2103 33.5761 38.2949 33.5757H46.5554C46.6536 33.5757 46.5796 33.425 46.4019 33.425H38.3091C38.1805 33.425 38.0572 33.4761 37.9662 33.567C37.8753 33.658 37.8242 33.7813 37.8242 33.9099V42.0012C37.8242 42.1775 37.9764 42.2529 37.9764 42.1548Z" fill="white" fill-opacity="0.36"/>
<g style="mix-blend-mode:multiply">
<path d="M46.6526 33.6609V41.9783C46.6523 42.0468 46.6249 42.1124 46.5764 42.1609C46.528 42.2093 46.4623 42.2367 46.3938 42.2371H38.075C37.9769 42.2371 38.0508 42.3907 38.2271 42.3907H46.3682C46.427 42.3959 46.4862 42.3882 46.5417 42.368C46.5971 42.3479 46.6474 42.3157 46.6891 42.2739C46.7307 42.2322 46.7627 42.1817 46.7827 42.1262C46.8027 42.0707 46.8102 42.0115 46.8048 41.9527V33.8031C46.8048 33.6325 46.6526 33.5585 46.6526 33.6609Z" fill="#CFD8DC"/>
</g>
<path d="M46.8535 24.7267V32.9744C46.8535 33.0845 46.8098 33.1901 46.7319 33.268C46.654 33.3459 46.5484 33.3896 46.4383 33.3896H38.1906C38.1362 33.3896 38.0824 33.3789 38.0322 33.3581C37.982 33.3373 37.9364 33.3069 37.898 33.2684C37.8595 33.23 37.829 33.1844 37.8082 33.1342C37.7875 33.084 37.7767 33.0302 37.7767 32.9758V24.7267C37.7767 24.6723 37.7875 24.6185 37.8082 24.5683C37.829 24.5181 37.8595 24.4725 37.898 24.4341C37.9364 24.3956 37.982 24.3652 38.0322 24.3444C38.0824 24.3236 38.1362 24.3129 38.1906 24.3129H46.4383C46.5482 24.3129 46.6536 24.3564 46.7314 24.434C46.8092 24.5115 46.8531 24.6168 46.8535 24.7267Z" fill="#095993"/>
<g style="mix-blend-mode:multiply">
<path d="M46.6526 24.5826V32.9C46.6526 32.9687 46.6254 33.0345 46.5768 33.083C46.5283 33.1316 46.4625 33.1588 46.3938 33.1588H38.075C37.9769 33.1588 38.0508 33.3124 38.2271 33.3124H46.3682C46.4269 33.3179 46.4861 33.3104 46.5416 33.2904C46.597 33.2704 46.6474 33.2384 46.6891 33.1967C46.7308 33.155 46.7627 33.1047 46.7827 33.0492C46.8027 32.9937 46.8103 32.9346 46.8048 32.8759V24.7348C46.8048 24.5599 46.6526 24.4859 46.6526 24.5826Z" fill="#CFD8DC"/>
</g>
<path d="M60.6286 6.05219L54.912 0.335659C54.8191 0.243264 54.6933 0.191406 54.5622 0.191406C54.4311 0.191406 54.3054 0.243264 54.2124 0.335659L48.4973 6.05076C48.3053 6.24416 48.3978 6.75182 48.7817 6.75182H50.0231V14.7479C50.0231 14.8792 50.0752 15.0052 50.168 15.0983C50.2608 15.1913 50.3866 15.2438 50.518 15.2441H58.6008C58.7318 15.243 58.8571 15.1903 58.9494 15.0974C59.0418 15.0045 59.0938 14.8789 59.0942 14.7479V6.75182H60.4039C60.758 6.75182 60.822 6.24558 60.6286 6.05219Z" fill="#095993"/>
<g style="mix-blend-mode:multiply">
<path d="M50.5206 15.2392H58.6034C58.7334 15.2374 58.8576 15.1847 58.9493 15.0925C59.0409 15.0003 59.0929 14.8758 59.094 14.7458V6.74977H60.4037C60.7521 6.74977 60.8161 6.24353 60.6227 6.05014L54.9061 0.333608C54.8148 0.242565 54.691 0.191434 54.562 0.191406V0.434572C54.6268 0.435336 54.6888 0.460762 54.7355 0.505673L60.4506 6.2222C60.472 6.25655 60.4848 6.29552 60.488 6.33585C60.4913 6.37618 60.4848 6.41669 60.4691 6.45399C60.4463 6.50945 60.4207 6.50945 60.4037 6.50945H58.8537V14.7458C58.8533 14.8134 58.8262 14.8782 58.7782 14.9259C58.7302 14.9736 58.6654 15.0003 58.5977 15.0003H50.5206C50.4868 15 50.4534 14.9929 50.4224 14.9795C50.3914 14.9661 50.3634 14.9466 50.34 14.9221L50.168 15.0928C50.2141 15.1393 50.2691 15.1762 50.3296 15.2014C50.3901 15.2265 50.4551 15.2394 50.5206 15.2392Z" fill="#CFD8DC"/>
</g>
<path d="M48.3801 15.1223L42.6635 9.40717C42.5707 9.31443 42.4449 9.26233 42.3137 9.26233C42.1825 9.26233 42.0567 9.31443 41.9639 9.40717L36.2502 15.1223C36.0568 15.3142 36.1492 15.8219 36.5346 15.8219H37.7775V23.8165C37.7775 23.9475 37.8294 24.0732 37.9219 24.1659C38.0144 24.2587 38.1399 24.311 38.2709 24.3114H46.3551C46.4861 24.3106 46.6115 24.2583 46.7042 24.1656C46.7968 24.073 46.8492 23.9475 46.85 23.8165V15.8219H48.1596C48.5095 15.8219 48.5763 15.3157 48.3801 15.1223Z" fill="#095993"/>
<g style="mix-blend-mode:multiply">
<path d="M38.2667 24.3122H46.3509C46.4819 24.3114 46.6074 24.259 46.7 24.1664C46.7927 24.0737 46.845 23.9483 46.8458 23.8173V15.8227H48.1555C48.5039 15.8227 48.5679 15.3165 48.3745 15.1231L42.6579 9.40795C42.5665 9.31691 42.4428 9.26578 42.3138 9.26575V9.50749C42.3787 9.50878 42.4408 9.53471 42.4873 9.58001L48.2024 15.2951C48.2241 15.3293 48.2372 15.3683 48.2404 15.4087C48.2436 15.4491 48.2369 15.4897 48.2209 15.5269C48.1981 15.5838 48.1725 15.5838 48.1555 15.5838H46.6055V23.8187C46.6051 23.886 46.5781 23.9504 46.5304 23.9978C46.4827 24.0452 46.4182 24.0718 46.3509 24.0718H38.2667C38.2329 24.0717 38.1995 24.0647 38.1684 24.0512C38.1374 24.0378 38.1094 24.0182 38.0861 23.9936L37.9141 24.1643C37.9599 24.2113 38.0148 24.2487 38.0753 24.2741C38.1359 24.2995 38.201 24.3125 38.2667 24.3122Z" fill="#CFD8DC"/>
</g>
<path d="M36.2338 24.198L30.5201 18.4815C30.4273 18.3888 30.3015 18.3367 30.1703 18.3367C30.0391 18.3367 29.9133 18.3888 29.8205 18.4815L24.1054 24.1966C23.912 24.39 24.0058 24.8962 24.3898 24.8962H25.6326V32.8909C25.6324 32.956 25.6451 33.0205 25.6699 33.0807C25.6947 33.1409 25.7311 33.1956 25.777 33.2417C25.823 33.2878 25.8776 33.3244 25.9378 33.3493C25.9979 33.3743 26.0624 33.3871 26.1275 33.3871H34.2174C34.3489 33.3868 34.4749 33.3344 34.5679 33.2414C34.6609 33.1484 34.7133 33.0224 34.7136 32.8909V24.8977H36.0219C36.3632 24.8977 36.4272 24.39 36.2338 24.198Z" fill="#095993"/>
<g style="mix-blend-mode:multiply">
<path d="M26.1281 33.3845H34.2179C34.3494 33.3841 34.4755 33.3317 34.5684 33.2387C34.6614 33.1457 34.7138 33.0197 34.7142 32.8882V24.895H36.0225C36.3709 24.895 36.4349 24.3874 36.2415 24.1954L30.5207 18.4789C30.4289 18.3883 30.3054 18.3373 30.1765 18.3367V18.5798C30.2085 18.5797 30.2402 18.586 30.2697 18.5982C30.2992 18.6104 30.3261 18.6283 30.3486 18.6509L36.0651 24.3675C36.0863 24.4019 36.099 24.4409 36.1022 24.4811C36.1054 24.5214 36.0991 24.5619 36.0836 24.5993C36.0609 24.6547 36.0353 24.6547 36.0168 24.6547H34.4668V32.8896C34.4668 32.9571 34.44 33.0219 34.3922 33.0696C34.3445 33.1174 34.2798 33.1442 34.2122 33.1442H26.1266C26.0929 33.144 26.0595 33.1368 26.0287 33.1231C25.9979 33.1094 25.9702 33.0895 25.9475 33.0645L25.7754 33.2338C25.8211 33.2812 25.8759 33.3189 25.9365 33.3448C25.997 33.3707 26.0622 33.3842 26.1281 33.3845Z" fill="#CFD8DC"/>
</g>
<path d="M24.0829 33.2677L18.3678 27.5455C18.275 27.4527 18.1491 27.4006 18.0179 27.4006C17.8867 27.4006 17.7609 27.4527 17.6681 27.5455L11.953 33.2606C11.7596 33.454 11.8535 33.9602 12.2374 33.9602H13.4803V41.9548C13.4803 42.0861 13.5324 42.2119 13.6252 42.3047C13.718 42.3975 13.8439 42.4497 13.9751 42.4497H22.0593C22.1906 42.4497 22.3164 42.3975 22.4092 42.3047C22.5021 42.2119 22.5542 42.0861 22.5542 41.9548V33.9673H23.8639C24.2123 33.9673 24.2763 33.4597 24.0829 33.2677Z" fill="#095993"/>
<g style="mix-blend-mode:multiply">
<path d="M13.9684 42.4562H22.0526C22.1839 42.4562 22.3097 42.4041 22.4025 42.3113C22.4953 42.2185 22.5475 42.0926 22.5475 41.9613V33.9682H23.8572C24.2056 33.9682 24.2696 33.4605 24.0762 33.2685L18.3611 27.5463C18.2688 27.4557 18.1448 27.4047 18.0155 27.4041V27.6473C18.0803 27.648 18.1423 27.6735 18.189 27.7184L23.9055 33.4349C23.9263 33.4695 23.9387 33.5085 23.9417 33.5488C23.9447 33.589 23.9381 33.6294 23.9226 33.6667C23.8998 33.7222 23.8757 33.7222 23.8572 33.7222H22.3057V41.9571C22.3057 42.0243 22.2791 42.0889 22.2317 42.1366C22.1843 42.1843 22.1199 42.2113 22.0526 42.2116H13.9684C13.9345 42.2113 13.901 42.2041 13.8699 42.1904C13.8389 42.1767 13.811 42.1568 13.7878 42.132L13.6172 42.3041C13.6625 42.3517 13.717 42.3897 13.7774 42.4158C13.8377 42.4419 13.9027 42.4557 13.9684 42.4562Z" fill="#CFD8DC"/>
</g>
<g style="mix-blend-mode:multiply">
<path d="M55.5789 27.9844H29.4172C28.7698 27.9908 28.1514 28.2599 27.6979 28.7327C27.2443 29.2055 26.9926 29.8432 26.9981 30.5057V49.4901C26.9954 49.8151 27.0553 50.1375 27.1744 50.4388C27.2934 50.7401 27.4694 51.0144 27.6921 51.2461C27.9148 51.4777 28.18 51.6622 28.4724 51.7889C28.7649 51.9156 29.0788 51.982 29.3964 51.9844H56.5105C57.0525 51.9844 57.9979 51.0906 57.9979 50.2903V30.5057C58.0009 30.1776 57.9406 29.8521 57.8206 29.5478C57.7006 29.2435 57.5233 28.9664 57.2986 28.7323C57.074 28.4982 56.8065 28.3116 56.5114 28.1833C56.2164 28.055 55.8995 27.9874 55.5789 27.9844Z" fill="#A0B1B9"/>
</g>
<g filter="url(#filter1_d_1_6826)">
<path d="M26 30.9844H59V49.7477C59.0002 50.0413 58.9446 50.3319 58.8364 50.6032C58.7282 50.8745 58.5695 51.121 58.3694 51.3287C58.1693 51.5364 57.9317 51.7012 57.6701 51.8137C57.4085 51.9262 57.1282 51.9842 56.845 51.9844H28.1564C27.5845 51.9844 27.036 51.7489 26.6316 51.3297C26.2272 50.9105 26 50.342 26 49.7492V30.9844Z" fill="#26C4D8"/>
</g>
<g style="mix-blend-mode:multiply">
<path d="M25.748 38.7509C25.8554 38.8306 25.9794 38.885 26.1107 38.9102L42.4056 41.9434L58.702 38.9102C58.8333 38.885 58.9572 38.8306 59.0646 38.7509V31.1246H25.748V38.7509Z" fill="#1E3263"/>
</g>
<path d="M28.047 26.2866H56.7718C57.1208 26.2864 57.4663 26.3549 57.7888 26.4884C58.1112 26.6218 58.4042 26.8174 58.651 27.0641C58.8979 27.3108 59.0936 27.6037 59.2272 27.926C59.3608 28.2484 59.4296 28.5939 59.4296 28.9429V37.5362C59.4292 37.7439 59.3565 37.945 59.2239 38.1049C59.0912 38.2648 58.907 38.3734 58.7029 38.4121L42.4108 41.4993L26.1159 38.4121C25.9119 38.3734 25.7278 38.2647 25.5955 38.1048C25.4631 37.9449 25.3906 37.7438 25.3906 37.5362V28.9429C25.3906 28.2384 25.6705 27.5627 26.1686 27.0646C26.6668 26.5664 27.3425 26.2866 28.047 26.2866Z" fill="#26C4D8"/>
<path d="M44.6482 38.0396H40.1659C39.8673 38.0396 39.7009 38.324 39.7521 38.6723L39.7422 40.0019V42.3355C39.7422 42.5786 40.0636 42.8147 40.311 42.8147L44.7833 42.8431C44.9094 42.8372 45.0287 42.784 45.1174 42.6942C45.2062 42.6043 45.258 42.4844 45.2625 42.3582L45.234 40.056L45.234 39.8364L45.234 38.6723C45.2909 38.1889 44.9454 38.0396 44.6482 38.0396Z" fill="#1E3263"/>
<path d="M32.37 25.8602H36.1995V26.2868H31.9434C31.9434 26.1736 31.9883 26.0651 32.0683 25.9851C32.1483 25.9051 32.2568 25.8602 32.37 25.8602Z" fill="#1E3263"/>
<path d="M52.4506 25.8602H48.6211V26.2868H52.8772C52.8772 26.1736 52.8323 26.0651 52.7523 25.9851C52.6723 25.9051 52.5637 25.8602 52.4506 25.8602Z" fill="#1E3263"/>
<path d="M48.6637 24.0701C48.0898 23.4705 47.3966 22.9977 46.6288 22.6822C45.2793 22.1134 43.435 21.9712 42.4083 21.9712C41.3816 21.9712 39.5386 22.1134 38.1905 22.6822C37.4222 22.9974 36.7285 23.4702 36.1542 24.0701C35.9523 24.2763 36.0831 24.8607 36.6277 24.6531C36.8979 24.5507 37.3843 24.1085 37.7369 23.9521C38.3285 23.6918 40.6848 23.261 42.4083 23.261C44.1317 23.261 46.4895 23.6876 47.081 23.9521C47.4337 24.1085 47.92 24.5507 48.1902 24.6531C48.7348 24.8607 48.8657 24.2777 48.6637 24.0701Z" fill="#1E3263"/>
<path d="M36.4425 24.134C36.2861 24.134 36.1581 24.2606 36.1581 24.4995L36.1055 26.2884H36.7824L36.7226 24.4995C36.7241 24.2563 36.5989 24.134 36.4425 24.134Z" fill="#1E3263"/>
<path d="M48.3814 24.134C48.5393 24.134 48.6658 24.2606 48.6658 24.4995L48.7184 26.2884H48.043L48.1013 24.4995C48.0999 24.2563 48.2264 24.134 48.3814 24.134Z" fill="#1E3263"/>
<defs>
<filter id="filter0_d_1_6826" x="0" y="0.191406" width="37.7812" height="37.7831" filterUnits="userSpaceOnUse" color-interpolation-filters="sRGB">
<feFlood flood-opacity="0" result="BackgroundImageFix"/>
<feColorMatrix in="SourceAlpha" type="matrix" values="0 0 0 0 0 0 0 0 0 0 0 0 0 0 0 0 0 0 127 0" result="hardAlpha"/>
<feMorphology radius="95.9493" operator="erode" in="SourceAlpha" result="effect1_dropShadow_1_6826"/>
<feOffset dx="1.76054" dy="1.76054"/>
<feGaussianBlur stdDeviation="2.46475"/>
<feComposite in2="hardAlpha" operator="out"/>
<feColorMatrix type="matrix" values="0 0 0 0 0 0 0 0 0 0 0 0 0 0 0 0 0 0 0.2 0"/>
<feBlend mode="multiply" in2="BackgroundImageFix" result="effect1_dropShadow_1_6826"/>
<feBlend mode="normal" in="SourceGraphic" in2="effect1_dropShadow_1_6826" result="shape"/>
</filter>
<filter id="filter1_d_1_6826" x="26" y="30.9844" width="33" height="21" filterUnits="userSpaceOnUse" color-interpolation-filters="sRGB">
<feFlood flood-opacity="0" result="BackgroundImageFix"/>
<feColorMatrix in="SourceAlpha" type="matrix" values="0 0 0 0 0 0 0 0 0 0 0 0 0 0 0 0 0 0 127 0" result="hardAlpha"/>
<feMorphology radius="95.9493" operator="erode" in="SourceAlpha" result="effect1_dropShadow_1_6826"/>
<feOffset dx="1.76054" dy="1.76054"/>
<feGaussianBlur stdDeviation="2.46475"/>
<feComposite in2="hardAlpha" operator="out"/>
<feColorMatrix type="matrix" values="0 0 0 0 0 0 0 0 0 0 0 0 0 0 0 0 0 0 0.2 0"/>
<feBlend mode="multiply" in2="BackgroundImageFix" result="effect1_dropShadow_1_6826"/>
<feBlend mode="normal" in="SourceGraphic" in2="effect1_dropShadow_1_6826" result="shape"/>
</filter>
<linearGradient id="paint0_linear_1_6826" x1="37.9033" y1="42.5804" x2="46.7326" y2="51.4097" gradientUnits="userSpaceOnUse">
<stop stop-color="#3AD8FF"/>
<stop offset="0.19" stop-color="#27CCF1"/>
<stop offset="0.47" stop-color="#12BEE2"/>
<stop offset="0.75" stop-color="#04B5D8"/>
<stop offset="1" stop-color="#00B2D5"/>
</linearGradient>
<linearGradient id="paint1_linear_1_6826" x1="37.9019" y1="33.5075" x2="46.7312" y2="42.3368" gradientUnits="userSpaceOnUse">
<stop stop-color="#3AD8FF"/>
<stop offset="0.19" stop-color="#27CCF1"/>
<stop offset="0.47" stop-color="#12BEE2"/>
<stop offset="0.75" stop-color="#04B5D8"/>
<stop offset="1" stop-color="#00B2D5"/>
</linearGradient>
</defs>
</svg>
