<svg width="24" height="25" viewBox="0 0 24 25" fill="none" xmlns="http://www.w3.org/2000/svg">
<mask id="mask0_320_8362" style="mask-type:alpha" maskUnits="userSpaceOnUse" x="0" y="0" width="24" height="25">
<rect y="0.5" width="24" height="24" fill="#D9D9D9"/>
</mask>
<g mask="url(#mask0_320_8362)">
<path d="M10.6 16.9232L17.65 9.95856L16.25 8.57551L10.6 14.1571L7.75 11.3416L6.35 12.7246L10.6 16.9232ZM12 22.2578C10.6167 22.2578 9.31667 21.9984 8.1 21.4798C6.88333 20.9612 5.825 20.2573 4.925 19.3682C4.025 18.4791 3.3125 17.4336 2.7875 16.2316C2.2625 15.0297 2 13.7455 2 12.3789C2 11.0123 2.2625 9.72805 2.7875 8.52612C3.3125 7.32419 4.025 6.27867 4.925 5.38957C5.825 4.50047 6.88333 3.7966 8.1 3.27796C9.31667 2.75932 10.6167 2.5 12 2.5C13.3833 2.5 14.6833 2.75932 15.9 3.27796C17.1167 3.7966 18.175 4.50047 19.075 5.38957C19.975 6.27867 20.6875 7.32419 21.2125 8.52612C21.7375 9.72805 22 11.0123 22 12.3789C22 13.7455 21.7375 15.0297 21.2125 16.2316C20.6875 17.4336 19.975 18.4791 19.075 19.3682C18.175 20.2573 17.1167 20.9612 15.9 21.4798C14.6833 21.9984 13.3833 22.2578 12 22.2578Z" fill="#00B812"/>
</g>
</svg>
