<svg width="66" height="66" viewBox="0 0 66 66" fill="none" xmlns="http://www.w3.org/2000/svg">
<path d="M58.9874 35.2439L58.9874 35.244C59.0529 35.8371 58.7677 36.4121 58.2568 36.7187L50.7023 41.2522L57.781 48.331C57.7811 48.331 57.7811 48.331 57.7811 48.331C59.4484 49.997 59.4484 52.7099 57.7811 54.3759C57.7811 54.3759 57.7811 54.3759 57.781 54.3759L54.2859 57.871C53.4535 58.7049 52.3574 59.1209 51.2636 59.1209C51.2635 59.1209 51.2635 59.1209 51.2634 59.1209V58.9709C50.2074 58.9723 49.15 58.5694 48.3456 57.7664L58.9874 35.2439ZM58.9874 35.2439C58.9218 34.6524 58.5178 34.1522 57.9535 33.9645L58.9874 35.2439ZM24.7281 22.8903C24.1803 22.7072 23.5764 22.8507 23.1678 23.2593C22.7591 23.668 22.6174 24.2719 22.7988 24.8191L22.7988 24.8194L33.8745 58.0449L33.8745 58.0451C34.0636 58.6092 34.5636 59.0132 35.1552 59.0788L35.1554 59.0788C35.7385 59.1429 36.3219 58.858 36.6285 58.3484L36.6286 58.3483L41.1622 50.7937L57.9533 33.9645L24.7281 22.8903ZM24.7281 22.8903L24.6805 23.0326M24.7281 22.8903L24.728 22.8903L24.6805 23.0326M24.6805 23.0326C24.1869 22.8676 23.6424 22.9968 23.2739 23.3653C22.9054 23.7338 22.7775 24.2783 22.9411 24.7719L24.6805 23.0326ZM55.5172 52.3243L55.6233 52.2181C56.101 51.7405 56.101 50.9637 55.6233 50.486L47.1643 42.027C46.8321 41.6948 46.6703 41.2282 46.7283 40.7625C46.7862 40.2978 47.0544 39.883 47.4572 39.6418L55.5172 52.3243ZM55.5172 52.3243L55.5186 52.3256M55.5172 52.3243L55.5186 52.3256M55.5186 52.3256L52.1297 55.7145L55.5186 52.3256ZM50.396 55.7148C50.8735 56.1909 51.6503 56.1912 52.1295 55.7148H50.396ZM50.396 55.7148L50.3958 55.7146L41.9372 47.256M50.396 55.7148L41.9372 47.256M41.9372 47.256C41.6502 46.9675 41.2611 46.8089 40.8588 46.8089C40.7977 46.8089 40.735 46.8119 40.6725 46.8197L41.9372 47.256ZM53.8436 35.8097L47.4574 39.6417L39.5517 47.5488L35.7197 53.935L26.6571 26.7485L53.8436 35.8097Z" fill="#1D375E" stroke="#1D375E" stroke-width="0.3"/>
<path d="M25.7852 17.0859C26.627 17.0859 27.3102 16.4027 27.3102 15.5609V6.875C27.3102 6.03316 26.627 5.35 25.7852 5.35C24.9433 5.35 24.2602 6.03316 24.2602 6.875V15.5609C24.2602 16.4027 24.9433 17.0859 25.7852 17.0859Z" fill="#1D375E" stroke="#1D375E" stroke-width="0.3"/>
<path d="M13.5551 11.3094C12.9589 10.7132 11.9949 10.7132 11.3987 11.3094C10.8025 11.9056 10.8025 12.8695 11.3987 13.4657L17.5408 19.6079C17.8382 19.9052 18.2288 20.0547 18.619 20.0547C19.0093 20.0547 19.3999 19.9052 19.6972 19.6079C20.2934 19.0117 20.2934 18.0477 19.6972 17.4515L13.5551 11.3094Z" fill="#1D375E" stroke="#1D375E" stroke-width="0.3"/>
<path d="M17.1757 25.6948C17.1757 24.853 16.4926 24.1698 15.6507 24.1698H6.96484C6.123 24.1698 5.43984 24.853 5.43984 25.6948C5.43984 26.5367 6.123 27.2198 6.96484 27.2198H15.6507C16.4926 27.2198 17.1757 26.5367 17.1757 25.6948Z" fill="#1D375E" stroke="#1D375E" stroke-width="0.3"/>
<path d="M17.5408 31.782L11.3987 37.9241C10.8025 38.5203 10.8025 39.4843 11.3987 40.0805C11.696 40.3778 12.0867 40.5273 12.4769 40.5273C12.8672 40.5273 13.2578 40.3778 13.5551 40.0805L19.6972 33.9384C20.2934 33.3422 20.2934 32.3782 19.6972 31.782C19.101 31.1858 18.137 31.1858 17.5408 31.782Z" fill="#1D375E" stroke="#1D375E" stroke-width="0.3"/>
<path d="M32.9535 20.0547C33.3437 20.0547 33.7343 19.9052 34.0317 19.6079L40.1738 13.4657C40.77 12.8695 40.77 11.9056 40.1738 11.3094C39.5776 10.7132 38.6136 10.7132 38.0174 11.3094L31.8753 17.4515C31.2791 18.0477 31.2791 19.0117 31.8753 19.6079C32.1726 19.9052 32.5632 20.0547 32.9535 20.0547Z" fill="#1D375E" stroke="#1D375E" stroke-width="0.3"/>
</svg>
