<svg width="262" height="219" viewBox="0 0 262 219" fill="none" xmlns="http://www.w3.org/2000/svg">
<rect x="0.546875" width="260.841" height="183.774" rx="4.74257" fill="#E5F3F9"/>
<path d="M33.7344 35.906L27.2343 32.8033L27.2344 40.3089L33.7344 37.206L33.7344 35.906ZM111.973 37.2048L118.473 40.3075L118.473 32.8019L111.973 35.9048L111.973 37.2048ZM31.2596 37.206L33.9431 37.206L33.9431 35.906L31.2596 35.906L31.2596 37.206ZM36.6266 37.206L39.3101 37.2059L39.3101 35.9059L36.6266 35.906L36.6266 37.206ZM41.9936 37.2059L44.6771 37.2058L44.6771 35.9058L41.9936 35.9059L41.9936 37.2059ZM47.3606 37.2058L50.0441 37.2058L50.0441 35.9057L47.3606 35.9058L47.3606 37.2058ZM52.7276 37.2057L55.4111 37.2057L55.4111 35.9057L52.7276 35.9057L52.7276 37.2057ZM58.0946 37.2056L60.7781 37.2056L60.7781 35.9056L58.0946 35.9056L58.0946 37.2056ZM63.4616 37.2055L66.1451 37.2055L66.145 35.9055L63.4616 35.9055L63.4616 37.2055ZM68.8286 37.2055L71.5121 37.2054L71.512 35.9054L68.8285 35.9055L68.8286 37.2055ZM74.1955 37.2054L76.879 37.2053L76.879 35.9053L74.1955 35.9054L74.1955 37.2054ZM79.5625 37.2053L82.246 37.2053L82.246 35.9052L79.5625 35.9053L79.5625 37.2053ZM84.9295 37.2052L87.613 37.2052L87.613 35.9052L84.9295 35.9052L84.9295 37.2052ZM90.2965 37.2051L92.98 37.2051L92.98 35.9051L90.2965 35.9051L90.2965 37.2051ZM95.6635 37.205L98.347 37.205L98.347 35.905L95.6635 35.905L95.6635 37.205ZM101.031 37.205L103.714 37.2049L103.714 35.9049L101.03 35.905L101.031 37.205ZM106.397 37.2049L109.081 37.2048L109.081 35.9048L106.397 35.9049L106.397 37.2049ZM111.764 37.2048L114.448 37.2048L114.448 35.9047L111.764 35.9048L111.764 37.2048Z" fill="#929292"/>
<path d="M140.998 35.9042L134.477 32.7914L134.477 40.3213L140.998 37.2084L140.998 35.9042ZM235.849 37.2069L242.37 40.3196L242.37 32.7898L235.849 35.9027L235.849 37.2069ZM138.33 37.2084L140.899 37.2084L140.899 35.9042L138.33 35.9042L138.33 37.2084ZM143.468 37.2083L146.037 37.2083L146.037 35.9041L143.468 35.9041L143.468 37.2083ZM148.605 37.2082L151.174 37.2082L151.174 35.904L148.605 35.904L148.605 37.2082ZM153.743 37.2082L156.312 37.2081L156.312 35.9039L153.743 35.904L153.743 37.2082ZM158.881 37.2081L161.45 37.208L161.45 35.9038L158.881 35.9039L158.881 37.2081ZM164.019 37.208L166.588 37.208L166.588 35.9038L164.019 35.9038L164.019 37.208ZM169.157 37.2079L171.725 37.2079L171.725 35.9037L169.157 35.9037L169.157 37.2079ZM174.294 37.2078L176.863 37.2078L176.863 35.9036L174.294 35.9036L174.294 37.2078ZM179.432 37.2078L182.001 37.2077L182.001 35.9035L179.432 35.9036L179.432 37.2078ZM184.57 37.2077L187.139 37.2076L187.139 35.9034L184.57 35.9035L184.57 37.2077ZM189.708 37.2076L192.277 37.2076L192.277 35.9034L189.708 35.9034L189.708 37.2076ZM194.845 37.2075L197.414 37.2075L197.414 35.9033L194.845 35.9033L194.845 37.2075ZM199.983 37.2074L202.552 37.2074L202.552 35.9032L199.983 35.9032L199.983 37.2074ZM205.121 37.2074L207.69 37.2073L207.69 35.9031L205.121 35.9032L205.121 37.2074ZM210.259 37.2073L212.828 37.2072L212.828 35.903L210.259 35.9031L210.259 37.2073ZM215.397 37.2072L217.966 37.2072L217.965 35.903L215.397 35.903L215.397 37.2072ZM220.534 37.2071L223.103 37.2071L223.103 35.9029L220.534 35.9029L220.534 37.2071ZM225.672 37.2071L228.241 37.207L228.241 35.9028L225.672 35.9028L225.672 37.2071ZM230.81 37.207L233.379 37.2069L233.379 35.9027L230.81 35.9028L230.81 37.207ZM235.948 37.2069L238.517 37.2069L238.517 35.9026L235.948 35.9027L235.948 37.2069Z" fill="#929292"/>
<path d="M117.615 121.682H30.3801C28.8387 121.682 27.5859 120.432 27.5859 118.893V49.1329C27.5859 47.5942 28.8387 46.3438 30.3801 46.3438H117.615C119.157 46.3438 120.409 47.5942 120.409 49.1329V118.893C120.409 120.432 119.161 121.682 117.615 121.682Z" fill="#00B0C8"/>
<path d="M106.462 75.3502H41.5251C41.0129 75.3502 40.5938 74.9319 40.5938 74.4205V68.4844C40.5938 67.9731 41.0129 67.5547 41.5251 67.5547H106.462C106.975 67.5547 107.394 67.9731 107.394 68.4844V74.4205C107.394 74.9365 106.979 75.3502 106.462 75.3502Z" fill="white"/>
<path d="M106.462 64.0924H41.5251C41.0129 64.0924 40.5938 63.6741 40.5938 63.1627V57.2266C40.5938 56.7152 41.0129 56.2969 41.5251 56.2969H106.462C106.975 56.2969 107.394 56.7152 107.394 57.2266V63.1627C107.394 63.6787 106.979 64.0924 106.462 64.0924Z" fill="white"/>
<path d="M93.4537 111.719H53.6736C53.1613 111.719 52.7422 111.3 52.7422 110.789V86.668C52.7422 86.1566 53.1613 85.7383 53.6736 85.7383H93.4537C93.966 85.7383 94.3851 86.1566 94.3851 86.668V110.789C94.3851 111.305 93.966 111.719 93.4537 111.719Z" fill="white"/>
<path d="M240.544 154.584H138.169C136.628 154.584 135.375 153.334 135.375 151.795V49.1329C135.375 47.5942 136.628 46.3438 138.169 46.3438H240.539C242.081 46.3438 243.334 47.5942 243.334 49.1329V151.8C243.338 153.338 242.085 154.584 240.544 154.584Z" fill="#00508A"/>
<path d="M229.382 88.0264H149.314C148.802 88.0264 148.383 87.608 148.383 87.0967V77.7578C148.383 77.2465 148.802 76.8281 149.314 76.8281H229.387C229.899 76.8281 230.318 77.2465 230.318 77.7578V87.0967C230.313 87.608 229.899 88.0264 229.382 88.0264Z" fill="white"/>
<path d="M229.382 71.8506H149.314C148.802 71.8506 148.383 71.4322 148.383 70.9209V61.582C148.383 61.0707 148.802 60.6523 149.314 60.6523H229.387C229.899 60.6523 230.318 61.0707 230.318 61.582V70.9209C230.313 71.4369 229.899 71.8506 229.382 71.8506Z" fill="white"/>
<path d="M216.373 140.277H161.463C160.95 140.277 160.531 139.858 160.531 139.347V103.879C160.531 103.368 160.95 102.949 161.463 102.949H216.373C216.886 102.949 217.305 103.368 217.305 103.879V139.347C217.305 139.863 216.89 140.277 216.373 140.277Z" fill="white"/>
<path d="M18.4021 52.6812L21.5149 46.1602L13.9851 46.1602L17.0979 52.6812L18.4021 52.6812ZM17.0979 114.216L13.9851 120.737L21.5149 120.737L18.4021 114.216L17.0979 114.216ZM17.0979 50.1553L17.0979 52.8188L18.4021 52.8188L18.4021 50.1553L17.0979 50.1553ZM17.0979 55.4823L17.0979 58.1457L18.4021 58.1457L18.4021 55.4823L17.0979 55.4823ZM17.0979 60.8092L17.0979 63.4726L18.4021 63.4726L18.4021 60.8092L17.0979 60.8092ZM17.0979 66.1361L17.0979 68.7996L18.4021 68.7996L18.4021 66.1361L17.0979 66.1361ZM17.0979 71.463L17.0979 74.1265L18.4021 74.1265L18.4021 71.463L17.0979 71.463ZM17.0979 76.7899L17.0979 79.4534L18.4021 79.4534L18.4021 76.7899L17.0979 76.7899ZM17.0979 82.1169L17.0979 84.7803L18.4021 84.7803L18.4021 82.1169L17.0979 82.1169ZM17.0979 87.4438L17.0979 90.1072L18.4021 90.1072L18.4021 87.4438L17.0979 87.4438ZM17.0979 92.7707L17.0979 95.4342L18.4021 95.4342L18.4021 92.7707L17.0979 92.7707ZM17.0979 98.0976L17.0979 100.761L18.4021 100.761L18.4021 98.0976L17.0979 98.0976ZM17.0979 103.425L17.0979 106.088L18.4021 106.088L18.4021 103.425L17.0979 103.425ZM17.0979 108.751L17.0979 111.415L18.4021 111.415L18.4021 108.751L17.0979 108.751ZM17.0979 114.078L17.0979 116.742L18.4021 116.742L18.4021 114.078L17.0979 114.078Z" fill="#929292"/>
<path d="M128.668 52.6812L131.781 46.1602H124.251L127.364 52.6812H128.668ZM127.364 147.414L124.251 153.935H131.781L128.668 147.414H127.364ZM127.364 50.0093V52.5753H128.668V50.0093H127.364ZM127.364 55.1414V57.7075H128.668V55.1414H127.364ZM127.364 60.2735V62.8396H128.668V60.2735H127.364ZM127.364 65.4057V67.9717H128.668V65.4057H127.364ZM127.364 70.5378V73.1039H128.668V70.5378H127.364ZM127.364 75.6699V78.236H128.668V75.6699H127.364ZM127.364 80.8021V83.3681H128.668V80.8021H127.364ZM127.364 85.9342V88.5003H128.668V85.9342H127.364ZM127.364 91.0663V93.6324H128.668V91.0663H127.364ZM127.364 96.1985V98.7645H128.668V96.1985H127.364ZM127.364 101.331V103.897H128.668V101.331H127.364ZM127.364 106.463V109.029H128.668V106.463H127.364ZM127.364 111.595V114.161H128.668V111.595H127.364ZM127.364 116.727V119.293H128.668V116.727H127.364ZM127.364 121.859V124.425H128.668V121.859H127.364ZM127.364 126.991V129.557H128.668V126.991H127.364ZM127.364 132.123V134.689H128.668V132.123H127.364ZM127.364 137.256V139.822H128.668V137.256H127.364ZM127.364 142.388V144.954H128.668V142.388H127.364ZM127.364 147.52V150.086H128.668V147.52H127.364Z" fill="#929292"/>
<rect x="27.7656" y="160.512" width="58.0964" height="58.0964" rx="5.92821" fill="#FF725F"/>
<path d="M74.7893 171.5H48.1875V198.053H74.7893V171.5Z" stroke="white" stroke-width="3.53477" stroke-miterlimit="10"/>
<path d="M38.1406 170V199.49" stroke="white" stroke-width="3.53477" stroke-miterlimit="10"/>
<path d="M46.6953 207.578H76.2325" stroke="white" stroke-width="3.53477" stroke-miterlimit="10"/>
</svg>
