<svg width="14" height="12" viewBox="0 0 14 12" fill="none" xmlns="http://www.w3.org/2000/svg">
<path d="M14 1.4875V10.4125C14 10.8216 13.8629 11.1717 13.5887 11.463C13.3146 11.7543 12.985 11.9 12.6 11.9H1.4C1.015 11.9 0.685417 11.7543 0.41125 11.463C0.137083 11.1717 0 10.8216 0 10.4125V1.4875C0 1.07844 0.137083 0.728255 0.41125 0.436953C0.685417 0.145651 1.015 0 1.4 0H12.6C12.985 0 13.3146 0.145651 13.5887 0.436953C13.8629 0.728255 14 1.07844 14 1.4875ZM1.4 2.975H12.6V1.4875H1.4V2.975ZM1.4 5.95V10.4125H12.6V5.95H1.4Z" fill="#52565A"/>
</svg>
