<svg width="260" height="157" viewBox="0 0 260 157" fill="none" xmlns="http://www.w3.org/2000/svg">
<rect x="1.32631" y="27.5919" width="256.347" height="127.347" stroke="#3AB7DF" stroke-width="0.652618" stroke-dasharray="1.74 1.74"/>
<circle cx="129.74" cy="27.0059" r="1.41401" fill="#FFD553" stroke="#3AB7DF" stroke-width="0.652618"/>
<circle cx="129.74" cy="155.006" r="1.41401" fill="#FFD553" stroke="#3AB7DF" stroke-width="0.652618"/>
<circle cx="257.74" cy="27.0059" r="1.41401" fill="#FFD553" stroke="#3AB7DF" stroke-width="0.652618"/>
<circle cx="257.74" cy="155.006" r="1.41401" fill="#FFD553" stroke="#3AB7DF" stroke-width="0.652618"/>
<circle cx="257.74" cy="91.0059" r="1.41401" fill="#FFD553" stroke="#3AB7DF" stroke-width="0.652618"/>
<circle cx="1.74031" cy="27.0059" r="1.41401" fill="#FFD553" stroke="#3AB7DF" stroke-width="0.652618"/>
<circle cx="1.74031" cy="155.006" r="1.41401" fill="#FFD553" stroke="#3AB7DF" stroke-width="0.652618"/>
<circle cx="1.74031" cy="91.0059" r="1.41401" fill="#FFD553" stroke="#3AB7DF" stroke-width="0.652618"/>
<path d="M132.874 9.67778C131.321 11.3302 128.752 11.644 126.83 10.3157C124.713 8.85235 124.183 5.94992 125.647 3.83302C127.111 1.7161 130.014 1.18631 132.131 2.6497C133.703 3.73624 134.4 5.61611 134.055 7.37873" stroke="#3AB7DF" stroke-width="0.652618" stroke-linecap="round" stroke-linejoin="round"/>
<path d="M132.464 6.28002L134.151 7.44596C134.278 7.53377 134.452 7.50197 134.54 7.37494L135.706 5.68821" stroke="#3AB7DF" stroke-width="0.652618" stroke-linecap="round" stroke-linejoin="round"/>
</svg>
