<svg width="84" height="15" viewBox="0 0 84 15" fill="none" xmlns="http://www.w3.org/2000/svg">
<g clip-path="url(#clip0_330_13515)">
<path d="M80.09 1.08496C79.3154 0.818402 78.5046 0.690918 77.6696 0.690918C75.9027 0.690918 74.1358 0.690918 72.369 0.690918C72.2842 0.690918 72.1874 0.702507 72.0664 0.702507C72.0664 2.11642 72.0664 3.51875 72.0664 4.93267C72.1995 4.95585 72.3932 4.92108 72.6715 4.80518C72.6715 4.80518 73.7002 4.48068 74.874 4.2373C75.0556 4.20253 75.2371 4.16776 75.4186 4.13299C75.9148 4.04028 76.3989 3.98233 76.8345 3.97074C77.3428 3.95915 77.3065 3.95915 77.3065 3.65783V3.53034V2.98564V2.96246C77.3065 2.76543 77.4517 2.68431 77.7059 2.83497L77.9721 2.99722L79.5091 3.88961L80.211 4.29525L81.1065 4.81677C81.6148 5.06015 81.4212 5.3383 81.1791 5.47737L80.1989 6.04526L79.618 6.38135L79.497 6.45089L77.9116 7.36646C77.8632 7.38964 77.8148 7.42441 77.7785 7.44759C77.5728 7.56348 77.3912 7.62143 77.3186 7.47076C77.2944 7.42441 77.2823 7.35487 77.2823 7.25056V6.79857C77.2823 6.30023 77.3549 6.34658 76.7256 6.40453C76.2537 6.45089 75.818 6.54361 75.4065 6.69427C75.2129 6.76381 75.0314 6.83334 74.8619 6.91447C71.9938 8.27044 70.9167 11.8284 73.7607 13.3698C73.9422 13.4625 74.1721 13.5321 74.4142 13.5784C74.7409 13.5784 75.0677 13.5784 75.4065 13.5784C75.4065 12.489 75.4065 11.4228 75.4065 10.3334C75.818 10.3334 76.1931 10.345 76.5562 10.3334C77.2581 10.3102 77.9721 10.3102 78.674 10.2175C81.3122 9.8582 82.9339 8.29362 83.1638 5.84824C83.3817 3.76213 82.4014 1.88463 80.09 1.08496Z" fill="#EB6A65"/>
<path d="M13.7043 7.086C13.7043 10.8989 10.6909 13.5413 6.46737 13.5413H1.08203V0.700195H6.46737C10.6909 0.700195 13.7043 3.33101 13.7043 7.086ZM10.34 7.086C10.34 5.1042 8.65781 3.57439 6.47947 3.57439H4.42215V10.6787H6.47947C8.65781 10.6787 10.34 9.12575 10.34 7.086Z" fill="#1D375E"/>
<path d="M18.8792 3.48167V5.82275H24.8333V8.54628H18.8792V10.7715H25.6804V13.5529H15.5391V0.700195H25.6804V3.48167H18.8792Z" fill="#1D375E"/>
<path d="M37.9424 8.22211H41.3793C40.9437 11.5483 38.3054 13.7967 34.6507 13.7967C30.6086 13.7967 27.5469 11.0036 27.5469 7.1327C27.5469 3.26182 30.6086 0.46875 34.6507 0.46875C38.3054 0.46875 40.9437 2.71711 41.3793 6.04329H37.9424C37.5914 4.43235 36.4055 3.45884 34.6265 3.45884C32.436 3.45884 30.9233 5.01183 30.9233 7.14429C30.9233 9.27676 32.4481 10.8297 34.6265 10.8297C36.4055 10.8066 37.5793 9.82146 37.9424 8.22211Z" fill="#1D375E"/>
<path d="M48.6131 8.75489L46.6405 10.9453V13.5529H43.3125V0.700195H46.6405V6.59924L51.9896 0.700195H55.9348L50.8278 6.33268L56.3704 13.5529H52.2074L48.6131 8.75489Z" fill="#1D375E"/>
<path d="M69.7509 7.56117C69.7509 11.548 67.3426 13.7963 63.4942 13.7963C59.67 13.7963 57.2617 11.548 57.2617 7.56117V0.700195H60.626V7.61912C60.626 9.58933 61.7515 10.8062 63.5063 10.8062C65.2611 10.8062 66.4107 9.57774 66.4107 7.61912V0.700195H69.763V7.56117H69.7509Z" fill="#EB6A65"/>
</g>
<defs>
<clipPath id="clip0_330_13515">
<rect width="83.0915" height="13.919" fill="white" transform="translate(0.605469 0.168945)"/>
</clipPath>
</defs>
</svg>
