<svg width="161" height="29" viewBox="0 0 161 29" fill="none" xmlns="http://www.w3.org/2000/svg">
<g clip-path="url(#clip0_1_193)">
<path d="M154.016 1.90692C152.516 1.35155 150.945 1.08594 149.327 1.08594C145.903 1.08594 142.479 1.08594 139.056 1.08594C138.892 1.08594 138.704 1.11008 138.47 1.11008C138.47 4.05596 138.47 6.97769 138.47 9.92357C138.728 9.97186 139.103 9.89943 139.642 9.65796C139.642 9.65796 141.635 8.98186 143.91 8.47478C144.262 8.40234 144.613 8.3299 144.965 8.25746C145.926 8.06429 146.864 7.94356 147.709 7.91941C148.693 7.89526 148.623 7.89526 148.623 7.26745V7.00184V5.86695V5.81866C148.623 5.40817 148.904 5.23914 149.397 5.55305L149.913 5.8911L152.891 7.75038L154.251 8.59551L155.986 9.68211C156.971 10.1892 156.596 10.7687 156.127 11.0585L154.227 12.2416L153.102 12.9419L152.867 13.0868L149.796 14.9943C149.702 15.0426 149.608 15.1151 149.538 15.1634C149.139 15.4048 148.787 15.5256 148.647 15.2117C148.6 15.1151 148.576 14.9702 148.576 14.7529V13.8112C148.576 12.7729 148.717 12.8695 147.498 12.9902C146.583 13.0868 145.739 13.2799 144.942 13.5938C144.566 13.7387 144.215 13.8836 143.886 14.0526C138.329 16.8778 136.242 24.2908 141.753 27.5023C142.104 27.6954 142.55 27.8403 143.019 27.9369C143.652 27.9369 144.285 27.9369 144.942 27.9369C144.942 25.6671 144.942 23.4456 144.942 21.1759C145.739 21.1759 146.466 21.2 147.169 21.1759C148.529 21.1276 149.913 21.1276 151.273 20.9344C156.385 20.1859 159.527 16.9261 159.972 11.8311C160.394 7.48477 158.495 3.57303 154.016 1.90692Z" fill="#FF725F"/>
<path d="M25.3878 14.4141C25.3878 22.3583 19.5491 27.8637 11.3654 27.8637H0.930664V1.10938H11.3654C19.5491 1.10938 25.3878 6.59064 25.3878 14.4141ZM18.8691 14.4141C18.8691 10.2851 15.6097 7.09772 11.3889 7.09772H7.40255V21.8996H11.3889C15.6097 21.8996 18.8691 18.6639 18.8691 14.4141Z" fill="#1D375E"/>
<path d="M35.4104 6.90455V11.7821H46.9472V17.4566H35.4104V22.0927H48.5886V27.8879H28.9385V1.10938H48.5886V6.90455H35.4104Z" fill="#1D375E"/>
<path d="M72.3389 16.779H78.9984C78.1542 23.7091 73.0423 28.3935 65.9608 28.3935C58.1289 28.3935 52.1963 22.5742 52.1963 14.5093C52.1963 6.44432 58.1289 0.625 65.9608 0.625C73.0423 0.625 78.1542 5.30943 78.9984 12.2395H72.3389C71.6589 8.88312 69.3609 6.85481 65.9139 6.85481C61.6696 6.85481 58.7385 10.0904 58.7385 14.5334C58.7385 18.9764 61.6931 22.212 65.9139 22.212C69.3609 22.1637 71.6354 20.1113 72.3389 16.779Z" fill="#1D375E"/>
<path d="M93.0294 17.8912L89.2072 22.4549V27.8879H82.7588V1.10938H89.2072V13.4L99.5716 1.10938H107.216L97.3205 12.8446L108.06 27.8879H99.9937L93.0294 17.8912Z" fill="#1D375E"/>
<path d="M133.981 15.4041C133.981 23.7105 129.315 28.395 121.858 28.395C114.449 28.395 109.782 23.7105 109.782 15.4041V1.10938H116.301V15.5249C116.301 19.6298 118.482 22.1652 121.882 22.1652C125.282 22.1652 127.51 19.6056 127.51 15.5249V1.10938H134.005V15.4041H133.981Z" fill="#FF725F"/>
</g>
<defs>
<clipPath id="clip0_1_193">
<rect width="161" height="29" fill="white" transform="translate(0.000976562)"/>
</clipPath>
</defs>
</svg>
