<svg width="22" height="22" viewBox="0 0 22 22" fill="none" xmlns="http://www.w3.org/2000/svg">
<mask id="mask0_3104_642" style="mask-type:alpha" maskUnits="userSpaceOnUse" x="0" y="0" width="22" height="22">
<rect x="0.25" y="0.25" width="21.5" height="21.5" fill="#D9D9D9"/>
</mask>
<g mask="url(#mask0_3104_642)">
<path d="M6.07161 18.1661C4.71293 18.1661 3.55208 17.6958 2.58906 16.7552C1.62604 15.8146 1.14453 14.6649 1.14453 13.3062C1.14453 12.1416 1.4954 11.104 2.19714 10.1932C2.89887 9.28243 3.8171 8.70014 4.95182 8.44632C5.20564 7.37132 5.84019 6.34858 6.85547 5.37809C7.87075 4.40761 8.95321 3.92236 10.1029 3.92236C10.5956 3.92236 11.0174 4.0978 11.3682 4.44867C11.7191 4.79953 11.8945 5.22132 11.8945 5.71403V11.1338L13.3279 9.74528L14.582 10.9994L10.9987 14.5828L7.41536 10.9994L8.66953 9.74528L10.1029 11.1338V5.71403C8.96814 5.92306 8.08724 6.47176 7.46016 7.36012C6.83307 8.24849 6.51953 9.16299 6.51953 10.1036H6.07161C5.20564 10.1036 4.46658 10.4097 3.85443 11.0218C3.24227 11.634 2.9362 12.3731 2.9362 13.239C2.9362 14.105 3.24227 14.8441 3.85443 15.4562C4.46658 16.0684 5.20564 16.3744 6.07161 16.3744H16.8216C17.4487 16.3744 17.9787 16.158 18.4117 15.725C18.8447 15.292 19.0612 14.7619 19.0612 14.1349C19.0612 13.5078 18.8447 12.9777 18.4117 12.5448C17.9787 12.1118 17.4487 11.8953 16.8216 11.8953H15.4779V10.1036C15.4779 9.38695 15.3136 8.7188 14.9852 8.09919C14.6567 7.47957 14.2237 6.95327 13.6862 6.52028V4.43747C14.7911 4.96004 15.6645 5.73269 16.3065 6.75544C16.9485 7.77818 17.2695 8.89424 17.2695 10.1036C18.2997 10.2231 19.1545 10.6672 19.8339 11.4362C20.5132 12.2051 20.8529 13.1047 20.8529 14.1349C20.8529 15.2547 20.4609 16.2065 19.6771 16.9903C18.8932 17.7742 17.9414 18.1661 16.8216 18.1661H6.07161Z" fill="white"/>
</g>
</svg>
