<svg width="60" height="46" viewBox="0 0 60 46" fill="none" xmlns="http://www.w3.org/2000/svg">
<path d="M36.2932 20.4304L36.2933 20.4304C37.5967 21.073 38.7472 21.9121 39.6858 22.9009C41.1768 20.8949 42.0577 18.409 42.0577 15.7157C42.0577 12.387 40.7073 9.37238 38.5267 7.18711C36.3439 5.00436 33.3293 3.65631 29.9983 3.65631C26.6696 3.65631 23.655 5.00669 21.4697 7.18726C19.287 9.37004 17.9389 12.3847 17.9389 15.7157C17.9389 18.4323 18.8379 20.9437 20.3564 22.9594C21.2955 21.9521 22.451 21.0991 23.7616 20.4472L23.7616 20.4472C24.1274 20.2653 24.5079 20.0983 24.8981 19.9478C24.8365 19.8901 24.7764 19.8311 24.7171 19.7703C24.7169 19.7702 24.7167 19.77 24.7166 19.7699L24.7881 19.7L36.2932 20.4304ZM36.2932 20.4304C35.9174 20.2456 35.5268 20.0759 35.1263 19.9227C35.1685 19.8829 35.2107 19.8426 35.2525 19.8016L36.2932 20.4304ZM33.1947 17.6791L33.1946 17.6792C32.376 18.5001 31.248 19.0045 29.9983 19.0045C28.7486 19.0045 27.6206 18.4979 26.8018 17.6791L26.8017 17.679C25.9831 16.8627 25.4787 15.7348 25.4787 14.485C25.4787 13.2353 25.9854 12.1072 26.8019 11.2884C27.6206 10.4698 28.7485 9.96545 29.9983 9.96545C31.2479 9.96545 32.3759 10.472 33.1947 11.2885C34.0134 12.1072 34.5178 13.2352 34.5178 14.485C34.5178 15.7324 34.0111 16.8627 33.1947 17.6791ZM4.34648 41.4494L4.27577 41.5201L4.34648 41.4494C3.79469 40.8976 3.45231 40.1375 3.45231 39.3029V23.5811C3.45231 22.7465 3.79472 21.9864 4.34648 21.4346C4.89823 20.8828 5.65833 20.5405 6.49295 20.5405H8.28125C9.09824 20.5405 9.75939 19.8793 9.75939 19.0623C9.75939 18.2453 9.09818 17.5842 8.28125 17.5842H6.49295C4.84094 17.5842 3.33926 18.2613 2.25506 19.3455C1.1685 20.432 0.49375 21.9314 0.49375 23.5834V39.3052C0.49375 40.9572 1.17086 42.4589 2.25506 43.5431C3.34162 44.6296 4.84097 45.3044 6.49295 45.3044H53.4994C55.1514 45.3044 56.653 44.6273 57.7372 43.5431C58.8238 42.4565 59.4986 40.9572 59.4986 39.3052V23.5834C59.4986 21.9314 58.8214 20.4297 57.7372 19.3455C56.6507 18.2589 55.1513 17.5842 53.4994 17.5842H51.7111C50.8941 17.5842 50.2329 18.2453 50.2329 19.0623C50.2329 19.8793 50.8941 20.5405 51.7111 20.5405H53.4994C54.334 20.5405 55.0941 20.8829 55.6458 21.4346C56.1976 21.9864 56.54 22.7465 56.54 23.5811V39.3029C56.54 40.1375 56.1976 40.8976 55.6458 41.4494C55.0941 42.0011 54.334 42.3435 53.4994 42.3435H6.49295C5.65834 42.3435 4.89825 42.0011 4.34648 41.4494ZM29.9985 27.7725C27.1206 27.7725 24.4788 26.7645 22.4056 25.0838C23.1197 24.293 24.0266 23.6131 25.0765 23.0893C26.5177 22.3722 28.2203 21.9584 30.0475 21.9584C31.8654 21.9584 33.5564 22.3676 34.9884 23.0731C36.0308 23.5876 36.9325 24.2557 37.646 25.0387C35.5636 26.7465 32.9012 27.7725 29.9985 27.7725ZM40.6159 26.3329L40.6159 26.3328C43.3315 23.6173 45.0139 19.8607 45.0139 15.7153C45.0139 11.5699 43.3315 7.8134 40.6159 5.09781C37.9004 2.38223 34.144 0.699805 29.9984 0.699805C25.8531 0.699805 22.0989 2.37982 19.3809 5.09781C16.6653 7.8134 14.9829 11.5699 14.9829 15.7153C14.9829 19.8607 16.6653 23.6149 19.3809 26.3328L19.3809 26.3328C22.0965 29.0484 25.853 30.7308 29.9984 30.7308C34.1438 30.7308 37.898 29.0485 40.6159 26.3329ZM8.01709 36.3355C8.01709 37.1525 8.6783 37.8136 9.49523 37.8136H50.5016C51.3186 37.8136 51.9798 37.1524 51.9798 36.3355C51.9798 35.5185 51.3186 34.8573 50.5016 34.8573H9.49523C8.67824 34.8573 8.01709 35.5185 8.01709 36.3355Z" fill="#1D375E" stroke="#1D375E" stroke-width="0.2"/>
</svg>
