<svg width="66" height="67" viewBox="0 0 66 67" fill="none" xmlns="http://www.w3.org/2000/svg">
<path d="M62.0887 29.1322C61.7811 28.7631 61.3505 28.5785 60.8583 28.5785H60.1201V23.4725C60.1201 22.6113 59.3819 21.873 58.5206 21.873H57.967V16.767C57.967 15.9058 57.2287 15.1675 56.3675 15.1675H30.2222L28.4997 10.9843C28.2536 10.3691 27.6384 10 27.0232 10H10.1057C9.24444 10 8.50622 10.7382 8.50622 11.5995V21.873H7.95255C7.0913 21.873 6.35308 22.6113 6.35308 23.4725V28.5785H5.61486C5.12271 28.5785 4.69208 28.7631 4.38449 29.1322C4.0769 29.5013 3.95386 29.9319 4.01538 30.4241L7.70648 55.6466C7.82952 56.4463 8.50622 57 9.30596 57H57.1057C57.9054 57 58.5821 56.4463 58.7052 55.6466L62.3963 30.4241C62.5193 29.9319 62.3963 29.5013 62.0887 29.1322ZM11.7052 13.199H25.9774L27.6999 17.3822C27.946 17.9974 28.5612 18.3665 29.1764 18.3665H54.768V21.873H11.7052V13.199ZM9.55203 25.072H56.9211V28.5785H9.55203V25.072ZM55.7523 53.801H10.7209L7.46041 31.7775H58.9513L55.7523 53.801Z" fill="#1D375E"/>
<path d="M30.28 48.2029C30.5876 48.5104 31.0182 48.695 31.4489 48.695C31.8795 48.695 32.3101 48.5104 32.6177 48.2029L40.7381 39.6518C41.3533 39.0366 41.2918 37.9908 40.6766 37.3756C40.0614 36.7604 39.0156 36.822 38.4005 37.4371L31.4489 44.7578L28.0039 41.1282C27.3887 40.5131 26.4044 40.4515 25.7277 41.0667C25.1125 41.6819 25.051 42.6662 25.6662 43.3429L30.28 48.2029Z" fill="#1D375E"/>
</svg>
