<svg width="157" height="27" viewBox="0 0 157 27" fill="none" xmlns="http://www.w3.org/2000/svg">
<path d="M33.9657 6.25128V10.8158H45.2948V16.1259H33.9657V20.4645H46.9067V25.8876H27.6104V0.828125H46.9067V6.25128H33.9657Z" fill="white"/>
<path d="M70.2262 15.492H76.7658C75.9368 21.9772 70.917 26.3609 63.9629 26.3609C56.272 26.3609 50.4463 20.9152 50.4463 13.368C50.4463 5.82075 56.272 0.375 63.9629 0.375C70.917 0.375 75.9368 4.75871 76.7658 11.2439H70.2262C69.5584 8.10299 67.3018 6.20489 63.9169 6.20489C59.7491 6.20489 56.8707 9.23282 56.8707 13.3906C56.8707 17.5483 59.7721 20.5762 63.9169 20.5762C67.3018 20.531 69.5354 18.6103 70.2262 15.492Z" fill="white"/>
<path d="M150.432 1.58859C148.958 1.06887 147.415 0.820312 145.826 0.820312C142.464 0.820312 139.103 0.820312 135.741 0.820312C135.58 0.820312 135.395 0.842909 135.165 0.842909C135.165 3.59968 135.165 6.33385 135.165 9.09062C135.418 9.13581 135.787 9.06802 136.316 8.84206C136.316 8.84206 138.274 8.20936 140.507 7.73483C140.853 7.66704 141.198 7.59925 141.543 7.53146C142.488 7.35069 143.409 7.23771 144.238 7.21511C145.205 7.19251 145.136 7.19251 145.136 6.60501V6.35645V5.29441V5.24922C145.136 4.86508 145.412 4.7069 145.895 5.00066L146.402 5.31701L149.326 7.05694L150.662 7.84781L152.366 8.86465C153.333 9.33918 152.965 9.88149 152.504 10.1527L150.639 11.2599L149.534 11.9152L149.303 12.0508L146.287 13.8359C146.195 13.8811 146.103 13.9489 146.034 13.9941C145.642 14.22 145.297 14.333 145.159 14.0392C145.113 13.9489 145.09 13.8133 145.09 13.6099V12.7286C145.09 11.757 145.228 11.8474 144.03 11.9604C143.132 12.0508 142.303 12.2315 141.52 12.5253C141.152 12.6609 140.807 12.7964 140.484 12.9546C135.027 15.5984 132.978 22.5355 138.389 25.5408C138.734 25.7216 139.172 25.8572 139.632 25.9476C140.254 25.9476 140.876 25.9476 141.52 25.9476C141.52 23.8235 141.52 21.7446 141.52 19.6206C142.303 19.6206 143.017 19.6432 143.708 19.6206C145.043 19.5754 146.402 19.5754 147.738 19.3946C152.757 18.6941 155.843 15.6436 156.281 10.8757C156.695 6.80837 154.83 3.14775 150.432 1.58859Z" fill="#FF736E"/>
<path d="M24.1272 13.2866C24.1272 20.7208 18.3935 25.8728 10.3572 25.8728H0.110352V0.835938H10.3572C18.3935 0.835938 24.1272 5.96534 24.1272 13.2866ZM17.7258 13.2866C17.7258 9.4226 14.5251 6.43986 10.3803 6.43986H6.46572V20.2915H10.3803C14.5251 20.2915 17.7258 17.2636 17.7258 13.2866Z" fill="white"/>
<path d="M90.5398 16.5405L86.7864 20.8112V25.8954H80.4541V0.835938H86.7864V12.3375L96.9642 0.835938H104.471L94.7537 11.8178L105.3 25.8954H97.3787L90.5398 16.5405Z" fill="white"/>
<path d="M130.765 14.213C130.765 21.9862 126.182 26.3699 118.86 26.3699C111.583 26.3699 107.001 21.9862 107.001 14.213V0.835938H113.402V14.326C113.402 18.1674 115.544 20.5401 118.883 20.5401C122.222 20.5401 124.409 18.1448 124.409 14.326V0.835938H130.788V14.213H130.765Z" fill="#FF736E"/>
</svg>
