<svg width="17" height="13" viewBox="0 0 17 13" fill="none" xmlns="http://www.w3.org/2000/svg">
<path d="M8.70536 6.6089C9.04196 6.19908 9.30022 5.73163 9.48013 5.20654C9.66004 4.68146 9.75 4.13717 9.75 3.57366C9.75 3.01016 9.66004 2.46586 9.48013 1.94078C9.30022 1.41569 9.04196 0.948242 8.70536 0.538421C9.40179 0.640876 9.98214 0.980259 10.4464 1.55657C10.9107 2.13288 11.1429 2.80525 11.1429 3.57366C11.1429 4.34208 10.9107 5.01444 10.4464 5.59075C9.98214 6.16706 9.40179 6.50645 8.70536 6.6089ZM12.5357 12.7946V10.4894C12.5357 10.0283 12.4429 9.58971 12.2571 9.17349C12.0714 8.75726 11.8277 8.38906 11.5259 8.06889C12.1179 8.29941 12.6663 8.59717 13.1712 8.96217C13.6761 9.32717 13.9286 9.83624 13.9286 10.4894V12.7946H12.5357ZM13.9286 7.41574V5.87891H12.5357V4.34208H13.9286V2.80525H15.3214V4.34208H16.7143V5.87891H15.3214V7.41574H13.9286ZM5.57143 6.64732C4.80536 6.64732 4.14955 6.34636 3.60402 5.74443C3.05848 5.14251 2.78571 4.41892 2.78571 3.57366C2.78571 2.7284 3.05848 2.00481 3.60402 1.40289C4.14955 0.800963 4.80536 0.5 5.57143 0.5C6.3375 0.5 6.9933 0.800963 7.53884 1.40289C8.08438 2.00481 8.35714 2.7284 8.35714 3.57366C8.35714 4.41892 8.08438 5.14251 7.53884 5.74443C6.9933 6.34636 6.3375 6.64732 5.57143 6.64732ZM0 12.7946V10.6431C0 10.2076 0.101562 9.80743 0.304688 9.44243C0.507813 9.07743 0.777679 8.79888 1.11429 8.60678C1.83393 8.20977 2.56518 7.912 3.30804 7.7135C4.05089 7.51499 4.80536 7.41574 5.57143 7.41574C6.3375 7.41574 7.09196 7.51499 7.83482 7.7135C8.57768 7.912 9.30893 8.20977 10.0286 8.60678C10.3652 8.79888 10.635 9.07743 10.8382 9.44243C11.0413 9.80743 11.1429 10.2076 11.1429 10.6431V12.7946H0Z" fill="#52565A"/>
</svg>
