<svg width="178" height="30" viewBox="0 0 178 30" fill="none" xmlns="http://www.w3.org/2000/svg">
<mask id="mask0_3336_400" style="mask-type:alpha" maskUnits="userSpaceOnUse" x="0" y="3" width="24" height="24">
<rect y="3" width="24" height="24" fill="#D9D9D9"/>
</mask>
<g mask="url(#mask0_3336_400)">
<path d="M5.85 20.1C6.7 19.45 7.65 18.9375 8.7 18.5625C9.75 18.1875 10.85 18 12 18C13.15 18 14.25 18.1875 15.3 18.5625C16.35 18.9375 17.3 19.45 18.15 20.1C18.7333 19.4167 19.1875 18.6417 19.5125 17.775C19.8375 16.9083 20 15.9833 20 15C20 12.7833 19.2208 10.8958 17.6625 9.3375C16.1042 7.77917 14.2167 7 12 7C9.78333 7 7.89583 7.77917 6.3375 9.3375C4.77917 10.8958 4 12.7833 4 15C4 15.9833 4.1625 16.9083 4.4875 17.775C4.8125 18.6417 5.26667 19.4167 5.85 20.1ZM12 16C11.0167 16 10.1875 15.6625 9.5125 14.9875C8.8375 14.3125 8.5 13.4833 8.5 12.5C8.5 11.5167 8.8375 10.6875 9.5125 10.0125C10.1875 9.3375 11.0167 9 12 9C12.9833 9 13.8125 9.3375 14.4875 10.0125C15.1625 10.6875 15.5 11.5167 15.5 12.5C15.5 13.4833 15.1625 14.3125 14.4875 14.9875C13.8125 15.6625 12.9833 16 12 16ZM12 25C10.6167 25 9.31667 24.7375 8.1 24.2125C6.88333 23.6875 5.825 22.975 4.925 22.075C4.025 21.175 3.3125 20.1167 2.7875 18.9C2.2625 17.6833 2 16.3833 2 15C2 13.6167 2.2625 12.3167 2.7875 11.1C3.3125 9.88333 4.025 8.825 4.925 7.925C5.825 7.025 6.88333 6.3125 8.1 5.7875C9.31667 5.2625 10.6167 5 12 5C13.3833 5 14.6833 5.2625 15.9 5.7875C17.1167 6.3125 18.175 7.025 19.075 7.925C19.975 8.825 20.6875 9.88333 21.2125 11.1C21.7375 12.3167 22 13.6167 22 15C22 16.3833 21.7375 17.6833 21.2125 18.9C20.6875 20.1167 19.975 21.175 19.075 22.075C18.175 22.975 17.1167 23.6875 15.9 24.2125C14.6833 24.7375 13.3833 25 12 25Z" fill="#5E5E5E"/>
</g>
<path d="M36.6719 12.9929C36.6188 12.5223 36.4001 12.1577 36.0156 11.8991C35.6312 11.6373 35.1473 11.5064 34.5639 11.5064C34.1463 11.5064 33.785 11.5727 33.4801 11.7053C33.1752 11.8345 32.9382 12.0135 32.7692 12.2422C32.6035 12.4676 32.5206 12.7244 32.5206 13.0128C32.5206 13.2547 32.5769 13.4635 32.6896 13.6392C32.8056 13.8149 32.9564 13.9624 33.142 14.0817C33.331 14.1977 33.5331 14.2955 33.7486 14.375C33.964 14.4512 34.1712 14.5142 34.37 14.5639L35.3643 14.8224C35.6892 14.902 36.0223 15.0097 36.3636 15.1456C36.705 15.2815 37.0215 15.4605 37.3132 15.6825C37.6049 15.9046 37.8402 16.1797 38.0192 16.5078C38.2015 16.8359 38.2926 17.2287 38.2926 17.6861C38.2926 18.2628 38.1435 18.7749 37.8452 19.2223C37.5502 19.6697 37.121 20.0227 36.5575 20.2812C35.9974 20.5398 35.3196 20.669 34.5241 20.669C33.7618 20.669 33.1023 20.5481 32.5455 20.3061C31.9886 20.0642 31.5528 19.7211 31.2379 19.277C30.9231 18.8295 30.7491 18.2992 30.7159 17.6861H32.2571C32.2869 18.054 32.4063 18.3606 32.6151 18.6058C32.8272 18.8478 33.0973 19.0284 33.4254 19.1477C33.7569 19.2637 34.1198 19.3217 34.5142 19.3217C34.9484 19.3217 35.3345 19.2538 35.6726 19.1179C36.014 18.9787 36.2824 18.7865 36.478 18.5412C36.6735 18.2926 36.7713 18.0026 36.7713 17.6712C36.7713 17.3696 36.6851 17.1226 36.5128 16.9304C36.3438 16.7382 36.1134 16.5791 35.8217 16.4531C35.5334 16.3272 35.2069 16.2161 34.8423 16.12L33.6392 15.7919C32.8239 15.5698 32.1776 15.2434 31.7003 14.8125C31.2263 14.3816 30.9893 13.8116 30.9893 13.1023C30.9893 12.5156 31.1484 12.0036 31.4666 11.5661C31.7848 11.1286 32.2157 10.7888 32.7592 10.5469C33.3028 10.3016 33.916 10.179 34.5987 10.179C35.2881 10.179 35.8963 10.3 36.4233 10.5419C36.9536 10.7839 37.3712 11.117 37.6761 11.5412C37.9811 11.9621 38.1402 12.446 38.1534 12.9929H36.6719ZM42.2314 20.669C41.7475 20.669 41.31 20.5795 40.9189 20.4006C40.5278 20.2183 40.2179 19.9548 39.9892 19.6101C39.7638 19.2654 39.6511 18.8428 39.6511 18.3423C39.6511 17.9115 39.734 17.5568 39.8997 17.2784C40.0654 17 40.2891 16.7796 40.5708 16.6172C40.8526 16.4548 41.1674 16.3321 41.5154 16.2493C41.8635 16.1664 42.2181 16.1035 42.5794 16.0604C43.0368 16.0073 43.408 15.9643 43.693 15.9311C43.978 15.8946 44.1852 15.8366 44.3145 15.7571C44.4437 15.6776 44.5083 15.5483 44.5083 15.3693V15.3345C44.5083 14.9003 44.3857 14.5639 44.1404 14.3253C43.8985 14.0866 43.5372 13.9673 43.0566 13.9673C42.5562 13.9673 42.1618 14.0784 41.8734 14.3004C41.5884 14.5192 41.3912 14.7628 41.2818 15.0312L39.8848 14.7131C40.0505 14.2491 40.2924 13.8745 40.6106 13.5895C40.9321 13.3011 41.3017 13.0923 41.7193 12.9631C42.1369 12.8305 42.5761 12.7642 43.0368 12.7642C43.3417 12.7642 43.6648 12.8007 44.0062 12.8736C44.3509 12.9432 44.6724 13.0724 44.9707 13.2614C45.2723 13.4503 45.5192 13.7204 45.7115 14.0717C45.9037 14.4197 45.9998 14.8722 45.9998 15.429V20.5H44.5481V19.456H44.4885C44.3923 19.6482 44.2482 19.8371 44.0559 20.0227C43.8637 20.2083 43.6168 20.3625 43.3152 20.4851C43.0136 20.6077 42.6523 20.669 42.2314 20.669ZM42.5545 19.4759C42.9655 19.4759 43.3168 19.3946 43.6085 19.2322C43.9035 19.0698 44.1272 18.8577 44.2797 18.5959C44.4354 18.3307 44.5133 18.0473 44.5133 17.7457V16.7614C44.4603 16.8144 44.3575 16.8641 44.2051 16.9105C44.0559 16.9536 43.8852 16.9917 43.693 17.0249C43.5008 17.0547 43.3135 17.0829 43.1312 17.1094C42.9489 17.1326 42.7965 17.1525 42.6738 17.169C42.3855 17.2055 42.122 17.2668 41.8833 17.353C41.648 17.4392 41.4591 17.5634 41.3166 17.7259C41.1774 17.8849 41.1078 18.0971 41.1078 18.3622C41.1078 18.7301 41.2437 19.0085 41.5154 19.1974C41.7872 19.383 42.1336 19.4759 42.5545 19.4759ZM47.9798 20.5V12.8636H49.4066V14.1065H49.5011C49.6602 13.6856 49.9203 13.3575 50.2816 13.1222C50.6429 12.8835 51.0754 12.7642 51.5792 12.7642C52.0896 12.7642 52.5172 12.8835 52.8619 13.1222C53.2099 13.3608 53.4667 13.6889 53.6325 14.1065H53.712C53.8943 13.6989 54.1843 13.3741 54.582 13.1321C54.9798 12.8868 55.4537 12.7642 56.0039 12.7642C56.6966 12.7642 57.2617 12.9813 57.6992 13.4155C58.14 13.8497 58.3604 14.5043 58.3604 15.3793V20.5H56.8739V15.5185C56.8739 15.0014 56.7331 14.6269 56.4513 14.3949C56.1696 14.1629 55.8332 14.0469 55.4421 14.0469C54.9582 14.0469 54.582 14.196 54.3136 14.4943C54.0451 14.7893 53.9109 15.1688 53.9109 15.6328V20.5H52.4293V15.424C52.4293 15.0097 52.3001 14.6766 52.0415 14.4247C51.783 14.1728 51.4466 14.0469 51.0323 14.0469C50.7506 14.0469 50.4904 14.1214 50.2518 14.2706C50.0165 14.4164 49.8259 14.6203 49.68 14.8821C49.5375 15.1439 49.4663 15.4472 49.4663 15.7919V20.5H47.9798ZM65.1902 17.3331V12.8636H66.6816V20.5H65.22V19.1776H65.1404C64.9648 19.5852 64.6831 19.925 64.2953 20.1967C63.9108 20.4652 63.4319 20.5994 62.8585 20.5994C62.368 20.5994 61.9338 20.4917 61.5559 20.2763C61.1814 20.0575 60.8864 19.7344 60.671 19.3068C60.4589 18.8793 60.3528 18.3506 60.3528 17.7209V12.8636H61.8393V17.5419C61.8393 18.0623 61.9835 18.4766 62.2718 18.7848C62.5602 19.093 62.9347 19.2472 63.3954 19.2472C63.6738 19.2472 63.9506 19.1776 64.2257 19.0384C64.5041 18.8991 64.7344 18.6887 64.9167 18.407C65.1023 18.1252 65.1935 17.7673 65.1902 17.3331ZM71.9702 20.6541C71.2178 20.6541 70.5698 20.4934 70.0263 20.1719C69.486 19.8471 69.0684 19.3913 68.7734 18.8047C68.4818 18.2147 68.3359 17.5237 68.3359 16.7315C68.3359 15.9493 68.4818 15.2599 68.7734 14.6634C69.0684 14.0668 69.4794 13.6011 70.0064 13.2663C70.5367 12.9316 71.1565 12.7642 71.8658 12.7642C72.2966 12.7642 72.7143 12.8355 73.1186 12.978C73.523 13.1205 73.8859 13.3442 74.2074 13.6491C74.5289 13.9541 74.7824 14.3501 74.968 14.8374C75.1536 15.3213 75.2464 15.9096 75.2464 16.6023V17.1293H69.1761V16.0156H73.7898C73.7898 15.6245 73.7102 15.2782 73.5511 14.9766C73.392 14.6716 73.1683 14.4313 72.88 14.2557C72.5949 14.08 72.2602 13.9922 71.8757 13.9922C71.4581 13.9922 71.0935 14.0949 70.782 14.3004C70.4737 14.5026 70.2351 14.7678 70.0661 15.0959C69.9003 15.4207 69.8175 15.7737 69.8175 16.1548V17.0249C69.8175 17.5353 69.907 17.9695 70.0859 18.3274C70.2682 18.6854 70.5218 18.9588 70.8466 19.1477C71.1714 19.3333 71.5509 19.4261 71.9851 19.4261C72.2668 19.4261 72.5237 19.3864 72.7557 19.3068C72.9877 19.224 73.1882 19.1013 73.3572 18.9389C73.5263 18.7765 73.6555 18.576 73.745 18.3374L75.152 18.5909C75.0393 19.0052 74.8371 19.3681 74.5455 19.6797C74.2571 19.9879 73.8942 20.2282 73.4567 20.4006C73.0225 20.5696 72.527 20.6541 71.9702 20.6541ZM78.3823 10.3182V20.5H76.8958V10.3182H78.3823Z" fill="#52565A"/>
<path fill-rule="evenodd" clip-rule="evenodd" d="M114.003 7.5C114.463 7.5 114.836 7.8731 114.836 8.33333V15C114.836 15.4602 114.463 15.8333 114.003 15.8333C113.542 15.8333 113.169 15.4602 113.169 15V8.33333C113.169 7.8731 113.542 7.5 114.003 7.5ZM110.473 9.46237C110.77 9.81401 110.725 10.3398 110.374 10.6367C109.493 11.3805 108.862 12.377 108.566 13.4913C108.27 14.6055 108.324 15.7838 108.72 16.8665C109.116 17.9493 109.835 18.8842 110.78 19.5447C111.725 20.2052 112.85 20.5595 114.003 20.5595C115.155 20.5595 116.281 20.2052 117.225 19.5447C118.17 18.8842 118.889 17.9493 119.285 16.8665C119.681 15.7838 119.735 14.6055 119.439 13.4913C119.144 12.377 118.512 11.3805 117.632 10.6367C117.28 10.3398 117.236 9.81401 117.533 9.46237C117.829 9.11072 118.355 9.06637 118.707 9.36329C119.849 10.3275 120.667 11.6192 121.05 13.0636C121.434 14.5081 121.364 16.0354 120.851 17.439C120.337 18.8425 119.405 20.0545 118.18 20.9107C116.955 21.7669 115.497 22.2261 114.003 22.2261C112.508 22.2261 111.05 21.7669 109.825 20.9107C108.6 20.0545 107.668 18.8425 107.155 17.439C106.641 16.0354 106.572 14.5081 106.955 13.0636C107.338 11.6192 108.156 10.3275 109.298 9.36329C109.65 9.06637 110.176 9.11072 110.473 9.46237Z" fill="#FF725F"/>
<path d="M163 27.5C164.375 27.5 165.5 26.375 165.5 25H160.5C160.5 25.663 160.763 26.2989 161.232 26.7678C161.701 27.2366 162.337 27.5 163 27.5ZM170.5 20V13.75C170.5 9.9125 168.45 6.7 164.875 5.85V5C164.875 3.9625 164.038 3.125 163 3.125C161.962 3.125 161.125 3.9625 161.125 5V5.85C157.538 6.7 155.5 9.9 155.5 13.75V20L153 22.5V23.75H173V22.5L170.5 20Z" fill="#DCE6F0"/>
<circle cx="168.625" cy="6.875" r="3.125" fill="#FF725F"/>
</svg>
