<svg width="16" height="16" viewBox="0 0 16 16" fill="none" xmlns="http://www.w3.org/2000/svg">
<path d="M7.092 11.909H8.91V7.25002H7.092V11.909ZM8.001 5.9619C8.2735 5.9619 8.50194 5.86971 8.68631 5.68534C8.87069 5.50096 8.96287 5.27252 8.96287 5.00002C8.96287 4.72752 8.87069 4.49909 8.68631 4.31471C8.50194 4.13034 8.2735 4.03815 8.001 4.03815C7.7285 4.03815 7.50006 4.13034 7.31569 4.31471C7.13131 4.49909 7.03913 4.72752 7.03913 5.00002C7.03913 5.27252 7.13131 5.50096 7.31569 5.68534C7.50006 5.86971 7.7285 5.9619 8.001 5.9619ZM8.001 15.8604C6.907 15.8604 5.88256 15.6544 4.92769 15.2424C3.97294 14.8304 3.14244 14.2712 2.43619 13.5648C1.72981 12.8586 1.17062 12.0281 0.758625 11.0733C0.346625 10.1185 0.140625 9.09402 0.140625 8.00002C0.140625 6.90602 0.346625 5.88159 0.758625 4.92671C1.17062 3.97196 1.72981 3.14146 2.43619 2.43521C3.14244 1.72884 3.97294 1.16965 4.92769 0.757648C5.88256 0.345648 6.907 0.139648 8.001 0.139648C9.095 0.139648 10.1194 0.345648 11.0743 0.757648C12.0291 1.16965 12.8596 1.72884 13.5658 2.43521C14.2722 3.14146 14.8314 3.97196 15.2434 4.92671C15.6554 5.88159 15.8614 6.90602 15.8614 8.00002C15.8614 9.09402 15.6554 10.1185 15.2434 11.0733C14.8314 12.0281 14.2722 12.8586 13.5658 13.5648C12.8596 14.2712 12.0291 14.8304 11.0743 15.2424C10.1194 15.6544 9.095 15.8604 8.001 15.8604ZM8.001 13.8729C9.64775 13.8729 11.0382 13.3058 12.1725 12.1715C13.3067 11.0373 13.8739 9.64677 13.8739 8.00002C13.8739 6.35327 13.3067 4.96277 12.1725 3.82852C11.0382 2.69427 9.64775 2.12715 8.001 2.12715C6.35425 2.12715 4.96375 2.69427 3.8295 3.82852C2.69525 4.96277 2.12813 6.35327 2.12813 8.00002C2.12813 9.64677 2.69525 11.0373 3.8295 12.1715C4.96375 13.3058 6.35425 13.8729 8.001 13.8729Z" fill="#52565A"/>
</svg>
