<svg width="33" height="31" viewBox="0 0 33 31" fill="none" xmlns="http://www.w3.org/2000/svg">
<path d="M25.07 0H7.40624C5.44198 0 3.55818 0.74483 2.16924 2.07064C0.780298 3.39644 0 5.19462 0 7.06959V23.9304C0 25.8054 0.780298 27.6036 2.16924 28.9294C3.55818 30.2552 5.44198 31 7.40624 31H25.07C27.0342 31 28.918 30.2552 30.307 28.9294C31.6959 27.6036 32.4762 25.8054 32.4762 23.9304V7.06959C32.4762 5.19462 31.6959 3.39644 30.307 2.07064C28.918 0.74483 27.0342 0 25.07 0ZM10.9803 25.0257C10.9855 25.1123 10.9721 25.1989 10.941 25.2803C10.9099 25.3618 10.8616 25.4362 10.7992 25.4992C10.7369 25.5622 10.6616 25.6123 10.5782 25.6466C10.4948 25.6808 10.4049 25.6984 10.3141 25.6982H7.34961C7.17098 25.6936 7.00129 25.6226 6.87682 25.5002C6.75234 25.3778 6.68293 25.2138 6.68343 25.0432V13.2744C6.68098 13.1894 6.69641 13.1048 6.72879 13.0256C6.76117 12.9465 6.80985 12.8743 6.87195 12.8134C6.93406 12.7525 7.00833 12.704 7.09037 12.671C7.17241 12.638 7.26056 12.6209 7.34961 12.621H10.3141C10.4032 12.6207 10.4915 12.6376 10.5736 12.6706C10.6558 12.7035 10.7301 12.7519 10.7923 12.8129C10.8544 12.8738 10.9031 12.9461 10.9354 13.0254C10.9677 13.1047 10.983 13.1893 10.9803 13.2744V25.0257ZM8.7769 10.1457C8.45594 10.1434 8.1386 10.0808 7.843 9.96147C7.54739 9.8421 7.27932 9.66833 7.05407 9.45007C6.82882 9.23182 6.65081 8.97335 6.53021 8.68942C6.40961 8.40549 6.34877 8.10168 6.35118 7.79531C6.35358 7.48894 6.41918 7.18603 6.54423 6.90386C6.66928 6.62169 6.85132 6.3658 7.07997 6.15079C7.30863 5.93578 7.5794 5.76586 7.87685 5.65074C8.1743 5.53562 8.49258 5.47755 8.81354 5.47985C9.4506 5.49962 10.0543 5.75626 10.4959 6.195C10.9375 6.63375 11.182 7.21985 11.1773 7.82826C11.1725 8.43667 10.9188 9.01921 10.4704 9.45158C10.0219 9.88395 9.4142 10.1319 8.7769 10.1426M26.792 25.0067C26.7917 25.1674 26.7257 25.3217 26.6082 25.4369C26.4907 25.552 26.3308 25.6189 26.1625 25.6235H23.0331C22.8646 25.6185 22.7048 25.5513 22.5873 25.4359C22.4698 25.3205 22.4039 25.166 22.4036 25.0051V19.5618C22.4036 18.7494 22.6634 16.0278 20.1452 16.0278C18.1817 16.0278 17.7936 17.9355 17.7187 18.7844V25.1291C17.7188 25.2903 17.6531 25.4451 17.5356 25.5609C17.418 25.6766 17.2579 25.7441 17.0891 25.7491H14.053C13.9678 25.7491 13.8834 25.733 13.8047 25.7019C13.726 25.6707 13.6545 25.625 13.5943 25.5674C13.5342 25.5098 13.4865 25.4414 13.454 25.3662C13.4215 25.291 13.405 25.2104 13.4052 25.1291V13.2171C13.4099 13.0559 13.4805 12.9028 13.6019 12.7906C13.7232 12.6783 13.8857 12.6157 14.0547 12.6162H17.0891C17.2581 12.6157 17.4206 12.6783 17.542 12.7906C17.6633 12.9028 17.7339 13.0559 17.7387 13.2171V14.2425C18.1817 13.6235 18.7934 13.1317 19.5078 12.8202C20.2222 12.5086 21.0121 12.3892 21.7924 12.4747C26.847 12.4747 26.8287 16.9816 26.8287 19.5443L26.792 25.0067Z" fill="#1D375E"/>
</svg>
