<svg width="12" height="15" viewBox="0 0 12 15" fill="none" xmlns="http://www.w3.org/2000/svg">
<path fill-rule="evenodd" clip-rule="evenodd" d="M10.5 5.99918C10.5021 6.96339 10.1924 7.90244 9.617 8.67618L6 13.4992L2.383 8.67618C1.95951 8.10402 1.67779 7.43955 1.56099 6.73736C1.44419 6.03517 1.49564 5.31529 1.71111 4.63684C1.92659 3.9584 2.29994 3.34075 2.8005 2.83463C3.30106 2.32852 3.91454 1.94837 4.59057 1.72541C5.26659 1.50246 5.98586 1.44306 6.6893 1.5521C7.39274 1.66114 8.06027 1.9355 8.63708 2.35265C9.21388 2.7698 9.68349 3.31784 10.0073 3.95174C10.3312 4.58565 10.5 5.28734 10.5 5.99918ZM12 5.99918C12 7.33918 11.561 8.57518 10.82 9.57318L6.937 14.7492L6 15.9992L5.062 14.7492L1.18 9.57318C0.614686 8.81061 0.238375 7.92478 0.0819862 6.98849C-0.0744027 6.05219 -0.0064061 5.09216 0.280389 4.18725C0.567185 3.28235 1.06459 2.45841 1.73175 1.78313C2.3989 1.10785 3.21676 0.600495 4.11812 0.302762C5.01948 0.00502887 5.97863 -0.0745892 6.91675 0.0704495C7.85486 0.215488 8.74518 0.581044 9.51455 1.13708C10.2839 1.69312 10.9104 2.42377 11.3424 3.269C11.7745 4.11423 11.9999 5.04992 12 5.99918ZM6 7.99918C6.53043 7.99918 7.03914 7.78847 7.41421 7.41339C7.78929 7.03832 8 6.52961 8 5.99918C8 5.46875 7.78929 4.96004 7.41421 4.58496C7.03914 4.20989 6.53043 3.99918 6 3.99918C5.46957 3.99918 4.96086 4.20989 4.58579 4.58496C4.21071 4.96004 4 5.46875 4 5.99918C4 6.52961 4.21071 7.03832 4.58579 7.41339C4.96086 7.78847 5.46957 7.99918 6 7.99918Z" fill="#52565A"/>
</svg>
