<svg width="179" height="56" viewBox="0 0 179 56" fill="none" xmlns="http://www.w3.org/2000/svg">
<path d="M18.9897 0.289062H24.4403V1.31115H23.4137C23.2341 1.31115 22.9211 1.5174 22.4699 1.92531C22.0188 2.33323 21.7932 2.65406 21.7932 2.8649V18.4482C21.7932 18.6636 22.0188 18.9753 22.4699 19.3878C22.9211 19.8003 23.2341 20.0066 23.4137 20.0066H24.4403V21.0241H16.3979V19.9974H17.4245C17.604 19.9974 17.9124 19.7911 18.3452 19.3786C18.7779 18.9661 18.9943 18.6545 18.9943 18.4391V3.35073L11.4352 21.3953L3.8854 3.03906V18.4436C3.8854 18.6591 4.10177 18.9707 4.5299 19.3832C4.95803 19.7957 5.27107 20.002 5.45061 20.002H6.4726V21.0195H0V19.9974H1.02659C1.24296 19.9974 1.56521 19.7911 1.99794 19.3786C2.43068 18.9661 2.64244 18.6545 2.64244 18.4391V2.8649C2.64244 2.65406 2.42607 2.33781 1.99794 1.92531C1.56981 1.51281 1.24296 1.31115 1.02659 1.31115H0V0.289062H6.03986L12.3007 15.8128H12.4618L18.9897 0.289062ZM31.9395 18.9249C32.8581 18.9794 33.7736 18.7761 34.5819 18.3382C35.2525 17.881 35.806 17.2735 36.1977 16.5645H37.0632C36.6786 17.8959 35.9426 19.1003 34.9318 20.0524C33.8229 20.968 32.4061 21.43 30.9681 21.3449C30.1131 21.3758 29.2626 21.207 28.4848 20.852C27.7071 20.4971 27.0235 19.9658 26.4889 19.3007C25.3672 17.9211 24.7749 16.1893 24.8178 14.4149C24.7678 13.4653 24.9085 12.5152 25.2318 11.6204C25.5551 10.7256 26.0545 9.90397 26.7006 9.20365C27.2786 8.58478 27.9802 8.09303 28.7603 7.75995C29.5404 7.42687 30.3818 7.25981 31.2305 7.26948C32.1535 7.24841 33.0711 7.41368 33.9282 7.75531C34.7061 8.08532 35.4185 8.55097 36.032 9.13031L34.0663 12.2057L33.2561 12.2561C33.44 11.3409 33.3845 10.3939 33.095 9.50615C32.923 9.09301 32.6168 8.74926 32.2253 8.52989C31.8339 8.31052 31.3799 8.22822 30.9359 8.29615C30.3572 8.25953 29.7789 8.37387 29.2581 8.62788C28.7374 8.88188 28.2922 9.26676 27.9666 9.74448C27.2717 10.8939 26.9338 12.2222 26.9952 13.5624C26.9563 14.951 27.4259 16.3063 28.3165 17.3757C28.764 17.8891 29.3224 18.2951 29.9498 18.5634C30.5772 18.8316 31.2573 18.9552 31.9395 18.9249ZM45.3174 21.0195H37.1691V19.9974H38.2095C38.4259 19.9974 38.7481 19.7911 39.1808 19.3786C39.6136 18.9661 39.8253 18.6545 39.8253 18.4391V2.8649C39.8253 2.65406 39.6136 2.33781 39.1808 1.92531C38.7481 1.51281 38.4121 1.31115 38.2095 1.31115H37.1691V0.289062H45.3174V1.31115H44.2908C44.0744 1.31115 43.7522 1.5174 43.3194 1.92531C42.8867 2.33323 42.6749 2.65406 42.6749 2.8649V11.3532L50.1189 3.08031C50.2616 2.90156 50.1189 2.5624 49.7414 2.06281C49.3639 1.56323 49.0555 1.31115 48.8759 1.31115H47.877V0.289062H55.4268V1.31115H54.4002C53.8931 1.48473 53.4276 1.76094 53.0329 2.1224C52.3102 2.67698 51.8821 3.03906 51.7347 3.17198L46.6708 8.59406L53.9537 18.2191C54.307 18.6291 54.7143 18.9898 55.1644 19.2916C55.5259 19.6226 55.9615 19.863 56.435 19.9928H57.9449C58.3024 19.919 58.6258 19.7307 58.8656 19.4566C59.2616 19.0945 59.4595 18.792 59.4595 18.5399V10.0653C59.4595 9.8499 59.2616 9.56115 58.8656 9.20365C58.6258 8.92956 58.3024 8.74121 57.9449 8.6674H57.1301V7.64531H61.9316V18.5491C61.9316 18.8011 62.1388 19.1036 62.5531 19.4657C62.7914 19.7257 63.0999 19.9118 63.4416 20.002H65.1173C65.2968 20.002 65.5776 19.8232 65.9781 19.4657C66.3786 19.1082 66.572 18.8011 66.572 18.5491V10.0653C66.572 9.8499 66.374 9.56115 65.9781 9.20365C65.5822 8.84615 65.2968 8.6674 65.1173 8.6674H64.2518V7.64531H68.5147L69.0533 10.3724C69.7852 9.60286 70.5697 8.88462 71.4011 8.22281C72.2455 7.5908 73.2825 7.26714 74.3382 7.30615C74.8339 7.2972 75.3263 7.38799 75.7859 7.57307C76.2455 7.75815 76.6628 8.03371 77.0129 8.38323C77.3813 8.74685 77.6697 9.18275 77.8599 9.66326C78.0501 10.1438 78.1379 10.6584 78.1177 11.1745V18.5491C78.1177 18.8011 78.3157 19.1036 78.7116 19.4657C79.1075 19.8278 79.3929 20.002 79.5724 20.002H80.4379V21.0195H73.3714V19.9974H74.1172C74.4744 19.9226 74.7975 19.7345 75.0379 19.4611C75.4338 19.0991 75.6318 18.7966 75.6318 18.5445V11.3532C75.6581 10.7516 75.4652 10.1607 75.0886 9.68948C74.8865 9.46625 74.6359 9.29197 74.3559 9.17996C74.0758 9.06795 73.7737 9.02118 73.4727 9.04323C72.4056 9.07559 71.376 9.44295 70.5311 10.0928C69.5459 10.7895 69.0533 11.3716 69.0533 11.8391V18.5491C69.0533 18.8011 69.2513 19.1036 69.6472 19.4657C69.887 19.7398 70.2104 19.9282 70.5679 20.002H71.3229V21.0195H52.0202L44.7788 10.6566L42.6749 12.9116V18.4436C42.6749 18.6591 42.8867 18.9707 43.3194 19.3832C43.7522 19.7957 44.0744 20.002 44.2908 20.002H45.3174V21.0195ZM52.545 44.3945L52.4805 44.3303C53.1664 44.9032 53.8616 45.4761 54.5613 46.0491C55.2611 46.622 56.0068 47.1766 56.7987 47.7174H58.037V48.7899H55.7721C54.85 48.8055 53.9337 48.642 53.0744 48.3086C52.1566 47.8996 51.317 47.3351 50.5931 46.6403C49.7766 47.459 48.7919 48.0922 47.7066 48.4966C46.451 48.9314 45.1274 49.1393 43.7982 49.1107C42.1088 49.1195 40.4734 48.5187 39.1947 47.4195C38.5329 46.8879 38.0033 46.2114 37.6472 45.4426C37.2911 44.6739 37.118 43.8336 37.1415 42.9874C37.1278 41.7287 37.4452 40.4883 38.0622 39.3895C38.6607 38.3339 39.4995 37.4329 40.5113 36.7586C40.0272 36.1467 39.6191 35.4788 39.2959 34.7695C38.9772 34.0238 38.8203 33.2194 38.8356 32.4091C38.7971 31.7775 38.8974 31.1453 39.1295 30.5563C39.3617 29.9673 39.7201 29.4359 40.1798 28.9991C41.2079 28.1468 42.5224 27.7143 43.8581 27.7891C44.6276 27.7632 45.3957 27.8718 46.1276 28.1099C46.6076 28.3064 47.1189 28.4166 47.6376 28.4353C47.837 28.4402 48.0363 28.4218 48.2314 28.3803C48.3947 28.3269 48.5304 28.2117 48.6089 28.0595H49.5296V32.9453H48.6089C48.466 31.9364 47.9783 31.0073 47.2279 30.3145C46.8096 29.8171 46.285 29.4191 45.6924 29.1495C45.0999 28.8799 44.4543 28.7455 43.8028 28.7561C42.8566 28.7044 41.9216 28.9796 41.1558 29.5353C40.8345 29.7965 40.5792 30.1292 40.4105 30.5065C40.2418 30.8838 40.1644 31.2953 40.1844 31.7078C40.179 32.5158 40.4667 33.2987 40.9946 33.9124C41.5756 34.5866 42.3183 35.1038 43.1537 35.4157C44.4826 36.8518 45.9205 38.2925 47.4672 39.7378C49.014 41.1831 50.4887 42.5352 51.8913 43.7941C52.2752 43.1813 52.558 42.5113 52.7291 41.8095C52.8978 41.0573 52.9796 40.2885 52.9731 39.5178C52.9918 39.104 52.9218 38.6909 52.7679 38.3061C52.6139 37.9212 52.3794 37.5734 52.08 37.2857C51.4208 36.7067 50.5594 36.4088 49.6816 36.4561V35.4157H57.0841V36.3828H56.2785C56.0989 36.3828 55.7444 36.6853 55.2242 37.2995C54.8365 37.6608 54.5643 38.1279 54.4416 38.6424V38.6974C54.406 39.7289 54.2246 40.7503 53.903 41.7316C53.5936 42.6819 53.1353 43.5775 52.545 44.3853V44.3945ZM45.4785 47.5112C46.3298 47.5226 47.1772 47.3956 47.9874 47.1353C48.7061 46.8953 49.3867 46.5542 50.0084 46.1224L49.8473 46.017C48.3128 44.6542 46.8028 43.2578 45.3174 41.8278C43.832 40.3978 42.3926 38.893 40.9993 37.3132C40.4848 37.8498 40.066 38.4698 39.7609 39.1466C39.4398 39.9663 39.2925 40.8433 39.3282 41.7224C39.349 42.491 39.5357 43.2462 39.8757 43.9366C40.2157 44.6271 40.7009 45.2365 41.2985 45.7236C42.4109 46.828 43.9079 47.4632 45.4785 47.4974V47.5112ZM60.4216 4.37281H60.3664C59.9141 4.37686 59.4787 4.20214 59.1557 3.88698C58.9897 3.7381 58.8578 3.55548 58.7689 3.35148C58.6799 3.14748 58.636 2.92684 58.6401 2.70448V2.65406C58.6269 2.4184 58.6664 2.18276 58.7555 1.96405C58.8447 1.74534 58.9813 1.54898 59.1557 1.38906C59.5116 1.09541 59.9594 0.934705 60.4216 0.934705C60.8839 0.934705 61.3317 1.09541 61.6876 1.38906C61.862 1.54898 61.9986 1.74534 62.0878 1.96405C62.1769 2.18276 62.2163 2.4184 62.2032 2.65406H62.148C62.1848 2.65406 62.2032 2.65406 62.2032 2.70448C62.2073 2.92684 62.1634 3.14748 62.0744 3.35148C61.9855 3.55548 61.8536 3.7381 61.6876 3.88698C61.3807 4.19534 60.9636 4.37003 60.5275 4.37281H60.4216ZM74.1172 47.392C75.5975 47.477 77.0677 47.1022 78.3249 46.3195C79.4134 45.5036 80.283 44.4331 80.8568 43.2028H81.9433C81.3474 44.9475 80.2373 46.4728 78.7576 47.5799C77.2359 48.6645 75.3986 49.2216 73.528 49.1657C72.1647 49.2144 70.8085 48.9504 69.564 48.3941C68.3196 47.8378 67.2203 47.0041 66.351 45.9574C64.5486 43.8165 63.5897 41.096 63.6533 38.3032C63.5807 35.5857 64.4577 32.9273 66.1347 30.782C66.9485 29.7615 67.9935 28.9475 69.1842 28.4066C70.3748 27.8656 71.6772 27.6132 72.9847 27.6699C73.9593 27.6477 74.9297 27.8031 75.8482 28.1282C76.6207 28.4317 77.4438 28.5872 78.2742 28.5866C78.5332 28.5992 78.7915 28.5521 79.0292 28.4491C79.2296 28.3467 79.4116 28.2119 79.5678 28.0503H80.3228V35.3607H79.4021C79.2464 33.8856 78.6662 32.4866 77.731 31.332C77.2316 30.5659 76.5421 29.9411 75.7292 29.5179C74.9163 29.0948 74.0075 28.8877 73.0906 28.9166C72.3088 28.8752 71.5267 28.9946 70.7933 29.2675C70.0599 29.5403 69.3908 29.9607 68.8277 30.5024C67.6382 31.928 66.9868 33.7228 66.9863 35.5761V35.4707C66.9495 35.8649 66.9219 36.2591 66.9035 36.6532C66.9035 37.0474 66.8758 37.4553 66.8758 37.8861C66.8758 38.3857 66.8758 38.8991 66.9311 39.417C66.9863 39.9349 67.0047 40.4116 67.037 40.8424C67.1805 42.585 67.9236 44.2249 69.1408 45.4853C69.7893 46.1332 70.5676 46.6379 71.425 46.9664C72.2824 47.2949 73.1998 47.4399 74.1172 47.392ZM91.1504 17.2611C91.1824 17.8205 91.09 18.3799 90.8799 18.8996C90.6699 19.4193 90.3472 19.8865 89.935 20.2678C89.0752 21.0052 87.9662 21.3902 86.8322 21.3449C86.0917 21.3671 85.3552 21.2296 84.6732 20.9416C84.1352 20.6805 83.5453 20.5427 82.9468 20.5382C82.7412 20.5184 82.5346 20.565 82.3576 20.6711L81.9249 21.0195H81.2988V16.2941H82.109C82.2594 17.215 82.7032 18.0635 83.375 18.7141C83.8018 19.2119 84.3373 19.6061 84.9404 19.8666C85.5435 20.1272 86.1985 20.2471 86.8553 20.2174C87.5301 20.2524 88.2018 20.1034 88.798 19.7866C89.0277 19.6409 89.2139 19.4364 89.337 19.1945C89.4601 18.9526 89.5156 18.6822 89.4977 18.4116C89.5223 18.0891 89.4576 17.766 89.3107 17.4775C89.1638 17.189 88.9403 16.9462 88.6645 16.7753C88.1189 16.4413 87.5514 16.1442 86.9657 15.8861C86.4594 15.6753 86.0036 15.4782 85.5847 15.2995C85.1657 15.1207 84.6916 14.9236 84.153 14.7082C83.3907 14.3576 82.6971 13.875 82.1044 13.2828C81.8279 12.9834 81.6139 12.6324 81.4748 12.25C81.3357 11.8676 81.2743 11.4615 81.2942 11.0553C81.2605 10.546 81.34 10.0355 81.527 9.56016C81.7139 9.08486 82.0038 8.65641 82.376 8.30531C83.0681 7.81678 83.8713 7.50701 84.7133 7.40382C85.5554 7.30062 86.41 7.40723 87.2005 7.71406C87.6627 7.94294 88.1713 8.06365 88.6875 8.06698C88.845 8.07208 89.0019 8.04397 89.1478 7.98448C89.2812 7.92549 89.3878 7.81933 89.4471 7.68656H90.1468V11.8116H89.3366C89.2056 10.9968 88.8189 10.2443 88.2317 9.66198C87.8712 9.22303 87.4134 8.8733 86.8941 8.64028C86.3749 8.40727 85.8085 8.29731 85.2394 8.31906C84.6153 8.26824 83.9935 8.44048 83.4855 8.8049C83.3034 8.95423 83.1578 9.14282 83.0597 9.35641C82.9616 9.57001 82.9136 9.80302 82.9192 10.0378C82.9026 10.2848 82.9482 10.5319 83.0519 10.7568C83.1556 10.9818 83.3141 11.1773 83.5131 11.3257C84.0232 11.6785 84.564 11.9853 85.1289 12.2424C85.6353 12.4532 86.1095 12.6503 86.5606 12.8291L88.043 13.4203C88.8167 13.744 89.5284 14.1983 90.1468 14.7632C90.4881 15.0788 90.7566 15.4643 90.9338 15.8932C91.111 16.3221 91.1928 16.7841 91.1734 17.2474L91.1504 17.2611ZM94.6813 36.9191C95.3675 37.5859 95.903 38.3907 96.2523 39.2798C96.6016 40.1689 96.7565 41.1219 96.7069 42.0753C96.7558 43.0327 96.6006 43.9896 96.2515 44.8831C95.9023 45.7765 95.3672 46.5863 94.6813 47.2591C93.4419 48.4847 91.7647 49.1704 90.0179 49.1657C88.2519 49.1787 86.5529 48.4929 85.2947 47.2591C84.6096 46.5859 84.0753 45.7759 83.727 44.8825C83.3787 43.9891 83.2242 43.0324 83.2737 42.0753C83.222 41.165 83.3585 40.2538 83.6749 39.3982C83.9913 38.5426 84.4809 37.7608 85.1131 37.1012C85.7454 36.4417 86.507 35.9184 87.3507 35.5638C88.1943 35.2092 89.1022 35.0309 90.0179 35.0399C91.7677 35.0273 93.4517 35.7026 94.7043 36.9191H94.6813ZM94.0322 44.2891V44.3945C94.069 44.0003 94.092 43.6061 94.1105 43.212C94.1289 42.8178 94.1381 42.4236 94.1381 42.0295C94.1381 41.6353 94.1381 41.2549 94.1105 40.8791C94.0828 40.5032 94.069 40.1503 94.0322 39.8295C93.9483 38.849 93.5403 37.9238 92.8721 37.1987C92.4913 36.8538 92.0438 36.5901 91.5569 36.4238C91.07 36.2575 90.5541 36.1921 90.0409 36.2316C89.5386 36.1962 89.0343 36.2637 88.5592 36.4301C88.0841 36.5964 87.6483 36.858 87.2788 37.1987C86.6178 37.9067 86.2101 38.8121 86.1187 39.7745V39.7057C86.0471 40.0779 86.0025 40.4547 85.9852 40.8332C85.9852 41.2274 85.9576 41.6216 85.9576 42.0111C85.9576 42.4007 85.9576 42.7903 85.9852 43.1661C86.0012 43.519 86.0459 43.87 86.1187 44.2157C86.2254 45.174 86.6311 46.0748 87.2788 46.7916C87.6402 47.147 88.0734 47.4219 88.5495 47.5981C89.0257 47.7743 89.5341 47.8478 90.0409 47.8136C90.561 47.8591 91.0849 47.7939 91.5778 47.6224C92.0706 47.451 92.5212 47.1771 92.8997 46.8191C93.5303 46.1122 93.9258 45.2285 94.0322 44.2891ZM98.4562 21.3724C97.605 21.3885 96.7614 21.2106 95.9899 20.8523C95.2183 20.4941 94.5392 19.9649 94.0046 19.3053C92.8381 17.9332 92.2145 16.1846 92.2506 14.3874C92.1949 12.5449 92.83 10.7476 94.0322 9.34573C94.5658 8.69722 95.2428 8.18026 96.0102 7.83521C96.7776 7.49016 97.6147 7.32635 98.4562 7.35656C99.1094 7.32031 99.7627 7.42434 100.372 7.66158C100.981 7.89882 101.532 8.26373 101.987 8.73156C102.832 9.63155 103.323 10.805 103.368 12.0361L103.423 13.0032L94.4649 13.7182C94.4831 15.0056 94.9373 16.2491 95.7539 17.2474C96.1643 17.7961 96.7029 18.2369 97.3229 18.5316C97.943 18.8263 98.6259 18.966 99.3125 18.9386C100.24 18.9905 101.163 18.7876 101.983 18.352C102.65 17.9189 103.197 17.3265 103.575 16.6286H104.386C104.043 17.9531 103.331 19.1543 102.332 20.0936C101.246 20.9836 99.8607 21.4306 98.4562 21.3449V21.3724ZM98.401 8.37406C97.8126 8.32516 97.2216 8.43061 96.6869 8.6799C96.1522 8.92919 95.6924 9.31362 95.3534 9.7949C94.7458 10.6765 94.3996 11.7104 94.3544 12.7786L101.099 12.2057C101.214 11.307 101.111 10.3939 100.799 9.54281C100.505 8.74837 99.7053 8.34962 98.401 8.34656V8.37406ZM114.693 47.7907C114.909 47.7907 115.204 47.6028 115.581 47.227C115.959 46.8511 116.148 46.5578 116.148 46.3424V39.0091C116.172 38.4368 115.991 37.8746 115.637 37.4232C115.428 37.2028 115.171 37.0325 114.887 36.9253C114.602 36.8181 114.296 36.7768 113.993 36.8045C113.038 36.836 112.119 37.1754 111.374 37.7716C110.493 38.4193 110.053 38.9571 110.053 39.3849V46.3653C110.053 46.5807 110.241 46.8741 110.619 47.2499C110.996 47.6257 111.277 47.8136 111.457 47.8136H112.267V48.8357H105.362V47.8136H106.117C106.333 47.8136 106.628 47.6257 107.005 47.2499C107.383 46.8741 107.571 46.5807 107.571 46.3653V39.032C107.601 38.4377 107.409 37.8534 107.033 37.3911C106.825 37.1749 106.573 37.0072 106.292 36.9002C106.012 36.7932 105.711 36.7496 105.412 36.7724C104.432 36.8044 103.491 37.1645 102.742 37.7945C101.861 38.4728 101.421 39.0457 101.421 39.5132V46.3882C101.421 46.6036 101.61 46.897 101.987 47.2728C102.365 47.6487 102.664 47.8366 102.88 47.8366H103.635V48.8586H96.7299V47.8366H97.5401C97.7196 47.8366 98.0005 47.6487 98.3734 47.2728C98.7462 46.897 98.9396 46.6036 98.9396 46.3882V37.8311C98.9396 37.6203 98.7508 37.3316 98.3734 36.9741C97.9959 36.6166 97.7196 36.4378 97.5401 36.4378H96.7299V35.4157H100.873L101.412 37.9961C102.204 37.1711 102.923 36.4806 103.571 35.9245C104.36 35.3237 105.342 35.0289 106.333 35.0949C107.181 35.0779 108.011 35.3317 108.704 35.8191C109.048 36.0668 109.337 36.3836 109.551 36.7491C109.765 37.1145 109.9 37.5206 109.947 37.9411C110.771 37.1528 111.53 36.4882 112.212 35.952C112.992 35.3842 113.944 35.0995 114.909 35.1453C115.887 35.1214 116.835 35.4783 117.552 36.1399C117.923 36.507 118.212 36.9486 118.398 37.4354C118.585 37.9223 118.665 38.4431 118.634 38.9632V46.2966C118.634 46.512 118.822 46.8053 119.2 47.1811C119.577 47.557 119.854 47.7449 120.033 47.7449H120.843V48.767H113.938V47.7449L114.693 47.7907ZM105.684 10.2074C105.459 9.85672 105.175 9.54674 104.846 9.29073C104.386 8.89656 104.082 8.69948 103.925 8.69948H103.331V7.64531H110.614V8.6674H109.753C109.574 8.6674 109.339 8.84615 109.054 9.20365C108.812 9.4537 108.66 9.77578 108.621 10.1203L111.843 16.7249L114.813 10.1707C114.814 9.99065 114.779 9.81213 114.709 9.64592C114.64 9.47971 114.537 9.32926 114.408 9.20365C114.101 8.84615 113.857 8.6674 113.676 8.6674H112.787V7.64531H118.238V8.6674H117.644C117.464 8.6674 117.183 8.85531 116.806 9.23115C116.51 9.49924 116.264 9.81732 116.079 10.1707L111.475 19.892L107.516 27.4682L106.342 26.8724L110.439 19.5116L105.684 10.2074ZM130.124 35.0766C130.876 35.047 131.624 35.2031 132.301 35.531C132.979 35.8588 133.564 36.3483 134.005 36.9557C134.991 38.4101 135.476 40.1441 135.386 41.8966C135.458 43.7413 134.907 45.5568 133.821 47.0528C133.372 47.6909 132.775 48.2105 132.079 48.5667C131.384 48.9229 130.611 49.1049 129.829 49.097C128.84 49.1468 127.858 48.9129 126.998 48.4232C126.238 47.9111 125.617 47.2199 125.189 46.4111V52.8553C125.189 53.1074 125.387 53.4099 125.783 53.772C126.179 54.1341 126.469 54.3082 126.648 54.3082H127.518V55.2891H120.411V54.267H121.276C121.625 54.1938 121.938 54.0047 122.165 53.7307C122.465 53.5092 122.668 53.1809 122.731 52.8141V37.8311C122.731 37.6203 122.542 37.3316 122.165 36.9741C121.938 36.7001 121.625 36.511 121.276 36.4378H120.411V35.3607H124.779L125.212 38.1566C125.704 37.2139 126.416 36.4027 127.288 35.7916C128.139 35.2696 129.125 35.0082 130.124 35.0399V35.0766ZM132.822 44.1011V44.1516L132.928 43.0791C132.964 42.7227 132.983 42.3648 132.983 42.0066C132.983 41.6925 132.965 41.3788 132.928 41.067C132.891 40.7599 132.854 40.4666 132.822 40.1778C132.733 39.2377 132.356 38.3477 131.74 37.6295C131.445 37.3213 131.086 37.08 130.689 36.9218C130.292 36.7637 129.865 36.6924 129.438 36.7128C128.94 36.6919 128.444 36.774 127.979 36.9539C127.515 37.1337 127.093 37.4075 126.74 37.7578C126.037 38.4943 125.52 39.3866 125.23 40.3611V43.8536C125.225 44.3546 125.323 44.8514 125.517 45.3133C125.712 45.7753 126 46.1926 126.363 46.5395C126.721 46.9056 127.151 47.1946 127.627 47.3885C128.102 47.5825 128.612 47.6772 129.125 47.667H129.18C129.659 47.7034 130.139 47.633 130.587 47.461C131.035 47.2889 131.438 47.0195 131.768 46.6724C132.371 45.9265 132.738 45.0187 132.822 44.0645V44.1011ZM163.302 46.3561C163.302 46.5716 163.5 46.8649 163.896 47.2407C164.292 47.6166 164.577 47.8045 164.757 47.8045H165.567V48.8266H158.5V47.8045H159.283C159.467 47.8045 159.743 47.6166 160.148 47.2407C160.554 46.8649 160.742 46.5716 160.742 46.3561V39.0686C160.761 38.4816 160.581 37.9053 160.231 37.4324C160.04 37.2012 159.795 37.0193 159.517 36.902C159.24 36.7847 158.939 36.7356 158.638 36.7586C157.568 36.7935 156.537 37.1694 155.697 37.8311C154.706 38.5523 154.211 39.1252 154.214 39.5499V46.3195C154.214 46.5716 154.412 46.8741 154.808 47.2361C155.048 47.5102 155.372 47.6986 155.729 47.7724H156.521V48.7945H145.067L144.69 46.0032C144.122 46.7457 143.491 47.4374 142.802 48.0703C142.102 48.7259 141.172 49.0829 140.21 49.0649C139.757 49.0681 139.309 48.9791 138.891 48.8034C138.474 48.6276 138.097 48.3688 137.784 48.0428C137.442 47.6974 137.174 47.2858 136.997 46.8333C136.821 46.3808 136.739 45.8971 136.758 45.412C136.706 44.8424 136.818 44.2699 137.081 43.7612C137.343 43.2525 137.745 42.8284 138.24 42.5382C139.142 42.0185 140.114 41.6295 141.127 41.3832L144.634 40.682L144.69 39.0732C144.73 38.2624 144.46 37.4664 143.935 36.8457C143.585 36.535 143.173 36.3003 142.727 36.1567C142.281 36.0131 141.809 35.9637 141.343 36.0116C140.89 35.9574 140.431 36.0289 140.017 36.2182C139.603 36.4075 139.249 36.7071 138.995 37.0841C138.793 37.5275 138.7 38.0124 138.724 38.4986C138.748 38.9848 138.889 39.4584 139.133 39.8799H138.162L136.32 37.1941C137.058 36.4719 137.937 35.9085 138.902 35.5387C139.867 35.1689 140.899 35.0007 141.932 35.0445C143.253 34.9995 144.555 35.3665 145.656 36.0941C146.147 36.4296 146.544 36.8845 146.808 37.4156C147.072 37.9467 147.196 38.5362 147.166 39.1282V46.3241C147.166 46.5395 147.364 46.8236 147.76 47.1811C148.156 47.5386 148.442 47.722 148.621 47.722H150.242C150.6 47.6479 150.924 47.4577 151.162 47.1811C151.558 46.8236 151.756 46.5395 151.756 46.3241V37.8311C151.756 37.6203 151.558 37.3316 151.162 36.9741C150.922 36.7 150.599 36.5116 150.242 36.4378H149.431V35.3607H153.694L154.233 38.1566C154.954 37.3927 155.723 36.6747 156.535 36.007C157.385 35.3658 158.434 35.0414 159.499 35.0903C159.994 35.0814 160.485 35.1718 160.944 35.356C161.403 35.5403 161.82 35.8147 162.169 36.1628C162.539 36.5264 162.829 36.9628 163.02 37.4442C163.211 37.9256 163.299 38.4414 163.279 38.9586L163.302 46.3561ZM144.69 41.5941L141.467 42.4007C140.775 42.5127 140.145 42.8631 139.686 43.3907C139.352 43.8721 139.181 44.4469 139.198 45.0316V45.082C139.194 45.3556 139.244 45.6272 139.346 45.8813C139.448 46.1354 139.599 46.3669 139.792 46.5624C139.978 46.7613 140.204 46.9189 140.455 47.0247C140.707 47.1306 140.978 47.1823 141.251 47.1766H141.329C142.052 47.1476 142.741 46.8632 143.272 46.3745C143.819 45.9384 144.286 45.4112 144.653 44.8161L144.69 41.5941ZM179 35.4157V36.4378H178.351C178.208 36.4378 177.946 36.6257 177.568 37.0016C177.282 37.2734 177.02 37.5694 176.786 37.8861L172.256 47.6624L168.209 55.1836L167.077 54.5924L171.123 47.2316L166.377 37.9411C166.151 37.5916 165.867 37.2819 165.539 37.0245C165.079 36.6303 164.793 36.4332 164.651 36.4332H164.002V35.4157H171.284V36.4378H170.474C170.295 36.4378 170.051 36.6166 169.747 36.9741C169.494 37.2192 169.332 37.5422 169.286 37.8907L172.509 44.4999L175.492 37.8724C175.492 37.6999 175.457 37.5293 175.387 37.3714C175.317 37.2136 175.215 37.072 175.087 36.9557C174.783 36.5982 174.539 36.4195 174.36 36.4195H173.499V35.4157H179Z" fill="#051C2C"/>
</svg>
