<svg width="271" height="246" viewBox="0 0 271 246" fill="none" xmlns="http://www.w3.org/2000/svg">
<rect x="0.59375" y="33.6914" width="270.326" height="212.23" rx="4.74257" fill="#E5F3F9"/>
<rect x="88.3359" y="88.2305" width="97.2226" height="28.4554" rx="3.00352" fill="#00508A"/>
<path d="M135.078 147.989L138.501 142.06H131.655L135.078 147.989ZM134.485 120.957V142.653H135.671V120.957H134.485Z" fill="#5E5E5E"/>
<path d="M46.4766 147.988L49.8992 142.059H43.0539L46.4766 147.988ZM46.4766 135.223V134.63H45.8837V135.223H46.4766ZM227.439 135.223H228.031V134.63H227.439V135.223ZM227.439 147.988L230.861 142.059H224.016L227.439 147.988ZM47.0694 142.652V135.223H45.8837V142.652H47.0694ZM46.4766 135.815H227.439V134.63H46.4766V135.815ZM226.846 135.223V142.652H228.031V135.223H226.846Z" fill="#5E5E5E"/>
<path d="M115.136 94.5296V106.602H113.462L107.326 97.748H107.214V106.602H105.392V94.5296H107.078L113.22 103.395H113.332V94.5296H115.136ZM121.554 106.784C120.662 106.784 119.893 106.594 119.249 106.213C118.608 105.827 118.113 105.287 117.763 104.592C117.418 103.892 117.245 103.073 117.245 102.134C117.245 101.206 117.418 100.389 117.763 99.6814C118.113 98.974 118.6 98.4219 119.225 98.025C119.854 97.6281 120.589 97.4297 121.43 97.4297C121.941 97.4297 122.436 97.5142 122.915 97.6831C123.395 97.8521 123.825 98.1174 124.206 98.4789C124.587 98.8404 124.888 99.31 125.108 99.8877C125.328 100.461 125.438 101.159 125.438 101.98V102.605H118.241V101.285H123.711C123.711 100.821 123.617 100.41 123.428 100.053C123.239 99.6912 122.974 99.4063 122.632 99.198C122.294 98.9898 121.897 98.8856 121.442 98.8856C120.946 98.8856 120.514 99.0074 120.145 99.2511C119.779 99.4908 119.496 99.8052 119.296 100.194C119.1 100.579 119.001 100.998 119.001 101.45V102.481C119.001 103.086 119.107 103.601 119.32 104.026C119.536 104.45 119.836 104.774 120.221 104.998C120.607 105.218 121.057 105.328 121.571 105.328C121.905 105.328 122.21 105.281 122.485 105.187C122.76 105.089 122.998 104.943 123.198 104.751C123.399 104.558 123.552 104.32 123.658 104.037L125.326 104.338C125.192 104.829 124.953 105.26 124.607 105.629C124.265 105.994 123.835 106.279 123.316 106.484C122.801 106.684 122.214 106.784 121.554 106.784ZM131.62 97.5476V98.9623H126.674V97.5476H131.62ZM128.001 95.3784H129.763V103.943C129.763 104.285 129.814 104.542 129.916 104.715C130.019 104.884 130.15 105 130.311 105.063C130.476 105.122 130.655 105.152 130.848 105.152C130.989 105.152 131.113 105.142 131.219 105.122C131.325 105.102 131.408 105.087 131.467 105.075L131.785 106.531C131.683 106.57 131.537 106.609 131.349 106.649C131.16 106.692 130.924 106.716 130.641 106.719C130.178 106.727 129.746 106.645 129.345 106.472C128.944 106.299 128.62 106.032 128.372 105.67C128.125 105.309 128.001 104.855 128.001 104.309V95.3784ZM135.532 106.602L132.868 97.5476H134.69L136.464 104.197H136.552L138.332 97.5476H140.154L141.922 104.167H142.011L143.773 97.5476H145.594L142.936 106.602H141.138L139.299 100.065H139.164L137.324 106.602H135.532ZM150.805 106.784C149.956 106.784 149.216 106.59 148.583 106.201C147.95 105.812 147.459 105.267 147.109 104.568C146.76 103.868 146.585 103.051 146.585 102.116C146.585 101.177 146.76 100.355 147.109 99.6519C147.459 98.9485 147.95 98.4023 148.583 98.0132C149.216 97.6242 149.956 97.4297 150.805 97.4297C151.654 97.4297 152.395 97.6242 153.027 98.0132C153.66 98.4023 154.151 98.9485 154.501 99.6519C154.851 100.355 155.026 101.177 155.026 102.116C155.026 103.051 154.851 103.868 154.501 104.568C154.151 105.267 153.66 105.812 153.027 106.201C152.395 106.59 151.654 106.784 150.805 106.784ZM150.811 105.305C151.361 105.305 151.817 105.159 152.179 104.869C152.54 104.578 152.807 104.191 152.98 103.707C153.157 103.224 153.246 102.692 153.246 102.11C153.246 101.532 153.157 101.002 152.98 100.518C152.807 100.031 152.54 99.6401 152.179 99.3454C151.817 99.0507 151.361 98.9033 150.811 98.9033C150.257 98.9033 149.797 99.0507 149.432 99.3454C149.07 99.6401 148.801 100.031 148.624 100.518C148.451 101.002 148.365 101.532 148.365 102.11C148.365 102.692 148.451 103.224 148.624 103.707C148.801 104.191 149.07 104.578 149.432 104.869C149.797 105.159 150.257 105.305 150.811 105.305ZM156.993 106.602V97.5476H158.696V98.9858H158.791C158.956 98.4986 159.247 98.1154 159.663 97.8364C160.084 97.5535 160.559 97.412 161.09 97.412C161.2 97.412 161.329 97.4159 161.479 97.4238C161.632 97.4316 161.752 97.4415 161.838 97.4533V99.1391C161.768 99.1194 161.642 99.0978 161.461 99.0743C161.28 99.0467 161.099 99.033 160.919 99.033C160.502 99.033 160.131 99.1214 159.805 99.2982C159.482 99.4712 159.227 99.7128 159.038 100.023C158.85 100.33 158.755 100.68 158.755 101.072V106.602H156.993ZM164.984 103.531L164.973 101.379H165.279L168.887 97.5476H170.997L166.883 101.91H166.605L164.984 103.531ZM163.363 106.602V94.5296H165.126V106.602H163.363ZM169.081 106.602L165.839 102.299L167.053 101.067L171.244 106.602H169.081Z" fill="white"/>
<rect x="100.195" y="153.438" width="71.1385" height="26.0841" rx="3.00352" fill="#01B0C8"/>
<path d="M115.272 170.367V161.744H116.834V169.058H120.632V170.367H115.272ZM123.419 170.367H121.752L124.788 161.744H126.716L129.756 170.367H128.089L125.786 163.513H125.718L123.419 170.367ZM123.474 166.986H128.021V168.241H123.474V166.986ZM137.978 161.744V170.367H136.588L132.525 164.494H132.454V170.367H130.892V161.744H132.29L136.348 167.622H136.424V161.744H137.978ZM146.473 165.428V166.683H142.591V165.428H146.473ZM151.001 170.367V169.239L153.994 166.304C154.28 166.015 154.519 165.758 154.71 165.534C154.901 165.309 155.044 165.092 155.139 164.881C155.235 164.671 155.283 164.446 155.283 164.207C155.283 163.935 155.221 163.702 155.097 163.508C154.974 163.312 154.804 163.16 154.588 163.054C154.372 162.947 154.126 162.894 153.851 162.894C153.567 162.894 153.319 162.953 153.106 163.071C152.892 163.186 152.727 163.35 152.609 163.563C152.494 163.777 152.436 164.031 152.436 164.325H150.95C150.95 163.778 151.075 163.302 151.325 162.898C151.575 162.494 151.918 162.181 152.356 161.959C152.797 161.737 153.302 161.626 153.872 161.626C154.45 161.626 154.958 161.735 155.396 161.951C155.834 162.167 156.174 162.463 156.415 162.839C156.659 163.215 156.781 163.645 156.781 164.127C156.781 164.45 156.72 164.767 156.596 165.079C156.473 165.391 156.255 165.736 155.944 166.115C155.635 166.494 155.201 166.953 154.643 167.492L153.156 169.003V169.062H156.912V170.367H151.001Z" fill="white"/>
<rect x="183.18" y="153.438" width="71.1385" height="26.0841" rx="3.00352" fill="#01B0C8"/>
<path d="M198.257 170.367V161.744H199.819V169.058H203.617V170.367H198.257ZM206.404 170.367H204.737L207.772 161.744H209.701L212.74 170.367H211.073L208.77 163.513H208.703L206.404 170.367ZM206.459 166.986H211.006V168.241H206.459V166.986ZM220.962 161.744V170.367H219.573L215.51 164.494H215.438V170.367H213.876V161.744H215.274L219.333 167.622H219.409V161.744H220.962ZM229.458 165.428V166.683H225.576V165.428H229.458ZM233.985 170.367V169.239L236.979 166.304C237.265 166.015 237.503 165.758 237.694 165.534C237.885 165.309 238.028 165.092 238.124 164.881C238.219 164.671 238.267 164.446 238.267 164.207C238.267 163.935 238.205 163.702 238.082 163.508C237.958 163.312 237.788 163.16 237.572 163.054C237.356 162.947 237.11 162.894 236.835 162.894C236.552 162.894 236.303 162.953 236.09 163.071C235.877 163.186 235.711 163.35 235.593 163.563C235.478 163.777 235.421 164.031 235.421 164.325H233.934C233.934 163.778 234.059 163.302 234.309 162.898C234.559 162.494 234.903 162.181 235.341 161.959C235.781 161.737 236.287 161.626 236.856 161.626C237.435 161.626 237.943 161.735 238.381 161.951C238.818 162.167 239.158 162.463 239.399 162.839C239.644 163.215 239.766 163.645 239.766 164.127C239.766 164.45 239.704 164.767 239.581 165.079C239.457 165.391 239.239 165.736 238.928 166.115C238.619 166.494 238.185 166.953 237.627 167.492L236.141 169.003V169.062H239.896V170.367H233.985Z" fill="white"/>
<rect x="17.1953" y="153.438" width="71.1385" height="26.0841" rx="3.00352" fill="#01B0C8"/>
<path d="M32.2724 170.367V161.744H33.8344V169.058H37.6322V170.367H32.2724ZM40.4194 170.367H38.7521L41.7878 161.744H43.7162L46.7561 170.367H45.0888L42.7857 163.513H42.7183L40.4194 170.367ZM40.4742 166.986H45.0214V168.241H40.4742V166.986ZM54.9779 161.744V170.367H53.5885L49.5254 164.494H49.4539V170.367H47.8918V161.744H49.2897L53.3485 167.622H53.4242V161.744H54.9779ZM63.4734 165.428V166.683H59.5914V165.428H63.4734ZM68.0006 170.367V169.239L70.9941 166.304C71.2804 166.015 71.519 165.758 71.7099 165.534C71.9008 165.309 72.0439 165.092 72.1394 164.881C72.2348 164.671 72.2825 164.446 72.2825 164.207C72.2825 163.935 72.2208 163.702 72.0973 163.508C71.9738 163.312 71.8039 163.16 71.5878 163.054C71.3717 162.947 71.1261 162.894 70.851 162.894C70.5675 162.894 70.3191 162.953 70.1058 163.071C69.8924 163.186 69.7268 163.35 69.6089 163.563C69.4938 163.777 69.4363 164.031 69.4363 164.325H67.95C67.95 163.778 68.0749 163.302 68.3248 162.898C68.5746 162.494 68.9184 162.181 69.3563 161.959C69.797 161.737 70.3022 161.626 70.872 161.626C71.4503 161.626 71.9583 161.735 72.3962 161.951C72.8341 162.167 73.1737 162.463 73.4151 162.839C73.6593 163.215 73.7814 163.645 73.7814 164.127C73.7814 164.45 73.7197 164.767 73.5962 165.079C73.4726 165.391 73.2551 165.736 72.9435 166.115C72.6348 166.494 72.2011 166.953 71.6425 167.492L70.1563 169.003V169.062H73.9119V170.367H68.0006Z" fill="white"/>
<rect x="38.5391" y="0.492188" width="58.0964" height="58.0964" rx="5.92821" fill="#FF725F"/>
<path d="M71.7295 9.97656H62.2422V19.1631H71.7295V9.97656Z" stroke="white" stroke-width="2.37128"/>
<path d="M50.3984 35.2422V44.4287H59.8857V35.2422H50.3984Z" stroke="white" stroke-width="2.37128"/>
<path d="M74.1094 44.4287V35.2422H83.5966V44.4287H74.1094Z" stroke="white" stroke-width="2.37128"/>
<path d="M66.9997 20.3125V28.3507M66.9997 28.3507H55.1406V34.0923M66.9997 28.3507H78.8588V35.2406" stroke="white" stroke-width="2.37128"/>
</svg>
