<svg width="16" height="16" viewBox="0 0 16 16" fill="none" xmlns="http://www.w3.org/2000/svg">
<path fill-rule="evenodd" clip-rule="evenodd" d="M8.0026 0.5C8.46284 0.5 8.83594 0.873096 8.83594 1.33333V8C8.83594 8.46024 8.46284 8.83333 8.0026 8.83333C7.54237 8.83333 7.16927 8.46024 7.16927 8V1.33333C7.16927 0.873096 7.54237 0.5 8.0026 0.5ZM4.47264 2.46237C4.76957 2.81401 4.72522 3.33978 4.37357 3.63671C3.49273 4.38049 2.86169 5.37698 2.5659 6.49126C2.27011 7.60554 2.32384 8.7838 2.71983 9.86653C3.11581 10.9493 3.83492 11.8842 4.77981 12.5447C5.7247 13.2052 6.84973 13.5595 8.0026 13.5595C9.15548 13.5595 10.2805 13.2052 11.2254 12.5447C12.1703 11.8842 12.8894 10.9493 13.2854 9.86653C13.6814 8.7838 13.7351 7.60554 13.4393 6.49126C13.1435 5.37698 12.5125 4.38049 11.6316 3.63671C11.28 3.33978 11.2356 2.81401 11.5326 2.46237C11.8295 2.11072 12.3553 2.06637 12.7069 2.36329C13.8487 3.32746 14.6667 4.6192 15.0502 6.06364C15.4336 7.50808 15.364 9.03545 14.8507 10.439C14.3373 11.8425 13.4052 13.0545 12.1803 13.9107C10.9554 14.7669 9.49707 15.2261 8.0026 15.2261C6.50814 15.2261 5.04977 14.7669 3.82491 13.9107C2.60005 13.0545 1.66787 11.8425 1.15456 10.439C0.641242 9.03545 0.571588 7.50808 0.955024 6.06364C1.33846 4.6192 2.15646 3.32746 3.2983 2.36329C3.64995 2.06637 4.17572 2.11072 4.47264 2.46237Z" fill="#FF725F"/>
</svg>
