<svg width="211" height="212" viewBox="0 0 211 212" fill="none" xmlns="http://www.w3.org/2000/svg">
<rect x="0.8125" y="0.121094" width="209.859" height="100.856" rx="4.74257" fill="#E5F3F9"/>
<rect x="6.38281" y="33.5508" width="63.1433" height="20.4287" fill="#00B0C8"/>
<rect x="6.38281" y="9.40625" width="63.1433" height="20.4287" fill="#00508A"/>
<rect x="6.38281" y="57.6953" width="63.1433" height="20.4287" fill="#A0D3E4"/>
<rect x="73.2422" y="33.5508" width="63.1433" height="20.4287" fill="#00B0C8"/>
<rect x="140.102" y="33.5508" width="63.1433" height="20.4287" fill="#00B0C8"/>
<rect x="73.2422" y="9.40625" width="63.1433" height="20.4287" fill="#00508A"/>
<rect x="140.102" y="9.40625" width="63.1433" height="20.4287" fill="#00508A"/>
<rect x="73.2422" y="57.6953" width="63.1433" height="20.4287" fill="#A0D3E4"/>
<rect x="140.102" y="57.6953" width="63.1433" height="20.4287" fill="#A0D3E4"/>
<line x1="5.17344" y1="88.8031" x2="208.161" y2="88.8031" stroke="#929292" stroke-width="1.30001" stroke-linecap="round" stroke-dasharray="3.71 3.71"/>
<rect x="0.8125" y="110.047" width="209.859" height="100.856" fill="#E5F3F9"/>
<rect x="0.8125" y="128.375" width="70.5719" height="83.4649" fill="#E8E8E8"/>
<line x1="5.17344" y1="198.729" x2="208.161" y2="198.729" stroke="#929292" stroke-width="1.30001" stroke-linecap="round" stroke-dasharray="3.71 3.71"/>
<line x1="5.17344" y1="186.752" x2="208.161" y2="186.752" stroke="#929292" stroke-width="1.30001" stroke-linecap="round" stroke-dasharray="3.71 3.71"/>
<line x1="5.17344" y1="174.784" x2="208.161" y2="174.784" stroke="#929292" stroke-width="1.30001" stroke-linecap="round" stroke-dasharray="3.71 3.71"/>
<line x1="5.17344" y1="162.807" x2="208.161" y2="162.807" stroke="#929292" stroke-width="1.30001" stroke-linecap="round" stroke-dasharray="3.71 3.71"/>
<line x1="5.17344" y1="150.83" x2="208.161" y2="150.83" stroke="#929292" stroke-width="1.30001" stroke-linecap="round" stroke-dasharray="3.71 3.71"/>
<line x1="5.17344" y1="138.846" x2="208.161" y2="138.846" stroke="#929292" stroke-width="1.30001" stroke-linecap="round" stroke-dasharray="3.71 3.71"/>
<rect x="0.8125" y="110.047" width="209.859" height="18.3216" fill="#00B0C8"/>
</svg>
