<svg width="13" height="15" viewBox="0 0 13 15" fill="none" xmlns="http://www.w3.org/2000/svg">
<path d="M5.57143 15C5.2381 15 4.9256 14.9286 4.63393 14.7857C4.34226 14.6429 4.09524 14.4405 3.89286 14.1786L0 9.23214L0.339286 8.875C0.577381 8.625 0.863095 8.47619 1.19643 8.42857C1.52976 8.38095 1.83929 8.44643 2.125 8.625L3.44643 9.42857V3.57143C3.44643 3.36905 3.51488 3.1994 3.65179 3.0625C3.78869 2.9256 3.95833 2.85714 4.16071 2.85714C4.3631 2.85714 4.53571 2.9256 4.67857 3.0625C4.82143 3.1994 4.89286 3.36905 4.89286 3.57143V7.14286H10.2321C10.8274 7.14286 11.3333 7.35119 11.75 7.76786C12.1667 8.18452 12.375 8.69048 12.375 9.28571V12.1429C12.375 12.9286 12.0952 13.6012 11.5357 14.1607C10.9762 14.7202 10.3036 15 9.51786 15H5.57143ZM1.07143 5.35714C0.916667 5.09524 0.797619 4.8125 0.714286 4.50893C0.630952 4.20536 0.589286 3.89286 0.589286 3.57143C0.589286 2.58333 0.9375 1.74107 1.63393 1.04464C2.33036 0.348214 3.17262 0 4.16071 0C5.14881 0 5.99107 0.348214 6.6875 1.04464C7.38393 1.74107 7.73214 2.58333 7.73214 3.57143C7.73214 3.89286 7.69048 4.20536 7.60714 4.50893C7.52381 4.8125 7.40476 5.09524 7.25 5.35714L6.01786 4.64286C6.1131 4.47619 6.18452 4.30655 6.23214 4.13393C6.27976 3.96131 6.30357 3.77381 6.30357 3.57143C6.30357 2.97619 6.09524 2.47024 5.67857 2.05357C5.26191 1.6369 4.75595 1.42857 4.16071 1.42857C3.56548 1.42857 3.05952 1.6369 2.64286 2.05357C2.22619 2.47024 2.01786 2.97619 2.01786 3.57143C2.01786 3.77381 2.04167 3.96131 2.08929 4.13393C2.1369 4.30655 2.20833 4.47619 2.30357 4.64286L1.07143 5.35714Z" fill="#52565A"/>
</svg>
