<svg width="273" height="198" viewBox="0 0 273 198" fill="none" xmlns="http://www.w3.org/2000/svg">
<rect x="0.046875" y="0.5625" width="272.698" height="175.475" rx="4.74257" fill="#E5F3F9"/>
<rect x="181.453" y="139.281" width="58.0964" height="58.0964" rx="5.92821" fill="#FF725F"/>
<path d="M224.964 166.82V174.807M224.964 174.807L219.108 182.793M224.964 174.807H219.108V182.793M219.108 182.793H215.203" stroke="white" stroke-width="2.84554"/>
<path d="M224.963 174.805V153.508H195.68V182.791H218.13" stroke="white" stroke-width="3"/>
<path fill-rule="evenodd" clip-rule="evenodd" d="M27.8784 29.0195C24.3125 29.0195 21.4219 31.9102 21.4219 35.476V61.302C21.4219 64.8678 24.3126 67.7585 27.8784 67.7585H248.94L256.851 58.6471V35.476C256.851 31.9102 253.96 29.0195 250.394 29.0195H27.8784Z" fill="#00B0C8"/>
<path d="M256.828 58.2656L248.055 68.5017V58.2656H256.828Z" fill="#00508A"/>
<path d="M43.72 44.9475H41.881C41.8102 44.5545 41.6786 44.2087 41.486 43.9101C41.2935 43.6114 41.0577 43.358 40.7787 43.1497C40.4997 42.9414 40.1873 42.7842 39.8414 42.6781C39.4996 42.572 39.1361 42.519 38.751 42.519C38.0554 42.519 37.4325 42.6938 36.8824 43.0436C36.3362 43.3933 35.9039 43.9061 35.5856 44.5821C35.2712 45.258 35.114 46.0832 35.114 47.0578C35.114 48.0402 35.2712 48.8693 35.5856 49.5452C35.9039 50.2212 36.3381 50.732 36.8883 51.0778C37.4384 51.4236 38.0574 51.5965 38.7451 51.5965C39.1262 51.5965 39.4878 51.5455 39.8297 51.4433C40.1755 51.3372 40.4879 51.182 40.7669 50.9776C41.0459 50.7733 41.2817 50.5237 41.4742 50.229C41.6707 49.9304 41.8063 49.5885 41.881 49.2034L43.72 49.2093C43.6218 49.8026 43.4312 50.3489 43.1483 50.8479C42.8693 51.3431 42.5097 51.7714 42.0696 52.1329C41.6334 52.4905 41.1343 52.7676 40.5724 52.9641C40.0104 53.1606 39.3974 53.2588 38.7333 53.2588C37.688 53.2588 36.7566 53.0112 35.9393 52.5161C35.1219 52.017 34.4774 51.3038 34.0059 50.3764C33.5382 49.449 33.3044 48.3428 33.3044 47.0578C33.3044 45.7688 33.5402 44.6626 34.0118 43.7391C34.4833 42.8117 35.1278 42.1005 35.9452 41.6053C36.7625 41.1062 37.6919 40.8567 38.7333 40.8567C39.3738 40.8567 39.9711 40.9491 40.5252 41.1338C41.0832 41.3145 41.5843 41.5817 42.0283 41.9354C42.4724 42.2852 42.8398 42.7135 43.1306 43.2204C43.4214 43.7234 43.6179 44.2991 43.72 44.9475ZM47.5205 47.7179V53.0938H45.7581V41.0218H47.497V45.5134H47.609C47.8212 45.0261 48.1454 44.639 48.5816 44.3522C49.0177 44.0653 49.5876 43.9219 50.291 43.9219C50.9119 43.9219 51.4542 44.0496 51.9179 44.305C52.3855 44.5604 52.747 44.9416 53.0024 45.4486C53.2618 45.9515 53.3915 46.5803 53.3915 47.3348V53.0938H51.629V47.547C51.629 46.8829 51.4581 46.3681 51.1162 46.0026C50.7743 45.6332 50.2988 45.4486 49.6897 45.4486C49.2732 45.4486 48.8999 45.537 48.5698 45.7138C48.2436 45.8906 47.9862 46.15 47.7976 46.4919C47.6129 46.8298 47.5205 47.2385 47.5205 47.7179ZM58.3783 53.2942C57.8045 53.2942 57.2858 53.1881 56.8221 52.9759C56.3584 52.7597 55.991 52.4473 55.7198 52.0386C55.4526 51.6299 55.319 51.1289 55.319 50.5355C55.319 50.0247 55.4172 49.6042 55.6137 49.2741C55.8102 48.944 56.0755 48.6827 56.4095 48.4901C56.7435 48.2976 57.1168 48.1522 57.5294 48.0539C57.9421 47.9557 58.3625 47.881 58.7909 47.8299C59.3332 47.7671 59.7733 47.716 60.1112 47.6767C60.4492 47.6335 60.6948 47.5647 60.8481 47.4704C61.0013 47.3761 61.0779 47.2228 61.0779 47.0106V46.9693C61.0779 46.4545 60.9325 46.0557 60.6418 45.7727C60.3549 45.4898 59.9265 45.3483 59.3567 45.3483C58.7634 45.3483 58.2957 45.48 57.9538 45.7433C57.6159 46.0026 57.3821 46.2915 57.2524 46.6098L55.596 46.2325C55.7925 45.6824 56.0794 45.2383 56.4566 44.9004C56.8378 44.5585 57.276 44.3109 57.7711 44.1576C58.2663 44.0005 58.7869 43.9219 59.3332 43.9219C59.6947 43.9219 60.0778 43.9651 60.4826 44.0515C60.8913 44.1341 61.2725 44.2873 61.6261 44.5113C61.9837 44.7353 62.2765 45.0556 62.5044 45.4721C62.7323 45.8847 62.8463 46.4211 62.8463 47.0813V53.0938H61.1251V51.8559H61.0544C60.9404 52.0838 60.7695 52.3078 60.5415 52.5279C60.3136 52.7479 60.0209 52.9307 59.6633 53.0761C59.3057 53.2215 58.8773 53.2942 58.3783 53.2942ZM58.7614 51.8795C59.2487 51.8795 59.6652 51.7832 60.011 51.5906C60.3608 51.3981 60.626 51.1466 60.8068 50.8361C60.9915 50.5218 61.0838 50.1858 61.0838 49.8282V48.6611C61.021 48.7239 60.8991 48.7829 60.7184 48.8379C60.5415 48.889 60.3392 48.9342 60.1112 48.9735C59.8833 49.0088 59.6613 49.0422 59.4452 49.0737C59.229 49.1012 59.0483 49.1248 58.9029 49.1444C58.561 49.1876 58.2486 49.2603 57.9656 49.3625C57.6866 49.4647 57.4626 49.6121 57.2937 49.8046C57.1286 49.9932 57.0461 50.2447 57.0461 50.5591C57.0461 50.9953 57.2072 51.3254 57.5294 51.5494C57.8517 51.7694 58.2623 51.8795 58.7614 51.8795ZM66.9563 47.7179V53.0938H65.1938V44.0398H66.8855V45.5134H66.9975C67.2058 45.034 67.532 44.6489 67.976 44.3581C68.424 44.0673 68.9879 43.9219 69.6677 43.9219C70.2847 43.9219 70.825 44.0515 71.2887 44.3109C71.7524 44.5663 72.112 44.9475 72.3674 45.4544C72.6229 45.9614 72.7506 46.5882 72.7506 47.3348V53.0938H70.9881V47.547C70.9881 46.8907 70.8172 46.3779 70.4753 46.0085C70.1334 45.6352 69.6638 45.4486 69.0665 45.4486C68.6578 45.4486 68.2943 45.537 67.976 45.7138C67.6616 45.8906 67.4121 46.15 67.2274 46.4919C67.0466 46.8298 66.9563 47.2385 66.9563 47.7179ZM78.9104 56.6776C78.1912 56.6776 77.5723 56.5833 77.0536 56.3947C76.5388 56.2061 76.1183 55.9565 75.7922 55.6461C75.466 55.3356 75.2224 54.9957 75.0612 54.6263L76.5761 54.0015C76.6822 54.1744 76.8237 54.3571 77.0005 54.5497C77.1813 54.7462 77.4249 54.9132 77.7315 55.0507C78.0419 55.1883 78.4408 55.257 78.928 55.257C79.5961 55.257 80.1482 55.094 80.5844 54.7678C81.0206 54.4456 81.2387 53.9308 81.2387 53.2234V51.4433H81.1267C81.0206 51.6358 80.8673 51.85 80.6669 52.0858C80.4704 52.3216 80.1993 52.5259 79.8535 52.6988C79.5077 52.8717 79.0577 52.9582 78.5036 52.9582C77.7884 52.9582 77.144 52.7912 76.5702 52.4571C76.0004 52.1192 75.5485 51.6221 75.2145 50.9658C74.8844 50.3056 74.7194 49.4942 74.7194 48.5314C74.7194 47.5686 74.8824 46.7434 75.2086 46.0557C75.5387 45.368 75.9906 44.8414 76.5643 44.476C77.1381 44.1066 77.7884 43.9219 78.5154 43.9219C79.0774 43.9219 79.5313 44.0162 79.8771 44.2048C80.2229 44.3895 80.4921 44.6056 80.6846 44.8532C80.8811 45.1008 81.0324 45.3189 81.1385 45.5075H81.2682V44.0398H82.9953V53.2942C82.9953 54.0722 82.8145 54.7108 82.453 55.2099C82.0914 55.709 81.6022 56.0783 80.9852 56.3181C80.3722 56.5578 79.6806 56.6776 78.9104 56.6776ZM78.8927 51.4963C79.3996 51.4963 79.8279 51.3784 80.1777 51.1427C80.5314 50.903 80.7986 50.5611 80.9793 50.117C81.164 49.669 81.2564 49.1326 81.2564 48.5078C81.2564 47.8987 81.166 47.3623 80.9852 46.8986C80.8045 46.4349 80.5392 46.0734 80.1895 45.814C79.8397 45.5507 79.4075 45.4191 78.8927 45.4191C78.3622 45.4191 77.9201 45.5566 77.5664 45.8317C77.2127 46.1028 76.9455 46.4722 76.7648 46.9399C76.5879 47.4075 76.4995 47.9301 76.4995 48.5078C76.4995 49.1012 76.5899 49.6219 76.7707 50.0699C76.9514 50.5178 77.2186 50.8676 77.5723 51.1191C77.9299 51.3706 78.37 51.4963 78.8927 51.4963ZM89.2611 53.2765C88.3691 53.2765 87.6009 53.0859 86.9564 52.7047C86.3158 52.3196 85.8207 51.7793 85.471 51.0837C85.1252 50.3842 84.9522 49.5649 84.9522 48.6257C84.9522 47.6983 85.1252 46.8809 85.471 46.1736C85.8207 45.4662 86.308 44.9141 86.9328 44.5172C87.5616 44.1203 88.2964 43.9219 89.1374 43.9219C89.6482 43.9219 90.1434 44.0064 90.6228 44.1753C91.1022 44.3443 91.5325 44.6096 91.9137 44.9711C92.2949 45.3326 92.5955 45.8022 92.8155 46.3799C93.0356 46.9536 93.1456 47.6511 93.1456 48.4724V49.0973H85.9484V47.7769H91.4185C91.4185 47.3132 91.3242 46.9025 91.1356 46.5449C90.947 46.1834 90.6817 45.8985 90.3398 45.6902C90.0019 45.482 89.605 45.3778 89.1492 45.3778C88.654 45.3778 88.2217 45.4996 87.8524 45.7433C87.4869 45.983 87.204 46.2974 87.0035 46.6864C86.8071 47.0715 86.7088 47.49 86.7088 47.9419V48.9735C86.7088 49.5786 86.8149 50.0934 87.0271 50.5178C87.2433 50.9422 87.5439 51.2664 87.929 51.4904C88.3141 51.7105 88.764 51.8205 89.2788 51.8205C89.6129 51.8205 89.9174 51.7734 90.1925 51.6791C90.4676 51.5808 90.7053 51.4354 90.9057 51.2429C91.1061 51.0503 91.2594 50.8126 91.3655 50.5296L93.0336 50.8303C92.9 51.3215 92.6603 51.7518 92.3145 52.1212C91.9726 52.4866 91.5423 52.7715 91.0236 52.9759C90.5088 53.1763 89.9213 53.2765 89.2611 53.2765ZM103.308 53.2765C102.431 53.2765 101.677 53.078 101.044 52.6811C100.416 52.2803 99.9322 51.7282 99.5942 51.0248C99.2563 50.3214 99.0873 49.5158 99.0873 48.608C99.0873 47.6885 99.2602 46.877 99.606 46.1736C99.9519 45.4662 100.439 44.9141 101.068 44.5172C101.697 44.1203 102.437 43.9219 103.29 43.9219C103.978 43.9219 104.591 44.0496 105.129 44.305C105.668 44.5565 106.102 44.9102 106.432 45.366C106.766 45.8219 106.964 46.3543 107.027 46.9634H105.312C105.218 46.539 105.001 46.1736 104.664 45.8671C104.33 45.5605 103.882 45.4073 103.32 45.4073C102.828 45.4073 102.398 45.537 102.029 45.7963C101.663 46.0518 101.378 46.4172 101.174 46.8927C100.97 47.3643 100.867 47.9223 100.867 48.5668C100.867 49.2269 100.968 49.7967 101.168 50.2762C101.369 50.7556 101.651 51.1269 102.017 51.3902C102.386 51.6535 102.821 51.7852 103.32 51.7852C103.654 51.7852 103.956 51.7243 104.227 51.6024C104.502 51.4767 104.732 51.2979 104.917 51.066C105.106 50.8342 105.237 50.5552 105.312 50.229H107.027C106.964 50.8145 106.774 51.3372 106.455 51.797C106.137 52.2567 105.711 52.6183 105.176 52.8815C104.646 53.1448 104.023 53.2765 103.308 53.2765ZM112.726 53.2765C111.877 53.2765 111.136 53.082 110.504 52.6929C109.871 52.3039 109.38 51.7596 109.03 51.0601C108.68 50.3607 108.505 49.5433 108.505 48.608C108.505 47.6688 108.68 46.8475 109.03 46.1441C109.38 45.4407 109.871 44.8945 110.504 44.5054C111.136 44.1164 111.877 43.9219 112.726 43.9219C113.575 43.9219 114.315 44.1164 114.948 44.5054C115.581 44.8945 116.072 45.4407 116.422 46.1441C116.771 46.8475 116.946 47.6688 116.946 48.608C116.946 49.5433 116.771 50.3607 116.422 51.0601C116.072 51.7596 115.581 52.3039 114.948 52.6929C114.315 53.082 113.575 53.2765 112.726 53.2765ZM112.732 51.797C113.282 51.797 113.738 51.6516 114.099 51.3608C114.461 51.07 114.728 50.6829 114.901 50.1995C115.078 49.7162 115.166 49.1837 115.166 48.6021C115.166 48.0245 115.078 47.494 114.901 47.0106C114.728 46.5233 114.461 46.1323 114.099 45.8376C113.738 45.5429 113.282 45.3955 112.732 45.3955C112.178 45.3955 111.718 45.5429 111.352 45.8376C110.991 46.1323 110.722 46.5233 110.545 47.0106C110.372 47.494 110.285 48.0245 110.285 48.6021C110.285 49.1837 110.372 49.7162 110.545 50.1995C110.722 50.6829 110.991 51.07 111.352 51.3608C111.718 51.6516 112.178 51.797 112.732 51.797ZM120.676 41.0218V53.0938H118.914V41.0218H120.676ZM126.861 53.2765C126.012 53.2765 125.271 53.082 124.639 52.6929C124.006 52.3039 123.515 51.7596 123.165 51.0601C122.815 50.3607 122.64 49.5433 122.64 48.608C122.64 47.6688 122.815 46.8475 123.165 46.1441C123.515 45.4407 124.006 44.8945 124.639 44.5054C125.271 44.1164 126.012 43.9219 126.861 43.9219C127.71 43.9219 128.45 44.1164 129.083 44.5054C129.716 44.8945 130.207 45.4407 130.557 46.1441C130.906 46.8475 131.081 47.6688 131.081 48.608C131.081 49.5433 130.906 50.3607 130.557 51.0601C130.207 51.7596 129.716 52.3039 129.083 52.6929C128.45 53.082 127.71 53.2765 126.861 53.2765ZM126.867 51.797C127.417 51.797 127.873 51.6516 128.234 51.3608C128.596 51.07 128.863 50.6829 129.036 50.1995C129.213 49.7162 129.301 49.1837 129.301 48.6021C129.301 48.0245 129.213 47.494 129.036 47.0106C128.863 46.5233 128.596 46.1323 128.234 45.8376C127.873 45.5429 127.417 45.3955 126.867 45.3955C126.313 45.3955 125.853 45.5429 125.487 45.8376C125.126 46.1323 124.857 46.5233 124.68 47.0106C124.507 47.494 124.421 48.0245 124.421 48.6021C124.421 49.1837 124.507 49.7162 124.68 50.1995C124.857 50.6829 125.126 51.07 125.487 51.3608C125.853 51.6516 126.313 51.797 126.867 51.797ZM133.049 53.0938V44.0398H134.752V45.478H134.846C135.012 44.9907 135.302 44.6076 135.719 44.3286C136.139 44.0457 136.615 43.9042 137.145 43.9042C137.255 43.9042 137.385 43.9081 137.534 43.916C137.688 43.9238 137.807 43.9337 137.894 43.9454V45.6313C137.823 45.6116 137.697 45.59 137.517 45.5664C137.336 45.5389 137.155 45.5252 136.974 45.5252C136.558 45.5252 136.186 45.6136 135.86 45.7904C135.538 45.9633 135.283 46.205 135.094 46.5155C134.905 46.822 134.811 47.1717 134.811 47.5647V53.0938H133.049ZM146.204 46.2502L144.606 46.5331C144.54 46.3288 144.433 46.1343 144.288 45.9496C144.147 45.7649 143.954 45.6136 143.71 45.4957C143.467 45.3778 143.162 45.3189 142.797 45.3189C142.298 45.3189 141.881 45.4309 141.547 45.6549C141.213 45.8749 141.046 46.1598 141.046 46.5096C141.046 46.8122 141.158 47.0558 141.382 47.2405C141.606 47.4252 141.968 47.5765 142.467 47.6944L143.905 48.0245C144.738 48.217 145.359 48.5137 145.768 48.9145C146.176 49.3154 146.381 49.836 146.381 50.4766C146.381 51.0189 146.223 51.5022 145.909 51.9266C145.599 52.3471 145.164 52.6772 144.606 52.9169C144.052 53.1566 143.41 53.2765 142.679 53.2765C141.665 53.2765 140.838 53.0603 140.197 52.6281C139.557 52.1919 139.164 51.573 139.018 50.7713L140.722 50.5119C140.828 50.956 141.046 51.292 141.376 51.5199C141.706 51.7439 142.137 51.8559 142.667 51.8559C143.245 51.8559 143.706 51.736 144.052 51.4963C144.398 51.2527 144.571 50.956 144.571 50.6063C144.571 50.3233 144.465 50.0856 144.253 49.893C144.044 49.7005 143.724 49.5551 143.292 49.4568L141.759 49.1208C140.914 48.9283 140.29 48.6218 139.885 48.2013C139.484 47.7808 139.284 47.2483 139.284 46.6039C139.284 46.0694 139.433 45.6018 139.732 45.201C140.03 44.8002 140.443 44.4877 140.969 44.2638C141.496 44.0358 142.099 43.9219 142.779 43.9219C143.758 43.9219 144.528 44.1341 145.09 44.5585C145.652 44.979 146.023 45.5429 146.204 46.2502ZM156.525 53.2765C155.676 53.2765 154.935 53.082 154.303 52.6929C153.67 52.3039 153.179 51.7596 152.829 51.0601C152.479 50.3607 152.305 49.5433 152.305 48.608C152.305 47.6688 152.479 46.8475 152.829 46.1441C153.179 45.4407 153.67 44.8945 154.303 44.5054C154.935 44.1164 155.676 43.9219 156.525 43.9219C157.374 43.9219 158.115 44.1164 158.747 44.5054C159.38 44.8945 159.871 45.4407 160.221 46.1441C160.571 46.8475 160.746 47.6688 160.746 48.608C160.746 49.5433 160.571 50.3607 160.221 51.0601C159.871 51.7596 159.38 52.3039 158.747 52.6929C158.115 53.082 157.374 53.2765 156.525 53.2765ZM156.531 51.797C157.081 51.797 157.537 51.6516 157.898 51.3608C158.26 51.07 158.527 50.6829 158.7 50.1995C158.877 49.7162 158.965 49.1837 158.965 48.6021C158.965 48.0245 158.877 47.494 158.7 47.0106C158.527 46.5233 158.26 46.1323 157.898 45.8376C157.537 45.5429 157.081 45.3955 156.531 45.3955C155.977 45.3955 155.517 45.5429 155.152 45.8376C154.79 46.1323 154.521 46.5233 154.344 47.0106C154.171 47.494 154.085 48.0245 154.085 48.6021C154.085 49.1837 154.171 49.7162 154.344 50.1995C154.521 50.6829 154.79 51.07 155.152 51.3608C155.517 51.6516 155.977 51.797 156.531 51.797ZM167.022 44.0398V45.4544H161.905V44.0398H167.022ZM163.308 53.0938V42.9905C163.308 42.4247 163.432 41.9551 163.68 41.5817C163.927 41.2045 164.255 40.9235 164.664 40.7388C165.073 40.5502 165.517 40.4559 165.996 40.4559C166.35 40.4559 166.652 40.4854 166.904 40.5443C167.155 40.5993 167.342 40.6504 167.464 40.6976L167.051 42.124C166.969 42.1005 166.863 42.073 166.733 42.0415C166.603 42.0061 166.446 41.9885 166.261 41.9885C165.833 41.9885 165.526 42.0946 165.342 42.3068C165.161 42.519 165.071 42.8255 165.071 43.2263V53.0938H163.308ZM177.029 56.6776C176.31 56.6776 175.691 56.5833 175.172 56.3947C174.658 56.2061 174.237 55.9565 173.911 55.6461C173.585 55.3356 173.341 54.9957 173.18 54.6263L174.695 54.0015C174.801 54.1744 174.942 54.3571 175.119 54.5497C175.3 54.7462 175.544 54.9132 175.85 55.0507C176.161 55.1883 176.56 55.257 177.047 55.257C177.715 55.257 178.267 55.094 178.703 54.7678C179.139 54.4456 179.357 53.9308 179.357 53.2234V51.4433H179.245C179.139 51.6358 178.986 51.85 178.786 52.0858C178.589 52.3216 178.318 52.5259 177.972 52.6988C177.626 52.8717 177.177 52.9582 176.622 52.9582C175.907 52.9582 175.263 52.7912 174.689 52.4571C174.119 52.1192 173.667 51.6221 173.333 50.9658C173.003 50.3056 172.838 49.4942 172.838 48.5314C172.838 47.5686 173.001 46.7434 173.327 46.0557C173.657 45.368 174.109 44.8414 174.683 44.476C175.257 44.1066 175.907 43.9219 176.634 43.9219C177.196 43.9219 177.65 44.0162 177.996 44.2048C178.342 44.3895 178.611 44.6056 178.803 44.8532C179 45.1008 179.151 45.3189 179.257 45.5075H179.387V44.0398H181.114V53.2942C181.114 54.0722 180.933 54.7108 180.572 55.2099C180.21 55.709 179.721 56.0783 179.104 56.3181C178.491 56.5578 177.799 56.6776 177.029 56.6776ZM177.011 51.4963C177.518 51.4963 177.947 51.3784 178.296 51.1427C178.65 50.903 178.917 50.5611 179.098 50.117C179.283 49.669 179.375 49.1326 179.375 48.5078C179.375 47.8987 179.285 47.3623 179.104 46.8986C178.923 46.4349 178.658 46.0734 178.308 45.814C177.959 45.5507 177.526 45.4191 177.011 45.4191C176.481 45.4191 176.039 45.5566 175.685 45.8317C175.332 46.1028 175.064 46.4722 174.884 46.9399C174.707 47.4075 174.618 47.9301 174.618 48.5078C174.618 49.1012 174.709 49.6219 174.889 50.0699C175.07 50.5178 175.337 50.8676 175.691 51.1191C176.049 51.3706 176.489 51.4963 177.011 51.4963ZM183.478 53.0938V44.0398H185.181V45.478H185.276C185.441 44.9907 185.731 44.6076 186.148 44.3286C186.568 44.0457 187.044 43.9042 187.574 43.9042C187.684 43.9042 187.814 43.9081 187.964 43.916C188.117 43.9238 188.237 43.9337 188.323 43.9454V45.6313C188.252 45.6116 188.127 45.59 187.946 45.5664C187.765 45.5389 187.584 45.5252 187.404 45.5252C186.987 45.5252 186.616 45.6136 186.289 45.7904C185.967 45.9633 185.712 46.205 185.523 46.5155C185.335 46.822 185.24 47.1717 185.24 47.5647V53.0938H183.478ZM192.402 53.2942C191.828 53.2942 191.31 53.1881 190.846 52.9759C190.382 52.7597 190.015 52.4473 189.744 52.0386C189.476 51.6299 189.343 51.1289 189.343 50.5355C189.343 50.0247 189.441 49.6042 189.638 49.2741C189.834 48.944 190.099 48.6827 190.433 48.4901C190.767 48.2976 191.141 48.1522 191.553 48.0539C191.966 47.9557 192.386 47.881 192.815 47.8299C193.357 47.7671 193.797 47.716 194.135 47.6767C194.473 47.6335 194.719 47.5647 194.872 47.4704C195.025 47.3761 195.102 47.2228 195.102 47.0106V46.9693C195.102 46.4545 194.956 46.0557 194.666 45.7727C194.379 45.4898 193.95 45.3483 193.381 45.3483C192.787 45.3483 192.32 45.48 191.978 45.7433C191.64 46.0026 191.406 46.2915 191.276 46.6098L189.62 46.2325C189.816 45.6824 190.103 45.2383 190.48 44.9004C190.862 44.5585 191.3 44.3109 191.795 44.1576C192.29 44.0005 192.811 43.9219 193.357 43.9219C193.719 43.9219 194.102 43.9651 194.506 44.0515C194.915 44.1341 195.296 44.2873 195.65 44.5113C196.008 44.7353 196.3 45.0556 196.528 45.4721C196.756 45.8847 196.87 46.4211 196.87 47.0813V53.0938H195.149V51.8559H195.078C194.964 52.0838 194.793 52.3078 194.565 52.5279C194.337 52.7479 194.045 52.9307 193.687 53.0761C193.329 53.2215 192.901 53.2942 192.402 53.2942ZM192.785 51.8795C193.273 51.8795 193.689 51.7832 194.035 51.5906C194.385 51.3981 194.65 51.1466 194.831 50.8361C195.015 50.5218 195.108 50.1858 195.108 49.8282V48.6611C195.045 48.7239 194.923 48.7829 194.742 48.8379C194.565 48.889 194.363 48.9342 194.135 48.9735C193.907 49.0088 193.685 49.0422 193.469 49.0737C193.253 49.1012 193.072 49.1248 192.927 49.1444C192.585 49.1876 192.272 49.2603 191.989 49.3625C191.71 49.4647 191.486 49.6121 191.317 49.8046C191.152 49.9932 191.07 50.2447 191.07 50.5591C191.07 50.9953 191.231 51.3254 191.553 51.5494C191.876 51.7694 192.286 51.8795 192.785 51.8795ZM199.218 56.489V44.0398H200.939V45.5075H201.086C201.188 45.3189 201.336 45.1008 201.528 44.8532C201.721 44.6056 201.988 44.3895 202.33 44.2048C202.672 44.0162 203.124 43.9219 203.686 43.9219C204.417 43.9219 205.069 44.1066 205.643 44.476C206.216 44.8453 206.666 45.3778 206.993 46.0734C207.323 46.7689 207.488 47.6059 207.488 48.5844C207.488 49.5629 207.325 50.4019 206.998 51.1014C206.672 51.797 206.224 52.3334 205.654 52.7106C205.085 53.0839 204.434 53.2706 203.703 53.2706C203.153 53.2706 202.703 53.1782 202.354 52.9935C202.008 52.8088 201.737 52.5927 201.54 52.3451C201.344 52.0976 201.192 51.8775 201.086 51.685H200.98V56.489H199.218ZM200.945 48.5668C200.945 49.2034 201.037 49.7614 201.222 50.2408C201.406 50.7202 201.674 51.0955 202.023 51.3667C202.373 51.6339 202.801 51.7675 203.308 51.7675C203.835 51.7675 204.275 51.628 204.629 51.349C204.982 51.066 205.25 50.6829 205.43 50.1995C205.615 49.7162 205.707 49.1719 205.707 48.5668C205.707 47.9694 205.617 47.433 205.436 46.9575C205.26 46.4821 204.992 46.1068 204.635 45.8317C204.281 45.5566 203.839 45.4191 203.308 45.4191C202.798 45.4191 202.365 45.5507 202.012 45.814C201.662 46.0773 201.397 46.4447 201.216 46.9163C201.035 47.3878 200.945 47.938 200.945 48.5668ZM211.225 47.7179V53.0938H209.462V41.0218H211.201V45.5134H211.313C211.525 45.0261 211.85 44.639 212.286 44.3522C212.722 44.0653 213.292 43.9219 213.995 43.9219C214.616 43.9219 215.158 44.0496 215.622 44.305C216.09 44.5604 216.451 44.9416 216.707 45.4486C216.966 45.9515 217.096 46.5803 217.096 47.3348V53.0938H215.333V47.547C215.333 46.8829 215.162 46.3681 214.82 46.0026C214.479 45.6332 214.003 45.4486 213.394 45.4486C212.977 45.4486 212.604 45.537 212.274 45.7138C211.948 45.8906 211.69 46.15 211.502 46.4919C211.317 46.8298 211.225 47.2385 211.225 47.7179ZM219.448 53.0938V44.0398H221.21V53.0938H219.448ZM220.338 42.6428C220.031 42.6428 219.768 42.5406 219.548 42.3362C219.332 42.128 219.224 41.8804 219.224 41.5935C219.224 41.3027 219.332 41.0552 219.548 40.8508C219.768 40.6425 220.031 40.5384 220.338 40.5384C220.644 40.5384 220.906 40.6425 221.122 40.8508C221.342 41.0552 221.452 41.3027 221.452 41.5935C221.452 41.8804 221.342 42.128 221.122 42.3362C220.906 42.5406 220.644 42.6428 220.338 42.6428ZM227.395 53.2765C226.519 53.2765 225.764 53.078 225.131 52.6811C224.503 52.2803 224.019 51.7282 223.681 51.0248C223.343 50.3214 223.174 49.5158 223.174 48.608C223.174 47.6885 223.347 46.877 223.693 46.1736C224.039 45.4662 224.526 44.9141 225.155 44.5172C225.784 44.1203 226.525 43.9219 227.377 43.9219C228.065 43.9219 228.678 44.0496 229.216 44.305C229.755 44.5565 230.189 44.9102 230.519 45.366C230.853 45.8219 231.052 46.3543 231.114 46.9634H229.399C229.305 46.539 229.089 46.1736 228.751 45.8671C228.417 45.5605 227.969 45.4073 227.407 45.4073C226.916 45.4073 226.485 45.537 226.116 45.7963C225.75 46.0518 225.465 46.4172 225.261 46.8927C225.057 47.3643 224.955 47.9223 224.955 48.5668C224.955 49.2269 225.055 49.7967 225.255 50.2762C225.456 50.7556 225.739 51.1269 226.104 51.3902C226.473 51.6535 226.908 51.7852 227.407 51.7852C227.741 51.7852 228.043 51.7243 228.314 51.6024C228.59 51.4767 228.819 51.2979 229.004 51.066C229.193 50.8342 229.324 50.5552 229.399 50.229H231.114C231.052 50.8145 230.861 51.3372 230.543 51.797C230.224 52.2567 229.798 52.6183 229.264 52.8815C228.733 53.1448 228.11 53.2765 227.395 53.2765ZM239.784 46.2502L238.186 46.5331C238.12 46.3288 238.013 46.1343 237.868 45.9496C237.727 45.7649 237.534 45.6136 237.29 45.4957C237.047 45.3778 236.742 45.3189 236.377 45.3189C235.878 45.3189 235.461 45.4309 235.127 45.6549C234.793 45.8749 234.626 46.1598 234.626 46.5096C234.626 46.8122 234.738 47.0558 234.962 47.2405C235.186 47.4252 235.548 47.5765 236.047 47.6944L237.485 48.0245C238.318 48.217 238.939 48.5137 239.348 48.9145C239.756 49.3154 239.961 49.836 239.961 50.4766C239.961 51.0189 239.803 51.5022 239.489 51.9266C239.179 52.3471 238.744 52.6772 238.186 52.9169C237.632 53.1566 236.99 53.2765 236.259 53.2765C235.245 53.2765 234.418 53.0603 233.777 52.6281C233.137 52.1919 232.744 51.573 232.598 50.7713L234.302 50.5119C234.408 50.956 234.626 51.292 234.956 51.5199C235.286 51.7439 235.717 51.8559 236.247 51.8559C236.825 51.8559 237.286 51.736 237.632 51.4963C237.978 51.2527 238.151 50.956 238.151 50.6063C238.151 50.3233 238.045 50.0856 237.833 49.893C237.624 49.7005 237.304 49.5551 236.872 49.4568L235.339 49.1208C234.494 48.9283 233.87 48.6218 233.465 48.2013C233.064 47.7808 232.864 47.2483 232.864 46.6039C232.864 46.0694 233.013 45.6018 233.312 45.201C233.61 44.8002 234.023 44.4877 234.549 44.2638C235.076 44.0358 235.679 43.9219 236.359 43.9219C237.338 43.9219 238.108 44.1341 238.67 44.5585C239.232 44.979 239.603 45.5429 239.784 46.2502Z" fill="white"/>
<path fill-rule="evenodd" clip-rule="evenodd" d="M27.8784 77.4766C24.3125 77.4766 21.4219 80.3672 21.4219 83.9331V109.759C21.4219 113.325 24.3126 116.216 27.8784 116.216H248.574L256.851 106.682V83.9331C256.851 80.3672 253.96 77.4766 250.394 77.4766H27.8784Z" fill="#00508A"/>
<path d="M256.828 106.523L248.055 116.759V106.523H256.828Z" fill="#00B0C8"/>
<path d="M34.7132 101.52H32.7798L37.1241 89.4475H39.2284L43.5727 101.52H41.6393L38.2263 91.6403H38.132L34.7132 101.52ZM35.0374 96.7921H41.3092V98.3247H35.0374V96.7921ZM48.418 101.696C47.6871 101.696 47.0347 101.51 46.461 101.136C45.8912 100.759 45.4432 100.223 45.117 99.5272C44.7948 98.8277 44.6337 97.9887 44.6337 97.0102C44.6337 96.0317 44.7968 95.1947 45.1229 94.4992C45.453 93.8036 45.9049 93.2711 46.4787 92.9017C47.0524 92.5323 47.7028 92.3476 48.4298 92.3476C48.9917 92.3476 49.4436 92.442 49.7855 92.6306C50.1313 92.8153 50.3985 93.0314 50.5872 93.279C50.7797 93.5266 50.929 93.7447 51.0351 93.9333H51.1413V89.4475H52.9037V101.52H51.1825V100.111H51.0351C50.929 100.303 50.7758 100.523 50.5754 100.771C50.3789 101.018 50.1077 101.235 49.7619 101.419C49.4161 101.604 48.9681 101.696 48.418 101.696ZM48.807 100.193C49.3139 100.193 49.7423 100.06 50.092 99.7924C50.4457 99.5213 50.7129 99.146 50.8937 98.6666C51.0784 98.1872 51.1707 97.6291 51.1707 96.9925C51.1707 96.3638 51.0803 95.8136 50.8996 95.3421C50.7188 94.8705 50.4536 94.5031 50.1038 94.2398C49.7541 93.9765 49.3218 93.8449 48.807 93.8449C48.2765 93.8449 47.8344 93.9824 47.4808 94.2575C47.1271 94.5326 46.8599 94.9078 46.6791 95.3833C46.5023 95.8588 46.4138 96.3952 46.4138 96.9925C46.4138 97.5977 46.5042 98.142 46.685 98.6253C46.8658 99.1087 47.133 99.4918 47.4866 99.7748C47.8442 100.054 48.2844 100.193 48.807 100.193ZM58.8086 101.696C58.0776 101.696 57.4253 101.51 56.8516 101.136C56.2818 100.759 55.8338 100.223 55.5076 99.5272C55.1854 98.8277 55.0243 97.9887 55.0243 97.0102C55.0243 96.0317 55.1874 95.1947 55.5135 94.4992C55.8436 93.8036 56.2955 93.2711 56.8693 92.9017C57.443 92.5323 58.0934 92.3476 58.8203 92.3476C59.3823 92.3476 59.8342 92.442 60.1761 92.6306C60.5219 92.8153 60.7891 93.0314 60.9777 93.279C61.1703 93.5266 61.3196 93.7447 61.4257 93.9333H61.5318V89.4475H63.2943V101.52H61.5731V100.111H61.4257C61.3196 100.303 61.1664 100.523 60.9659 100.771C60.7695 101.018 60.4983 101.235 60.1525 101.419C59.8067 101.604 59.3587 101.696 58.8086 101.696ZM59.1976 100.193C59.7045 100.193 60.1329 100.06 60.4826 99.7924C60.8363 99.5213 61.1035 99.146 61.2843 98.6666C61.4689 98.1872 61.5613 97.6291 61.5613 96.9925C61.5613 96.3638 61.4709 95.8136 61.2901 95.3421C61.1094 94.8705 60.8441 94.5031 60.4944 94.2398C60.1446 93.9765 59.7124 93.8449 59.1976 93.8449C58.6671 93.8449 58.225 93.9824 57.8713 94.2575C57.5177 94.5326 57.2504 94.9078 57.0697 95.3833C56.8928 95.8588 56.8044 96.3952 56.8044 96.9925C56.8044 97.5977 56.8948 98.142 57.0756 98.6253C57.2563 99.1087 57.5235 99.4918 57.8772 99.7748C58.2348 100.054 58.6749 100.193 59.1976 100.193ZM76.9873 94.676L75.3899 94.9589C75.323 94.7546 75.2169 94.5601 75.0715 94.3754C74.9301 94.1907 74.7375 94.0394 74.4939 93.9215C74.2502 93.8036 73.9457 93.7447 73.5802 93.7447C73.0812 93.7447 72.6646 93.8566 72.3306 94.0806C71.9966 94.3007 71.8296 94.5856 71.8296 94.9353C71.8296 95.2379 71.9416 95.4816 72.1655 95.6663C72.3895 95.851 72.7511 96.0023 73.2501 96.1201L74.6884 96.4502C75.5215 96.6428 76.1424 96.9395 76.5511 97.3403C76.9598 97.7411 77.1641 98.2618 77.1641 98.9024C77.1641 99.4447 77.0069 99.928 76.6925 100.352C76.3821 100.773 75.9479 101.103 75.3899 101.343C74.8358 101.582 74.1933 101.702 73.4623 101.702C72.4485 101.702 71.6213 101.486 70.9807 101.054C70.3402 100.618 69.9472 99.9987 69.8018 99.1971L71.5054 98.9377C71.6115 99.3818 71.8296 99.7178 72.1597 99.9457C72.4897 100.17 72.92 100.282 73.4506 100.282C74.0282 100.282 74.49 100.162 74.8358 99.9221C75.1816 99.6785 75.3545 99.3818 75.3545 99.032C75.3545 98.7491 75.2484 98.5114 75.0362 98.3188C74.8279 98.1262 74.5076 97.9809 74.0754 97.8826L72.5428 97.5466C71.6979 97.3541 71.0731 97.0476 70.6683 96.6271C70.2675 96.2066 70.0671 95.6741 70.0671 95.0297C70.0671 94.4952 70.2164 94.0276 70.5151 93.6268C70.8137 93.2259 71.2264 92.9135 71.7529 92.6895C72.2795 92.4616 72.8827 92.3476 73.5626 92.3476C74.541 92.3476 75.3113 92.5599 75.8732 92.9843C76.4352 93.4047 76.8065 93.9686 76.9873 94.676ZM82.9157 101.702C82.0669 101.702 81.3261 101.508 80.6935 101.119C80.0608 100.73 79.5696 100.185 79.2198 99.4859C78.8701 98.7864 78.6952 97.9691 78.6952 97.0338C78.6952 96.0946 78.8701 95.2733 79.2198 94.5699C79.5696 93.8665 80.0608 93.3202 80.6935 92.9312C81.3261 92.5422 82.0669 92.3476 82.9157 92.3476C83.7645 92.3476 84.5052 92.5422 85.1379 92.9312C85.7706 93.3202 86.2618 93.8665 86.6116 94.5699C86.9613 95.2733 87.1362 96.0946 87.1362 97.0338C87.1362 97.9691 86.9613 98.7864 86.6116 99.4859C86.2618 100.185 85.7706 100.73 85.1379 101.119C84.5052 101.508 83.7645 101.702 82.9157 101.702ZM82.9216 100.223C83.4717 100.223 83.9276 100.077 84.2891 99.7865C84.6506 99.4957 84.9179 99.1087 85.0908 98.6253C85.2676 98.142 85.356 97.6095 85.356 97.0279C85.356 96.4502 85.2676 95.9197 85.0908 95.4364C84.9179 94.9491 84.6506 94.5581 84.2891 94.2634C83.9276 93.9686 83.4717 93.8213 82.9216 93.8213C82.3675 93.8213 81.9077 93.9686 81.5423 94.2634C81.1807 94.5581 80.9116 94.9491 80.7347 95.4364C80.5618 95.9197 80.4754 96.4502 80.4754 97.0279C80.4754 97.6095 80.5618 98.142 80.7347 98.6253C80.9116 99.1087 81.1807 99.4957 81.5423 99.7865C81.9077 100.077 82.3675 100.223 82.9216 100.223ZM94.8388 97.7647V92.4655H96.6072V101.52H94.8742V99.9516H94.7799C94.5716 100.435 94.2376 100.838 93.7778 101.16C93.322 101.478 92.7541 101.637 92.0743 101.637C91.4927 101.637 90.9779 101.51 90.5299 101.254C90.0859 100.995 89.7361 100.612 89.4807 100.105C89.2292 99.5979 89.1035 98.9711 89.1035 98.2245V92.4655H90.8659V98.0123C90.8659 98.6292 91.0369 99.1205 91.3788 99.4859C91.7206 99.8514 92.1647 100.034 92.7109 100.034C93.041 100.034 93.3691 99.9516 93.6953 99.7865C94.0254 99.6215 94.2985 99.372 94.5146 99.0379C94.7347 98.7039 94.8428 98.2795 94.8388 97.7647ZM98.9753 101.52V92.4655H100.679V93.9038H100.773C100.938 93.4165 101.229 93.0334 101.646 92.7544C102.066 92.4714 102.542 92.33 103.072 92.33C103.182 92.33 103.312 92.3339 103.461 92.3418C103.614 92.3496 103.734 92.3594 103.821 92.3712V94.0571C103.75 94.0374 103.624 94.0158 103.443 93.9922C103.263 93.9647 103.082 93.951 102.901 93.951C102.485 93.951 102.113 94.0394 101.787 94.2162C101.465 94.3891 101.209 94.6308 101.021 94.9412C100.832 95.2478 100.738 95.5975 100.738 95.9905V101.52H98.9753ZM108.835 101.702C107.959 101.702 107.205 101.504 106.572 101.107C105.943 100.706 105.46 100.154 105.122 99.4506C104.784 98.7471 104.615 97.9416 104.615 97.0338C104.615 96.1143 104.788 95.3028 105.134 94.5994C105.479 93.892 105.967 93.3399 106.595 92.943C107.224 92.5461 107.965 92.3476 108.818 92.3476C109.505 92.3476 110.118 92.4754 110.657 92.7308C111.195 92.9823 111.629 93.336 111.959 93.7918C112.294 94.2477 112.492 94.7801 112.555 95.3892H110.84C110.745 94.9648 110.529 94.5994 110.191 94.2928C109.857 93.9863 109.409 93.8331 108.847 93.8331C108.356 93.8331 107.926 93.9627 107.556 94.2221C107.191 94.4775 106.906 94.843 106.702 95.3185C106.497 95.7901 106.395 96.3481 106.395 96.9925C106.395 97.6527 106.495 98.2225 106.696 98.7019C106.896 99.1814 107.179 99.5527 107.544 99.816C107.914 100.079 108.348 100.211 108.847 100.211C109.181 100.211 109.484 100.15 109.755 100.028C110.03 99.9025 110.26 99.7237 110.445 99.4918C110.633 99.26 110.765 98.981 110.84 98.6548H112.555C112.492 99.2403 112.301 99.763 111.983 100.223C111.665 100.683 111.238 101.044 110.704 101.307C110.173 101.571 109.551 101.702 108.835 101.702ZM118.342 101.702C117.45 101.702 116.681 101.512 116.037 101.13C115.396 100.745 114.901 100.205 114.552 99.5095C114.206 98.81 114.033 97.9907 114.033 97.0515C114.033 96.1241 114.206 95.3067 114.552 94.5994C114.901 93.892 115.389 93.3399 116.013 92.943C116.642 92.5461 117.377 92.3476 118.218 92.3476C118.729 92.3476 119.224 92.4321 119.703 92.6011C120.183 92.7701 120.613 93.0353 120.994 93.3969C121.376 93.7584 121.676 94.228 121.896 94.8057C122.116 95.3794 122.226 96.0769 122.226 96.8982V97.523H115.029V96.2027H120.499C120.499 95.739 120.405 95.3283 120.216 94.9707C120.028 94.6092 119.762 94.3243 119.42 94.116C119.083 93.9077 118.686 93.8036 118.23 93.8036C117.735 93.8036 117.302 93.9254 116.933 94.1691C116.568 94.4088 116.285 94.7231 116.084 95.1122C115.888 95.4973 115.789 95.9158 115.789 96.3677V97.3993C115.789 98.0044 115.896 98.5192 116.108 98.9436C116.324 99.368 116.625 99.6922 117.01 99.9162C117.395 100.136 117.845 100.246 118.359 100.246C118.693 100.246 118.998 100.199 119.273 100.105C119.548 100.007 119.786 99.8612 119.986 99.6687C120.187 99.4761 120.34 99.2383 120.446 98.9554L122.114 99.256C121.981 99.7472 121.741 100.178 121.395 100.547C121.053 100.912 120.623 101.197 120.104 101.402C119.589 101.602 119.002 101.702 118.342 101.702ZM130.966 94.676L129.369 94.9589C129.302 94.7546 129.196 94.5601 129.051 94.3754C128.909 94.1907 128.717 94.0394 128.473 93.9215C128.229 93.8036 127.925 93.7447 127.559 93.7447C127.06 93.7447 126.644 93.8566 126.31 94.0806C125.976 94.3007 125.809 94.5856 125.809 94.9353C125.809 95.2379 125.921 95.4816 126.145 95.6663C126.369 95.851 126.73 96.0023 127.229 96.1201L128.668 96.4502C129.501 96.6428 130.122 96.9395 130.53 97.3403C130.939 97.7411 131.143 98.2618 131.143 98.9024C131.143 99.4447 130.986 99.928 130.672 100.352C130.361 100.773 129.927 101.103 129.369 101.343C128.815 101.582 128.172 101.702 127.441 101.702C126.428 101.702 125.6 101.486 124.96 101.054C124.319 100.618 123.926 99.9987 123.781 99.1971L125.484 98.9377C125.591 99.3818 125.809 99.7178 126.139 99.9457C126.469 100.17 126.899 100.282 127.43 100.282C128.007 100.282 128.469 100.162 128.815 99.9221C129.161 99.6785 129.334 99.3818 129.334 99.032C129.334 98.7491 129.227 98.5114 129.015 98.3188C128.807 98.1262 128.487 97.9809 128.054 97.8826L126.522 97.5466C125.677 97.3541 125.052 97.0476 124.647 96.6271C124.247 96.2066 124.046 95.6741 124.046 95.0297C124.046 94.4952 124.196 94.0276 124.494 93.6268C124.793 93.2259 125.205 92.9135 125.732 92.6895C126.259 92.4616 126.862 92.3476 127.542 92.3476C128.52 92.3476 129.29 92.5599 129.852 92.9843C130.414 93.4047 130.786 93.9686 130.966 94.676ZM141.288 101.702C140.439 101.702 139.698 101.508 139.065 101.119C138.433 100.73 137.942 100.185 137.592 99.4859C137.242 98.7864 137.067 97.9691 137.067 97.0338C137.067 96.0946 137.242 95.2733 137.592 94.5699C137.942 93.8665 138.433 93.3202 139.065 92.9312C139.698 92.5422 140.439 92.3476 141.288 92.3476C142.137 92.3476 142.877 92.5422 143.51 92.9312C144.143 93.3202 144.634 93.8665 144.984 94.5699C145.333 95.2733 145.508 96.0946 145.508 97.0338C145.508 97.9691 145.333 98.7864 144.984 99.4859C144.634 100.185 144.143 100.73 143.51 101.119C142.877 101.508 142.137 101.702 141.288 101.702ZM141.294 100.223C141.844 100.223 142.3 100.077 142.661 99.7865C143.023 99.4957 143.29 99.1087 143.463 98.6253C143.64 98.142 143.728 97.6095 143.728 97.0279C143.728 96.4502 143.64 95.9197 143.463 95.4364C143.29 94.9491 143.023 94.5581 142.661 94.2634C142.3 93.9686 141.844 93.8213 141.294 93.8213C140.74 93.8213 140.28 93.9686 139.914 94.2634C139.553 94.5581 139.284 94.9491 139.107 95.4364C138.934 95.9197 138.847 96.4502 138.847 97.0279C138.847 97.6095 138.934 98.142 139.107 98.6253C139.284 99.1087 139.553 99.4957 139.914 99.7865C140.28 100.077 140.74 100.223 141.294 100.223ZM151.784 92.4655V93.8802H146.668V92.4655H151.784ZM148.071 101.52V91.4163C148.071 90.8504 148.195 90.3808 148.442 90.0075C148.69 89.6303 149.018 89.3493 149.427 89.1646C149.835 88.976 150.279 88.8817 150.759 88.8817C151.112 88.8817 151.415 88.9111 151.666 88.9701C151.918 89.0251 152.105 89.0762 152.226 89.1233L151.814 90.5498C151.731 90.5262 151.625 90.4987 151.496 90.4673C151.366 90.4319 151.209 90.4142 151.024 90.4142C150.596 90.4142 150.289 90.5203 150.104 90.7325C149.924 90.9448 149.833 91.2513 149.833 91.6521V101.52H148.071ZM161.385 101.696C160.654 101.696 160.002 101.51 159.428 101.136C158.858 100.759 158.41 100.223 158.084 99.5272C157.762 98.8277 157.601 97.9887 157.601 97.0102C157.601 96.0317 157.764 95.1947 158.09 94.4992C158.42 93.8036 158.872 93.2711 159.446 92.9017C160.02 92.5323 160.67 92.3476 161.397 92.3476C161.959 92.3476 162.411 92.442 162.753 92.6306C163.098 92.8153 163.366 93.0314 163.554 93.279C163.747 93.5266 163.896 93.7447 164.002 93.9333H164.108V89.4475H165.871V101.52H164.15V100.111H164.002C163.896 100.303 163.743 100.523 163.542 100.771C163.346 101.018 163.075 101.235 162.729 101.419C162.383 101.604 161.935 101.696 161.385 101.696ZM161.774 100.193C162.281 100.193 162.709 100.06 163.059 99.7924C163.413 99.5213 163.68 99.146 163.861 98.6666C164.045 98.1872 164.138 97.6291 164.138 96.9925C164.138 96.3638 164.047 95.8136 163.867 95.3421C163.686 94.8705 163.421 94.5031 163.071 94.2398C162.721 93.9765 162.289 93.8449 161.774 93.8449C161.244 93.8449 160.802 93.9824 160.448 94.2575C160.094 94.5326 159.827 94.9078 159.646 95.3833C159.469 95.8588 159.381 96.3952 159.381 96.9925C159.381 97.5977 159.471 98.142 159.652 98.6253C159.833 99.1087 160.1 99.4918 160.454 99.7748C160.811 100.054 161.251 100.193 161.774 100.193ZM171.021 101.72C170.447 101.72 169.929 101.614 169.465 101.402C169.001 101.186 168.634 100.873 168.363 100.464C168.096 100.056 167.962 99.5547 167.962 98.9613C167.962 98.4504 168.06 98.03 168.257 97.6999C168.453 97.3698 168.718 97.1085 169.052 96.9159C169.386 96.7234 169.76 96.578 170.172 96.4797C170.585 96.3815 171.005 96.3068 171.434 96.2557C171.976 96.1928 172.416 96.1418 172.754 96.1025C173.092 96.0592 173.338 95.9905 173.491 95.8962C173.644 95.8018 173.721 95.6486 173.721 95.4364V95.3951C173.721 94.8803 173.575 94.4815 173.285 94.1985C172.998 93.9156 172.569 93.7741 172 93.7741C171.406 93.7741 170.939 93.9058 170.597 94.1691C170.259 94.4284 170.025 94.7172 169.895 95.0356L168.239 94.6583C168.435 94.1081 168.722 93.6641 169.1 93.3261C169.481 92.9843 169.919 92.7367 170.414 92.5834C170.909 92.4262 171.43 92.3476 171.976 92.3476C172.338 92.3476 172.721 92.3909 173.126 92.4773C173.534 92.5599 173.915 92.7131 174.269 92.9371C174.627 93.1611 174.919 93.4814 175.147 93.8979C175.375 94.3105 175.489 94.8469 175.489 95.5071V101.52H173.768V100.282H173.697C173.583 100.51 173.412 100.734 173.184 100.954C172.957 101.174 172.664 101.356 172.306 101.502C171.949 101.647 171.52 101.72 171.021 101.72ZM171.404 100.305C171.892 100.305 172.308 100.209 172.654 100.016C173.004 99.8239 173.269 99.5724 173.45 99.2619C173.634 98.9476 173.727 98.6116 173.727 98.254V97.0868C173.664 97.1497 173.542 97.2087 173.361 97.2637C173.184 97.3148 172.982 97.36 172.754 97.3993C172.526 97.4346 172.304 97.468 172.088 97.4995C171.872 97.527 171.691 97.5506 171.546 97.5702C171.204 97.6134 170.891 97.6861 170.609 97.7883C170.33 97.8905 170.106 98.0378 169.937 98.2304C169.772 98.419 169.689 98.6705 169.689 98.9849C169.689 99.4211 169.85 99.7512 170.172 99.9752C170.495 100.195 170.905 100.305 171.404 100.305ZM182.063 92.4655V93.8802H177.118V92.4655H182.063ZM178.444 90.2964H180.206V98.8611C180.206 99.203 180.257 99.4604 180.36 99.6333C180.462 99.8023 180.593 99.9182 180.754 99.9811C180.92 100.04 181.098 100.069 181.291 100.069C181.432 100.069 181.556 100.06 181.662 100.04C181.768 100.02 181.851 100.005 181.91 99.9928L182.228 101.449C182.126 101.488 181.981 101.527 181.792 101.567C181.603 101.61 181.368 101.633 181.085 101.637C180.621 101.645 180.189 101.563 179.788 101.39C179.387 101.217 179.063 100.95 178.815 100.588C178.568 100.227 178.444 99.7728 178.444 99.2266V90.2964ZM186.648 101.72C186.074 101.72 185.555 101.614 185.091 101.402C184.628 101.186 184.26 100.873 183.989 100.464C183.722 100.056 183.588 99.5547 183.588 98.9613C183.588 98.4504 183.687 98.03 183.883 97.6999C184.08 97.3698 184.345 97.1085 184.679 96.9159C185.013 96.7234 185.386 96.578 185.799 96.4797C186.211 96.3815 186.632 96.3068 187.06 96.2557C187.602 96.1928 188.043 96.1418 188.381 96.1025C188.718 96.0592 188.964 95.9905 189.117 95.8962C189.271 95.8018 189.347 95.6486 189.347 95.4364V95.3951C189.347 94.8803 189.202 94.4815 188.911 94.1985C188.624 93.9156 188.196 93.7741 187.626 93.7741C187.033 93.7741 186.565 93.9058 186.223 94.1691C185.885 94.4284 185.651 94.7172 185.522 95.0356L183.865 94.6583C184.062 94.1081 184.349 93.6641 184.726 93.3261C185.107 92.9843 185.545 92.7367 186.04 92.5834C186.536 92.4262 187.056 92.3476 187.602 92.3476C187.964 92.3476 188.347 92.3909 188.752 92.4773C189.161 92.5599 189.542 92.7131 189.895 92.9371C190.253 93.1611 190.546 93.4814 190.774 93.8979C191.002 94.3105 191.116 94.8469 191.116 95.5071V101.52H189.394V100.282H189.324C189.21 100.51 189.039 100.734 188.811 100.954C188.583 101.174 188.29 101.356 187.933 101.502C187.575 101.647 187.147 101.72 186.648 101.72ZM187.031 100.305C187.518 100.305 187.935 100.209 188.28 100.016C188.63 99.8239 188.895 99.5724 189.076 99.2619C189.261 98.9476 189.353 98.6116 189.353 98.254V97.0868C189.29 97.1497 189.168 97.2087 188.988 97.2637C188.811 97.3148 188.608 97.36 188.381 97.3993C188.153 97.4346 187.931 97.468 187.714 97.4995C187.498 97.527 187.318 97.5506 187.172 97.5702C186.83 97.6134 186.518 97.6861 186.235 97.7883C185.956 97.8905 185.732 98.0378 185.563 98.2304C185.398 98.419 185.315 98.6705 185.315 98.9849C185.315 99.4211 185.477 99.7512 185.799 99.9752C186.121 100.195 186.532 100.305 187.031 100.305Z" fill="white"/>
</svg>
