<svg width="45" height="31" viewBox="0 0 45 31" fill="none" xmlns="http://www.w3.org/2000/svg">
<path fill-rule="evenodd" clip-rule="evenodd" d="M41.6387 2.35307C42.3202 3.03457 42.8113 3.88274 43.0631 4.81309L43.0628 4.81336C44.5124 10.6481 44.1774 19.8636 43.091 25.9239C42.8393 26.8542 42.3482 27.7023 41.6667 28.3838C40.9852 29.0653 40.1371 29.5564 39.2067 29.8082C35.8008 30.737 22.093 30.737 22.093 30.737C22.093 30.737 8.38521 30.737 4.97927 29.8082C4.04894 29.5564 3.2008 29.0653 2.5193 28.3838C1.8378 27.7023 1.34672 26.8542 1.09497 25.9239C-0.363189 20.1143 0.0365156 10.8932 1.06678 4.84128C1.31853 3.91096 1.80961 3.06281 2.49111 2.38131C3.17261 1.69981 4.02075 1.20874 4.95108 0.956982C8.35675 0.028186 22.0648 0 22.0648 0C22.0648 0 35.7723 0 39.1785 0.928796C40.1089 1.18051 40.9571 1.67157 41.6387 2.35307ZM29.0669 15.364L17.6953 21.9504V8.77734L29.0669 15.364Z" fill="#1D375E"/>
</svg>
